<?xml version='1.0' encoding='UTF-8' standalone='no'?>
<svg xmlns="http://www.w3.org/2000/svg" width="296.926mm" baseProfile="tiny" version="1.2" xmlns:xlink="http://www.w3.org/1999/xlink" viewBox="0 0 3507 2480" height="209.973mm">
 <defs/>
 <g stroke="black" stroke-linejoin="bevel" fill="none" stroke-linecap="square" stroke-width="1" fill-rule="evenodd">
  <g stroke="#000000" transform="matrix(1,0,0,1,0,0)" font-weight="400" stroke-opacity="1" stroke-linejoin="bevel" font-family="Cantarell" fill="none" stroke-linecap="square" font-style="normal" stroke-width="1" font-size="45.8333"/>
  <g stroke="#000000" transform="matrix(1,0,0,1,0,0)" font-weight="400" stroke-opacity="1" stroke-linejoin="bevel" font-family="Cantarell" fill="none" stroke-linecap="square" font-style="normal" stroke-width="1" font-size="45.8333"/>
  <g stroke="#000000" transform="matrix(11.8081,0,0,11.8081,0,0)" font-weight="400" stroke-opacity="1" stroke-linejoin="bevel" font-family="Cantarell" fill="none" stroke-linecap="square" font-style="normal" stroke-width="1" font-size="45.8333"/>
  <g stroke="#000000" transform="matrix(0.999751,0,0,0.999751,0,0)" font-weight="400" stroke-opacity="1" stroke-linejoin="bevel" font-family="Cantarell" fill="none" stroke-linecap="square" font-style="normal" stroke-width="1" font-size="45.8333"/>
  <g fill-opacity="1" stroke="none" transform="matrix(0.999751,0,0,0.999751,0,0)" font-weight="400" font-family="Cantarell" fill="#ffffff" font-style="normal" font-size="45.8333">
   <path vector-effect="none" d="M-2,-2 L3510,-2 L3510,2483 L-2,2483 L-2,-2" fill-rule="evenodd"/>
  </g>
  <g stroke="#000000" transform="matrix(0.999751,0,0,0.999751,0,0)" font-weight="400" stroke-opacity="1" stroke-linejoin="bevel" font-family="Cantarell" fill="none" stroke-linecap="square" font-style="normal" stroke-width="1" font-size="45.8333"/>
  <g stroke="#000000" transform="matrix(11.8081,0,0,11.8081,0,0)" font-weight="400" stroke-opacity="1" stroke-linejoin="bevel" font-family="Cantarell" fill="none" stroke-linecap="square" font-style="normal" stroke-width="1" font-size="45.8333"/>
  <g stroke="#000000" transform="matrix(11.8081,0,0,11.8081,0,0)" font-weight="400" stroke-opacity="1" stroke-linejoin="bevel" font-family="Cantarell" fill="none" stroke-linecap="square" font-style="normal" stroke-width="1" font-size="45.8333"/>
  <g stroke="#000000" transform="matrix(11.8081,0,0,11.8081,0,0)" font-weight="400" stroke-opacity="1" stroke-linejoin="bevel" font-family="Cantarell" fill="none" stroke-linecap="square" font-style="normal" stroke-width="1" font-size="45.8333"/>
  <g fill-opacity="1" stroke="none" transform="matrix(11.8081,0,0,11.8081,0,0)" font-weight="400" font-family="Cantarell" fill="#ffffff" font-style="normal" font-size="45.8333">
   <rect width="297" x="0" y="0" height="210"/>
  </g>
  <g stroke="#000000" transform="matrix(11.8081,0,0,11.8081,0,0)" font-weight="400" stroke-opacity="1" stroke-linejoin="bevel" font-family="Cantarell" fill="none" stroke-linecap="square" font-style="normal" stroke-width="1" font-size="45.8333"/>
  <g stroke="#000000" transform="matrix(11.8081,0,0,11.8081,0,0)" font-weight="400" stroke-opacity="1" stroke-linejoin="bevel" font-family="Cantarell" fill="none" stroke-linecap="square" font-style="normal" stroke-width="1" font-size="45.8333"/>
  <g fill-opacity="0" stroke="none" transform="matrix(0.999751,0,0,0.999751,0,0)" font-weight="400" font-family="Cantarell" fill="#000000" font-style="normal" font-size="45.8333">
   <rect width="3508" x="0" y="0" height="2480"/>
  </g>
  <g stroke="#000000" transform="matrix(0.999751,0,0,0.999751,0,0)" font-weight="400" stroke-opacity="1" stroke-linejoin="bevel" font-family="Cantarell" fill="none" stroke-linecap="square" font-style="normal" stroke-width="1" font-size="45.8333"/>
  <g stroke="#000000" transform="matrix(0.31992,0,0,0.31992,2331.11,1904.95)" font-weight="400" stroke-opacity="1" stroke-linejoin="bevel" font-family="Cantarell" fill="none" stroke-linecap="square" font-style="normal" stroke-width="1" font-size="45.8333"/>
  <g fill-opacity="1" stroke="none" transform="matrix(0.999751,0,0,0.999751,2331.11,1904.95)" font-weight="400" font-family="Cantarell" fill="#ffffff" font-style="normal" font-size="45.8333">
   <path vector-effect="none" d="M3.01563,0 L26.1563,0 L26.1563,-6.375 L18.3906,-6.375 L18.3906,-40.25 L13.9219,-40.25 L1.45313,-32.6563 L4.29688,-27.4375 L10.9063,-31.1406 L10.9063,-6.375 L3.01563,-6.375 L3.01563,0 M45.7031,0.578125 C55.3906,0.578125 61.5938,-7.54688 61.5938,-20.3594 C61.5938,-32.9375 55.5,-40.8281 46.0469,-40.8281 C36.25,-40.8281 30.0469,-32.7656 30.0469,-19.8906 C30.0469,-7.35938 36.125,0.578125 45.7031,0.578125 M46,-5.85938 C40.8906,-5.85938 37.75,-11.4219 37.75,-20.3594 C37.75,-29 40.8281,-34.3906 45.7656,-34.3906 C50.75,-34.3906 53.875,-28.8281 53.875,-19.8906 C53.875,-11.25 50.8594,-5.85938 46,-5.85938 " fill-rule="nonzero"/>
  </g>
  <g stroke="#000000" transform="matrix(0.31992,0,0,0.31992,2331.11,1904.95)" font-weight="400" stroke-opacity="1" stroke-linejoin="bevel" font-family="Cantarell" fill="none" stroke-linecap="square" font-style="normal" stroke-width="1" font-size="45.8333"/>
  <g stroke="#000000" transform="matrix(0.999751,0,0,0.999751,0,0)" font-weight="400" stroke-opacity="1" stroke-linejoin="bevel" font-family="Cantarell" fill="none" stroke-linecap="square" font-style="normal" stroke-width="1" font-size="45.8333"/>
  <g stroke="#000000" transform="matrix(0.31992,0,0,0.31992,1526.77,825.357)" font-weight="400" stroke-opacity="1" stroke-linejoin="bevel" font-family="Cantarell" fill="none" stroke-linecap="square" font-style="normal" stroke-width="1" font-size="45.8333"/>
  <g fill-opacity="1" stroke="none" transform="matrix(0.999751,0,0,0.999751,1526.77,825.357)" font-weight="400" font-family="Cantarell" fill="#ffffff" font-style="normal" font-size="45.8333">
   <path vector-effect="none" d="M3.01563,0 L26.1563,0 L26.1563,-6.375 L18.3906,-6.375 L18.3906,-40.25 L13.9219,-40.25 L1.45313,-32.6563 L4.29688,-27.4375 L10.9063,-31.1406 L10.9063,-6.375 L3.01563,-6.375 L3.01563,0 M47.6094,0.40625 L54.8125,0.40625 L54.8125,-8.35938 L62,-8.35938 L62,-14.5625 L54.8125,-14.6094 L54.8125,-40.25 L47.7969,-40.25 L28.5938,-12.2344 L28.5938,-8.35938 L47.6094,-8.35938 L47.6094,0.40625 M36.3594,-14.6094 L47.6094,-31.4375 L47.6094,-14.6094 L36.3594,-14.6094" fill-rule="nonzero"/>
  </g>
  <g stroke="#000000" transform="matrix(0.31992,0,0,0.31992,1526.77,825.357)" font-weight="400" stroke-opacity="1" stroke-linejoin="bevel" font-family="Cantarell" fill="none" stroke-linecap="square" font-style="normal" stroke-width="1" font-size="45.8333"/>
  <g stroke="#000000" transform="matrix(0.999751,0,0,0.999751,0,0)" font-weight="400" stroke-opacity="1" stroke-linejoin="bevel" font-family="Cantarell" fill="none" stroke-linecap="square" font-style="normal" stroke-width="1" font-size="45.8333"/>
  <g stroke="#000000" transform="matrix(0.31992,0,0,0.31992,1501.37,1247.65)" font-weight="400" stroke-opacity="1" stroke-linejoin="bevel" font-family="Cantarell" fill="none" stroke-linecap="square" font-style="normal" stroke-width="1" font-size="45.8333"/>
  <g fill-opacity="1" stroke="none" transform="matrix(0.999751,0,0,0.999751,1501.37,1247.65)" font-weight="400" font-family="Cantarell" fill="#ffffff" font-style="normal" font-size="45.8333">
   <path vector-effect="none" d="M3.01563,0 L26.1563,0 L26.1563,-6.375 L18.3906,-6.375 L18.3906,-40.25 L13.9219,-40.25 L1.45313,-32.6563 L4.29688,-27.4375 L10.9063,-31.1406 L10.9063,-6.375 L3.01563,-6.375 L3.01563,0 M44.1875,-40.8281 C35.6719,-40.8281 29.9219,-35.375 29.9219,-27.3125 C29.9219,-19.9531 34.6875,-15.0156 41.7656,-15.0156 C45.8125,-15.0156 49.2344,-16.5938 51.8438,-19.6094 C51.5625,-10.3281 47.6094,-5.625 40.8281,-5.625 C38.0469,-5.625 34.7344,-6.375 32.4844,-7.54688 L30.5,-1.85938 C33.0625,-0.34375 36.7188,0.578125 40.7656,0.578125 C52.6563,0.578125 59.4531,-7.3125 59.4531,-21.1719 C59.4531,-33.9844 53.7031,-40.8281 44.1875,-40.8281 M37.2969,-28.125 C37.2969,-32.0156 39.6719,-34.5156 43.5625,-34.5156 C47.9063,-34.5156 50.6875,-31.2031 51.5625,-25.1094 C49.7031,-22.5625 47.0938,-21.1094 44.1875,-21.1094 C40.0781,-21.1094 37.2969,-23.8906 37.2969,-28.125 " fill-rule="nonzero"/>
  </g>
  <g stroke="#000000" transform="matrix(0.31992,0,0,0.31992,1501.37,1247.65)" font-weight="400" stroke-opacity="1" stroke-linejoin="bevel" font-family="Cantarell" fill="none" stroke-linecap="square" font-style="normal" stroke-width="1" font-size="45.8333"/>
  <g stroke="#000000" transform="matrix(0.999751,0,0,0.999751,0,0)" font-weight="400" stroke-opacity="1" stroke-linejoin="bevel" font-family="Cantarell" fill="none" stroke-linecap="square" font-style="normal" stroke-width="1" font-size="45.8333"/>
  <g stroke="#000000" transform="matrix(0.31992,0,0,0.31992,1857.02,1211.19)" font-weight="400" stroke-opacity="1" stroke-linejoin="bevel" font-family="Cantarell" fill="none" stroke-linecap="square" font-style="normal" stroke-width="1" font-size="45.8333"/>
  <g fill-opacity="1" stroke="none" transform="matrix(0.999751,0,0,0.999751,1857.02,1211.19)" font-weight="400" font-family="Cantarell" fill="#ffffff" font-style="normal" font-size="45.8333">
   <path vector-effect="none" d="M3.01563,0 L26.1563,0 L26.1563,-6.375 L18.3906,-6.375 L18.3906,-40.25 L13.9219,-40.25 L1.45313,-32.6563 L4.29688,-27.4375 L10.9063,-31.1406 L10.9063,-6.375 L3.01563,-6.375 L3.01563,0 M44.6563,0.578125 C53.875,0.578125 59.8594,-4.0625 59.8594,-11.0156 C59.8594,-16.7031 55.9063,-19.4219 51.3281,-21.3438 C55.7344,-23.3125 58.3438,-26.7969 58.3438,-30.9063 C58.3438,-36.8281 52.9531,-40.8281 45.0625,-40.8281 C36.5938,-40.8281 31.0313,-36.25 31.0313,-29.4063 C31.0313,-24.5938 33.7031,-21.8594 37.1719,-20.0156 C32.5313,-18.3281 29.75,-14.8438 29.75,-10.375 C29.75,-3.82813 35.7813,0.578125 44.6563,0.578125 M38.3438,-30.0469 C38.3438,-32.8281 40.6563,-34.7344 44.4844,-34.7344 C48.4219,-34.7344 51.0938,-32.6563 51.0938,-29.5781 C51.0938,-26.7344 48.8906,-24.4219 45.4688,-23.6094 C41.5313,-25.1094 38.3438,-26.6719 38.3438,-30.0469 M37.1719,-11.5938 C37.1719,-14.5625 39.2656,-16.8125 42.75,-17.6875 C47.7969,-15.8906 52.4844,-14.5 52.4844,-10.5 C52.4844,-7.48438 49.875,-5.5625 45.4063,-5.5625 C40.4219,-5.5625 37.1719,-8 37.1719,-11.5938 " fill-rule="nonzero"/>
  </g>
  <g stroke="#000000" transform="matrix(0.31992,0,0,0.31992,1857.02,1211.19)" font-weight="400" stroke-opacity="1" stroke-linejoin="bevel" font-family="Cantarell" fill="none" stroke-linecap="square" font-style="normal" stroke-width="1" font-size="45.8333"/>
  <g stroke="#000000" transform="matrix(0.999751,0,0,0.999751,0,0)" font-weight="400" stroke-opacity="1" stroke-linejoin="bevel" font-family="Cantarell" fill="none" stroke-linecap="square" font-style="normal" stroke-width="1" font-size="45.8333"/>
  <g stroke="#000000" transform="matrix(0.31992,0,0,0.31992,1222.5,1154.49)" font-weight="400" stroke-opacity="1" stroke-linejoin="bevel" font-family="Cantarell" fill="none" stroke-linecap="square" font-style="normal" stroke-width="1" font-size="45.8333"/>
  <g fill-opacity="1" stroke="none" transform="matrix(0.999751,0,0,0.999751,1222.5,1154.49)" font-weight="400" font-family="Cantarell" fill="#ffffff" font-style="normal" font-size="45.8333">
   <path vector-effect="none" d="M3.01563,0 L26.1563,0 L26.1563,-6.375 L18.3906,-6.375 L18.3906,-40.25 L13.9219,-40.25 L1.45313,-32.6563 L4.29688,-27.4375 L10.9063,-31.1406 L10.9063,-6.375 L3.01563,-6.375 L3.01563,0 M45.2969,0.578125 C53.8281,0.578125 59.5625,-4.875 59.5625,-12.9375 C59.5625,-20.2969 54.8125,-25.2344 47.7344,-25.2344 C43.6719,-25.2344 40.25,-23.6563 37.6406,-20.6406 C37.9375,-29.9219 41.875,-34.625 48.6563,-34.625 C51.4375,-34.625 54.75,-33.875 57.0156,-32.7188 L58.9844,-38.3906 C56.4375,-39.9063 52.7813,-40.8281 48.7188,-40.8281 C36.8281,-40.8281 30.0469,-32.9375 30.0469,-19.0781 C30.0469,-6.26563 35.7813,0.578125 45.2969,0.578125 M45.2969,-19.1406 C49.4219,-19.1406 52.2031,-16.3594 52.2031,-12.125 C52.2031,-8.23438 49.8281,-5.73438 45.9375,-5.73438 C41.5781,-5.73438 38.7969,-9.04688 37.9375,-15.1406 C39.7813,-17.6875 42.3906,-19.1406 45.2969,-19.1406 " fill-rule="nonzero"/>
  </g>
  <g stroke="#000000" transform="matrix(0.31992,0,0,0.31992,1222.5,1154.49)" font-weight="400" stroke-opacity="1" stroke-linejoin="bevel" font-family="Cantarell" fill="none" stroke-linecap="square" font-style="normal" stroke-width="1" font-size="45.8333"/>
  <g stroke="#000000" transform="matrix(0.999751,0,0,0.999751,0,0)" font-weight="400" stroke-opacity="1" stroke-linejoin="bevel" font-family="Cantarell" fill="none" stroke-linecap="square" font-style="normal" stroke-width="1" font-size="45.8333"/>
  <g stroke="#000000" transform="matrix(0.31992,0,0,0.31992,2237.91,1356.24)" font-weight="400" stroke-opacity="1" stroke-linejoin="bevel" font-family="Cantarell" fill="none" stroke-linecap="square" font-style="normal" stroke-width="1" font-size="45.8333"/>
  <g fill-opacity="1" stroke="none" transform="matrix(0.999751,0,0,0.999751,2237.91,1356.24)" font-weight="400" font-family="Cantarell" fill="#ffffff" font-style="normal" font-size="45.8333">
   <path vector-effect="none" d="M3.01563,0 L26.1563,0 L26.1563,-6.375 L18.3906,-6.375 L18.3906,-40.25 L13.9219,-40.25 L1.45313,-32.6563 L4.29688,-27.4375 L10.9063,-31.1406 L10.9063,-6.375 L3.01563,-6.375 L3.01563,0 M41.8125,0.578125 C51.6719,0.578125 58.2813,-4.0625 58.2813,-10.9688 C58.2813,-16.0625 54.8125,-19.9531 49.3594,-21.2344 C53.4688,-22.3281 56.0781,-25.8125 56.0781,-30.2813 C56.0781,-36.7188 50.8594,-40.8281 42.6875,-40.8281 C38.2813,-40.8281 33.7031,-39.6719 29.6406,-37.4063 L31.3125,-31.8438 C34.8594,-33.4688 38.2188,-34.3906 41.125,-34.3906 C45.4688,-34.3906 48.3125,-32.3594 48.3125,-29.1719 C48.3125,-25.5156 44.7813,-23.3125 38.9219,-23.3125 L36.9375,-23.3125 L36.9375,-17.4063 L38.8594,-17.4063 C46.0469,-17.4063 50.5781,-14.9063 50.5781,-10.9063 C50.5781,-7.71875 47.5,-5.85938 42.2188,-5.85938 C38.5625,-5.85938 34.3281,-6.73438 30.7969,-8.35938 L29.1094,-2.4375 C33.1719,-0.40625 37.2344,0.578125 41.8125,0.578125 " fill-rule="nonzero"/>
  </g>
  <g stroke="#000000" transform="matrix(0.31992,0,0,0.31992,2237.91,1356.24)" font-weight="400" stroke-opacity="1" stroke-linejoin="bevel" font-family="Cantarell" fill="none" stroke-linecap="square" font-style="normal" stroke-width="1" font-size="45.8333"/>
  <g stroke="#000000" transform="matrix(0.999751,0,0,0.999751,0,0)" font-weight="400" stroke-opacity="1" stroke-linejoin="bevel" font-family="Cantarell" fill="none" stroke-linecap="square" font-style="normal" stroke-width="1" font-size="45.8333"/>
  <g stroke="#000000" transform="matrix(0.31992,0,0,0.31992,1198.57,823.22)" font-weight="400" stroke-opacity="1" stroke-linejoin="bevel" font-family="Cantarell" fill="none" stroke-linecap="square" font-style="normal" stroke-width="1" font-size="45.8333"/>
  <g fill-opacity="1" stroke="none" transform="matrix(0.999751,0,0,0.999751,1198.57,823.22)" font-weight="400" font-family="Cantarell" fill="#ffffff" font-style="normal" font-size="45.8333">
   <path vector-effect="none" d="M3.01563,0 L26.1563,0 L26.1563,-6.375 L18.3906,-6.375 L18.3906,-40.25 L13.9219,-40.25 L1.45313,-32.6563 L4.29688,-27.4375 L10.9063,-31.1406 L10.9063,-6.375 L3.01563,-6.375 L3.01563,0 M41.7031,0.578125 C51.5625,0.578125 57.9375,-4.57813 57.9375,-12.9375 C57.9375,-20.5313 52.4844,-25.0625 43.0938,-25.0625 C41.7031,-25.0625 40.4844,-24.9375 39.375,-24.7031 L39.7813,-33.75 L55.9063,-33.75 L55.9063,-40.25 L32.6563,-40.25 L31.6719,-18.0938 C34.3906,-18.625 37.5781,-18.9688 39.9063,-18.9688 C46.4063,-18.9688 50.1719,-16.4063 50.1719,-12.125 C50.1719,-8.17188 47.0938,-5.92188 41.875,-5.92188 C38.3906,-5.92188 34.5625,-6.78125 31.5469,-8.29688 L29.4688,-2.4375 C33.2344,-0.46875 37.2969,0.578125 41.7031,0.578125 " fill-rule="nonzero"/>
  </g>
  <g stroke="#000000" transform="matrix(0.31992,0,0,0.31992,1198.57,823.22)" font-weight="400" stroke-opacity="1" stroke-linejoin="bevel" font-family="Cantarell" fill="none" stroke-linecap="square" font-style="normal" stroke-width="1" font-size="45.8333"/>
  <g stroke="#000000" transform="matrix(0.999751,0,0,0.999751,0,0)" font-weight="400" stroke-opacity="1" stroke-linejoin="bevel" font-family="Cantarell" fill="none" stroke-linecap="square" font-style="normal" stroke-width="1" font-size="45.8333"/>
  <g stroke="#000000" transform="matrix(0.31992,0,0,0.31992,2691.88,1328.31)" font-weight="400" stroke-opacity="1" stroke-linejoin="bevel" font-family="Cantarell" fill="none" stroke-linecap="square" font-style="normal" stroke-width="1" font-size="45.8333"/>
  <g fill-opacity="1" stroke="none" transform="matrix(0.999751,0,0,0.999751,2691.88,1328.31)" font-weight="400" font-family="Cantarell" fill="#ffffff" font-style="normal" font-size="45.8333">
   <path vector-effect="none" d="M3.01563,0 L26.1563,0 L26.1563,-6.375 L18.3906,-6.375 L18.3906,-40.25 L13.9219,-40.25 L1.45313,-32.6563 L4.29688,-27.4375 L10.9063,-31.1406 L10.9063,-6.375 L3.01563,-6.375 L3.01563,0 M30.0469,0 L56.8906,0 L56.8906,-6.5 L40.7188,-6.5 C50.9844,-15.6094 55.5625,-22.2188 55.5625,-28.9375 C55.5625,-36.1875 50.2813,-40.8281 41.9844,-40.8281 C37,-40.8281 32.3594,-39.1563 28.9375,-36.1406 L30.9688,-30.7344 C33.9844,-33 37.4063,-34.2813 40.5469,-34.2813 C45,-34.2813 47.7969,-31.7188 47.7969,-27.7813 C47.7969,-22.3906 42.3438,-16.2969 30.0469,-5.15625 L30.0469,0" fill-rule="nonzero"/>
  </g>
  <g stroke="#000000" transform="matrix(0.31992,0,0,0.31992,2691.88,1328.31)" font-weight="400" stroke-opacity="1" stroke-linejoin="bevel" font-family="Cantarell" fill="none" stroke-linecap="square" font-style="normal" stroke-width="1" font-size="45.8333"/>
  <g stroke="#000000" transform="matrix(0.999751,0,0,0.999751,0,0)" font-weight="400" stroke-opacity="1" stroke-linejoin="bevel" font-family="Cantarell" fill="none" stroke-linecap="square" font-style="normal" stroke-width="1" font-size="45.8333"/>
  <g stroke="#000000" transform="matrix(0.31992,0,0,0.31992,1756.37,1565.98)" font-weight="400" stroke-opacity="1" stroke-linejoin="bevel" font-family="Cantarell" fill="none" stroke-linecap="square" font-style="normal" stroke-width="1" font-size="45.8333"/>
  <g fill-opacity="1" stroke="none" transform="matrix(0.999751,0,0,0.999751,1756.37,1565.98)" font-weight="400" font-family="Cantarell" fill="#ffffff" font-style="normal" font-size="45.8333">
   <path vector-effect="none" d="M3.01563,0 L26.1563,0 L26.1563,-6.375 L18.3906,-6.375 L18.3906,-40.25 L13.9219,-40.25 L1.45313,-32.6563 L4.29688,-27.4375 L10.9063,-31.1406 L10.9063,-6.375 L3.01563,-6.375 L3.01563,0 M32.8281,0 L40.7188,0 L57.0781,-36.0156 L57.0781,-40.25 L28.6563,-40.25 L28.6563,-33.75 L48.3125,-33.75 L32.8281,0" fill-rule="nonzero"/>
  </g>
  <g stroke="#000000" transform="matrix(0.31992,0,0,0.31992,1756.37,1565.98)" font-weight="400" stroke-opacity="1" stroke-linejoin="bevel" font-family="Cantarell" fill="none" stroke-linecap="square" font-style="normal" stroke-width="1" font-size="45.8333"/>
  <g stroke="#000000" transform="matrix(0.999751,0,0,0.999751,0,0)" font-weight="400" stroke-opacity="1" stroke-linejoin="bevel" font-family="Cantarell" fill="none" stroke-linecap="square" font-style="normal" stroke-width="1" font-size="45.8333"/>
  <g stroke="#000000" transform="matrix(0.31992,0,0,0.31992,2689.48,1771.28)" font-weight="400" stroke-opacity="1" stroke-linejoin="bevel" font-family="Cantarell" fill="none" stroke-linecap="square" font-style="normal" stroke-width="1" font-size="45.8333"/>
  <g fill-opacity="1" stroke="none" transform="matrix(0.999751,0,0,0.999751,2689.48,1771.28)" font-weight="400" font-family="Cantarell" fill="#ffffff" font-style="normal" font-size="45.8333">
   <path vector-effect="none" d="M3.01563,0 L26.1563,0 L26.1563,-6.375 L18.3906,-6.375 L18.3906,-40.25 L13.9219,-40.25 L1.45313,-32.6563 L4.29688,-27.4375 L10.9063,-31.1406 L10.9063,-6.375 L3.01563,-6.375 L3.01563,0 M30.3906,0 L53.5313,0 L53.5313,-6.375 L45.7656,-6.375 L45.7656,-40.25 L41.2969,-40.25 L28.8281,-32.6563 L31.6719,-27.4375 L38.2813,-31.1406 L38.2813,-6.375 L30.3906,-6.375 L30.3906,0" fill-rule="nonzero"/>
  </g>
  <g stroke="#000000" transform="matrix(0.31992,0,0,0.31992,2689.48,1771.28)" font-weight="400" stroke-opacity="1" stroke-linejoin="bevel" font-family="Cantarell" fill="none" stroke-linecap="square" font-style="normal" stroke-width="1" font-size="45.8333"/>
  <g stroke="#000000" transform="matrix(0.999751,0,0,0.999751,0,0)" font-weight="400" stroke-opacity="1" stroke-linejoin="bevel" font-family="Cantarell" fill="none" stroke-linecap="square" font-style="normal" stroke-width="1" font-size="45.8333"/>
  <g stroke="#000000" transform="matrix(0.31992,0,0,0.31992,2136.7,694.363)" font-weight="400" stroke-opacity="1" stroke-linejoin="bevel" font-family="Cantarell" fill="none" stroke-linecap="square" font-style="normal" stroke-width="1" font-size="45.8333"/>
  <g fill-opacity="1" stroke="none" transform="matrix(0.999751,0,0,0.999751,2136.7,694.363)" font-weight="400" font-family="Cantarell" fill="#ffffff" font-style="normal" font-size="45.8333">
   <path vector-effect="none" d="M20.2344,0.40625 L27.4375,0.40625 L27.4375,-8.35938 L34.625,-8.35938 L34.625,-14.5625 L27.4375,-14.6094 L27.4375,-40.25 L20.4219,-40.25 L1.21875,-12.2344 L1.21875,-8.35938 L20.2344,-8.35938 L20.2344,0.40625 M8.98438,-14.6094 L20.2344,-31.4375 L20.2344,-14.6094 L8.98438,-14.6094" fill-rule="nonzero"/>
  </g>
  <g stroke="#000000" transform="matrix(0.31992,0,0,0.31992,2136.7,694.363)" font-weight="400" stroke-opacity="1" stroke-linejoin="bevel" font-family="Cantarell" fill="none" stroke-linecap="square" font-style="normal" stroke-width="1" font-size="45.8333"/>
  <g stroke="#000000" transform="matrix(0.999751,0,0,0.999751,0,0)" font-weight="400" stroke-opacity="1" stroke-linejoin="bevel" font-family="Cantarell" fill="none" stroke-linecap="square" font-style="normal" stroke-width="1" font-size="45.8333"/>
  <g stroke="#000000" transform="matrix(0.31992,0,0,0.31992,1839.01,1958.94)" font-weight="400" stroke-opacity="1" stroke-linejoin="bevel" font-family="Cantarell" fill="none" stroke-linecap="square" font-style="normal" stroke-width="1" font-size="45.8333"/>
  <g fill-opacity="1" stroke="none" transform="matrix(0.999751,0,0,0.999751,1839.01,1958.94)" font-weight="400" font-family="Cantarell" fill="#ffffff" font-style="normal" font-size="45.8333">
   <path vector-effect="none" d="M16.8125,-40.8281 C8.29688,-40.8281 2.54688,-35.375 2.54688,-27.3125 C2.54688,-19.9531 7.3125,-15.0156 14.3906,-15.0156 C18.4375,-15.0156 21.8594,-16.5938 24.4688,-19.6094 C24.1875,-10.3281 20.2344,-5.625 13.4531,-5.625 C10.6719,-5.625 7.35938,-6.375 5.10938,-7.54688 L3.125,-1.85938 C5.6875,-0.34375 9.34375,0.578125 13.3906,0.578125 C25.2813,0.578125 32.0781,-7.3125 32.0781,-21.1719 C32.0781,-33.9844 26.3281,-40.8281 16.8125,-40.8281 M9.92188,-28.125 C9.92188,-32.0156 12.2969,-34.5156 16.1875,-34.5156 C20.5313,-34.5156 23.3125,-31.2031 24.1875,-25.1094 C22.3281,-22.5625 19.7188,-21.1094 16.8125,-21.1094 C12.7031,-21.1094 9.92188,-23.8906 9.92188,-28.125 " fill-rule="nonzero"/>
  </g>
  <g stroke="#000000" transform="matrix(0.31992,0,0,0.31992,1839.01,1958.94)" font-weight="400" stroke-opacity="1" stroke-linejoin="bevel" font-family="Cantarell" fill="none" stroke-linecap="square" font-style="normal" stroke-width="1" font-size="45.8333"/>
  <g stroke="#000000" transform="matrix(0.999751,0,0,0.999751,0,0)" font-weight="400" stroke-opacity="1" stroke-linejoin="bevel" font-family="Cantarell" fill="none" stroke-linecap="square" font-style="normal" stroke-width="1" font-size="45.8333"/>
  <g stroke="#000000" transform="matrix(0.31992,0,0,0.31992,2649.85,2067.25)" font-weight="400" stroke-opacity="1" stroke-linejoin="bevel" font-family="Cantarell" fill="none" stroke-linecap="square" font-style="normal" stroke-width="1" font-size="45.8333"/>
  <g fill-opacity="1" stroke="none" transform="matrix(0.999751,0,0,0.999751,2649.85,2067.25)" font-weight="400" font-family="Cantarell" fill="#ffffff" font-style="normal" font-size="45.8333">
   <path vector-effect="none" d="M17.2813,0.578125 C26.5,0.578125 32.4844,-4.0625 32.4844,-11.0156 C32.4844,-16.7031 28.5313,-19.4219 23.9531,-21.3438 C28.3594,-23.3125 30.9688,-26.7969 30.9688,-30.9063 C30.9688,-36.8281 25.5781,-40.8281 17.6875,-40.8281 C9.21875,-40.8281 3.65625,-36.25 3.65625,-29.4063 C3.65625,-24.5938 6.32813,-21.8594 9.79688,-20.0156 C5.15625,-18.3281 2.375,-14.8438 2.375,-10.375 C2.375,-3.82813 8.40625,0.578125 17.2813,0.578125 M10.9688,-30.0469 C10.9688,-32.8281 13.2813,-34.7344 17.1094,-34.7344 C21.0469,-34.7344 23.7188,-32.6563 23.7188,-29.5781 C23.7188,-26.7344 21.5156,-24.4219 18.0938,-23.6094 C14.1563,-25.1094 10.9688,-26.6719 10.9688,-30.0469 M9.79688,-11.5938 C9.79688,-14.5625 11.8906,-16.8125 15.375,-17.6875 C20.4219,-15.8906 25.1094,-14.5 25.1094,-10.5 C25.1094,-7.48438 22.5,-5.5625 18.0313,-5.5625 C13.0469,-5.5625 9.79688,-8 9.79688,-11.5938 " fill-rule="nonzero"/>
  </g>
  <g stroke="#000000" transform="matrix(0.31992,0,0,0.31992,2649.85,2067.25)" font-weight="400" stroke-opacity="1" stroke-linejoin="bevel" font-family="Cantarell" fill="none" stroke-linecap="square" font-style="normal" stroke-width="1" font-size="45.8333"/>
  <g stroke="#000000" transform="matrix(0.999751,0,0,0.999751,0,0)" font-weight="400" stroke-opacity="1" stroke-linejoin="bevel" font-family="Cantarell" fill="none" stroke-linecap="square" font-style="normal" stroke-width="1" font-size="45.8333"/>
  <g stroke="#000000" transform="matrix(0.31992,0,0,0.31992,944.953,882.406)" font-weight="400" stroke-opacity="1" stroke-linejoin="bevel" font-family="Cantarell" fill="none" stroke-linecap="square" font-style="normal" stroke-width="1" font-size="45.8333"/>
  <g fill-opacity="1" stroke="none" transform="matrix(0.999751,0,0,0.999751,944.953,882.406)" font-weight="400" font-family="Cantarell" fill="#ffffff" font-style="normal" font-size="45.8333">
   <path vector-effect="none" d="M17.9219,0.578125 C26.4531,0.578125 32.1875,-4.875 32.1875,-12.9375 C32.1875,-20.2969 27.4375,-25.2344 20.3594,-25.2344 C16.2969,-25.2344 12.875,-23.6563 10.2656,-20.6406 C10.5625,-29.9219 14.5,-34.625 21.2813,-34.625 C24.0625,-34.625 27.375,-33.875 29.6406,-32.7188 L31.6094,-38.3906 C29.0625,-39.9063 25.4063,-40.8281 21.3438,-40.8281 C9.45313,-40.8281 2.67188,-32.9375 2.67188,-19.0781 C2.67188,-6.26563 8.40625,0.578125 17.9219,0.578125 M17.9219,-19.1406 C22.0469,-19.1406 24.8281,-16.3594 24.8281,-12.125 C24.8281,-8.23438 22.4531,-5.73438 18.5625,-5.73438 C14.2031,-5.73438 11.4219,-9.04688 10.5625,-15.1406 C12.4063,-17.6875 15.0156,-19.1406 17.9219,-19.1406 " fill-rule="nonzero"/>
  </g>
  <g stroke="#000000" transform="matrix(0.31992,0,0,0.31992,944.953,882.406)" font-weight="400" stroke-opacity="1" stroke-linejoin="bevel" font-family="Cantarell" fill="none" stroke-linecap="square" font-style="normal" stroke-width="1" font-size="45.8333"/>
  <g stroke="#000000" transform="matrix(0.999751,0,0,0.999751,0,0)" font-weight="400" stroke-opacity="1" stroke-linejoin="bevel" font-family="Cantarell" fill="none" stroke-linecap="square" font-style="normal" stroke-width="1" font-size="45.8333"/>
  <g stroke="#000000" transform="matrix(0.31992,0,0,0.31992,1572.73,365.002)" font-weight="400" stroke-opacity="1" stroke-linejoin="bevel" font-family="Cantarell" fill="none" stroke-linecap="square" font-style="normal" stroke-width="1" font-size="45.8333"/>
  <g fill-opacity="1" stroke="none" transform="matrix(0.999751,0,0,0.999751,1572.73,365.002)" font-weight="400" font-family="Cantarell" fill="#ffffff" font-style="normal" font-size="45.8333">
   <path vector-effect="none" d="M14.4375,0.578125 C24.2969,0.578125 30.9063,-4.0625 30.9063,-10.9688 C30.9063,-16.0625 27.4375,-19.9531 21.9844,-21.2344 C26.0938,-22.3281 28.7031,-25.8125 28.7031,-30.2813 C28.7031,-36.7188 23.4844,-40.8281 15.3125,-40.8281 C10.9063,-40.8281 6.32813,-39.6719 2.26563,-37.4063 L3.9375,-31.8438 C7.48438,-33.4688 10.8438,-34.3906 13.75,-34.3906 C18.0938,-34.3906 20.9375,-32.3594 20.9375,-29.1719 C20.9375,-25.5156 17.4063,-23.3125 11.5469,-23.3125 L9.5625,-23.3125 L9.5625,-17.4063 L11.4844,-17.4063 C18.6719,-17.4063 23.2031,-14.9063 23.2031,-10.9063 C23.2031,-7.71875 20.125,-5.85938 14.8438,-5.85938 C11.1875,-5.85938 6.95313,-6.73438 3.42188,-8.35938 L1.73438,-2.4375 C5.79688,-0.40625 9.85938,0.578125 14.4375,0.578125 " fill-rule="nonzero"/>
  </g>
  <g stroke="#000000" transform="matrix(0.31992,0,0,0.31992,1572.73,365.002)" font-weight="400" stroke-opacity="1" stroke-linejoin="bevel" font-family="Cantarell" fill="none" stroke-linecap="square" font-style="normal" stroke-width="1" font-size="45.8333"/>
  <g stroke="#000000" transform="matrix(0.999751,0,0,0.999751,0,0)" font-weight="400" stroke-opacity="1" stroke-linejoin="bevel" font-family="Cantarell" fill="none" stroke-linecap="square" font-style="normal" stroke-width="1" font-size="45.8333"/>
  <g stroke="#000000" transform="matrix(0.31992,0,0,0.31992,928.137,1213.73)" font-weight="400" stroke-opacity="1" stroke-linejoin="bevel" font-family="Cantarell" fill="none" stroke-linecap="square" font-style="normal" stroke-width="1" font-size="45.8333"/>
  <g fill-opacity="1" stroke="none" transform="matrix(0.999751,0,0,0.999751,928.137,1213.73)" font-weight="400" font-family="Cantarell" fill="#ffffff" font-style="normal" font-size="45.8333">
   <path vector-effect="none" d="M14.3281,0.578125 C24.1875,0.578125 30.5625,-4.57813 30.5625,-12.9375 C30.5625,-20.5313 25.1094,-25.0625 15.7188,-25.0625 C14.3281,-25.0625 13.1094,-24.9375 12,-24.7031 L12.4063,-33.75 L28.5313,-33.75 L28.5313,-40.25 L5.28125,-40.25 L4.29688,-18.0938 C7.01563,-18.625 10.2031,-18.9688 12.5313,-18.9688 C19.0313,-18.9688 22.7969,-16.4063 22.7969,-12.125 C22.7969,-8.17188 19.7188,-5.92188 14.5,-5.92188 C11.0156,-5.92188 7.1875,-6.78125 4.17188,-8.29688 L2.09375,-2.4375 C5.85938,-0.46875 9.92188,0.578125 14.3281,0.578125 " fill-rule="nonzero"/>
  </g>
  <g stroke="#000000" transform="matrix(0.31992,0,0,0.31992,928.137,1213.73)" font-weight="400" stroke-opacity="1" stroke-linejoin="bevel" font-family="Cantarell" fill="none" stroke-linecap="square" font-style="normal" stroke-width="1" font-size="45.8333"/>
  <g stroke="#000000" transform="matrix(0.999751,0,0,0.999751,0,0)" font-weight="400" stroke-opacity="1" stroke-linejoin="bevel" font-family="Cantarell" fill="none" stroke-linecap="square" font-style="normal" stroke-width="1" font-size="45.8333"/>
  <g stroke="#000000" transform="matrix(0.31992,0,0,0.31992,912.207,494.763)" font-weight="400" stroke-opacity="1" stroke-linejoin="bevel" font-family="Cantarell" fill="none" stroke-linecap="square" font-style="normal" stroke-width="1" font-size="45.8333"/>
  <g fill-opacity="1" stroke="none" transform="matrix(0.999751,0,0,0.999751,912.207,494.763)" font-weight="400" font-family="Cantarell" fill="#ffffff" font-style="normal" font-size="45.8333">
   <path vector-effect="none" d="M2.67188,0 L29.5156,0 L29.5156,-6.5 L13.3438,-6.5 C23.6094,-15.6094 28.1875,-22.2188 28.1875,-28.9375 C28.1875,-36.1875 22.9063,-40.8281 14.6094,-40.8281 C9.625,-40.8281 4.98438,-39.1563 1.5625,-36.1406 L3.59375,-30.7344 C6.60938,-33 10.0313,-34.2813 13.1719,-34.2813 C17.625,-34.2813 20.4219,-31.7188 20.4219,-27.7813 C20.4219,-22.3906 14.9688,-16.2969 2.67188,-5.15625 L2.67188,0" fill-rule="nonzero"/>
  </g>
  <g stroke="#000000" transform="matrix(0.31992,0,0,0.31992,912.207,494.763)" font-weight="400" stroke-opacity="1" stroke-linejoin="bevel" font-family="Cantarell" fill="none" stroke-linecap="square" font-style="normal" stroke-width="1" font-size="45.8333"/>
  <g stroke="#000000" transform="matrix(0.999751,0,0,0.999751,0,0)" font-weight="400" stroke-opacity="1" stroke-linejoin="bevel" font-family="Cantarell" fill="none" stroke-linecap="square" font-style="normal" stroke-width="1" font-size="45.8333"/>
  <g stroke="#000000" transform="matrix(0.31992,0,0,0.31992,3053.66,1398)" font-weight="400" stroke-opacity="1" stroke-linejoin="bevel" font-family="Cantarell" fill="none" stroke-linecap="square" font-style="normal" stroke-width="1" font-size="45.8333"/>
  <g fill-opacity="1" stroke="none" transform="matrix(0.999751,0,0,0.999751,3053.66,1398)" font-weight="400" font-family="Cantarell" fill="#ffffff" font-style="normal" font-size="45.8333">
   <path vector-effect="none" d="M5.45313,0 L13.3438,0 L29.7031,-36.0156 L29.7031,-40.25 L1.28125,-40.25 L1.28125,-33.75 L20.9375,-33.75 L5.45313,0" fill-rule="nonzero"/>
  </g>
  <g stroke="#000000" transform="matrix(0.31992,0,0,0.31992,3053.66,1398)" font-weight="400" stroke-opacity="1" stroke-linejoin="bevel" font-family="Cantarell" fill="none" stroke-linecap="square" font-style="normal" stroke-width="1" font-size="45.8333"/>
  <g stroke="#000000" transform="matrix(0.999751,0,0,0.999751,0,0)" font-weight="400" stroke-opacity="1" stroke-linejoin="bevel" font-family="Cantarell" fill="none" stroke-linecap="square" font-style="normal" stroke-width="1" font-size="45.8333"/>
  <g stroke="#000000" transform="matrix(0.31992,0,0,0.31992,451.906,675.37)" font-weight="400" stroke-opacity="1" stroke-linejoin="bevel" font-family="Cantarell" fill="none" stroke-linecap="square" font-style="normal" stroke-width="1" font-size="45.8333"/>
  <g fill-opacity="1" stroke="none" transform="matrix(0.999751,0,0,0.999751,451.906,675.37)" font-weight="400" font-family="Cantarell" fill="#ffffff" font-style="normal" font-size="45.8333">
   <path vector-effect="none" d="M3.01563,0 L26.1563,0 L26.1563,-6.375 L18.3906,-6.375 L18.3906,-40.25 L13.9219,-40.25 L1.45313,-32.6563 L4.29688,-27.4375 L10.9063,-31.1406 L10.9063,-6.375 L3.01563,-6.375 L3.01563,0" fill-rule="nonzero"/>
  </g>
  <g stroke="#000000" transform="matrix(0.31992,0,0,0.31992,451.906,675.37)" font-weight="400" stroke-opacity="1" stroke-linejoin="bevel" font-family="Cantarell" fill="none" stroke-linecap="square" font-style="normal" stroke-width="1" font-size="45.8333"/>
  <g stroke="#000000" transform="matrix(0.999751,0,0,0.999751,0,0)" font-weight="400" stroke-opacity="1" stroke-linejoin="bevel" font-family="Cantarell" fill="none" stroke-linecap="square" font-style="normal" stroke-width="1" font-size="45.8333"/>
  <g stroke="#000000" transform="matrix(11.8081,0,0,11.8081,0,0)" font-weight="400" stroke-opacity="1" stroke-linejoin="bevel" font-family="Cantarell" fill="none" stroke-linecap="square" font-style="normal" stroke-width="1" font-size="45.8333"/>
  <g stroke="#000000" transform="matrix(11.8081,0,0,11.8081,0,0)" font-weight="400" stroke-opacity="1" stroke-linejoin="bevel" font-family="Cantarell" fill="none" stroke-linecap="square" font-style="normal" stroke-width="1" font-size="45.8333"/>
  <g stroke="#000000" transform="matrix(11.8081,0,0,11.8081,0,0)" font-weight="400" stroke-opacity="1" stroke-linejoin="bevel" font-family="Cantarell" fill="none" stroke-linecap="square" font-style="normal" stroke-width="1" font-size="45.8333"/>
  <g stroke="#000000" transform="matrix(1,0,0,1,0,0)" font-weight="400" stroke-opacity="1" stroke-linejoin="bevel" font-family="Cantarell" fill="none" stroke-linecap="square" font-style="normal" stroke-width="1" font-size="45.8333"/>
  <g stroke="#000000" transform="matrix(11.8081,0,0,11.8081,0,0)" font-weight="400" stroke-opacity="1" stroke-linejoin="bevel" font-family="Cantarell" fill="none" stroke-linecap="square" font-style="normal" stroke-width="1" font-size="45.8333"/>
  <g stroke="#000000" transform="matrix(11.8081,0,0,11.8081,0,0)" font-weight="400" stroke-opacity="1" stroke-linejoin="bevel" font-family="Cantarell" fill="none" stroke-linecap="square" font-style="normal" stroke-width="1" font-size="45.8333"/>
  <g stroke="#000000" transform="matrix(1,0,0,1,0,0)" font-weight="400" stroke-opacity="1" stroke-linejoin="bevel" font-family="Cantarell" fill="none" stroke-linecap="square" font-style="normal" stroke-width="1" font-size="45.8333"/>
 </g>
 <metadata id="qgismetadata">
  <rdf:RDF>
   <cc:Work>
    <dc:format>image/svg+xml</dc:format>
    <dc:title></dc:title>
    <dc:date>2019-06-27T13:24:21</dc:date>
    <dc:identifier></dc:identifier>
    <dc:description></dc:description>
    <dc:creator>
     <cc:Agent>
      <dc:title>Thilo Spinner</dc:title>
     </cc:Agent>
    </dc:creator>
    <dc:publisher>
     <cc:Agent>
      <dc:title>QGIS 3.6.3-Noosa</dc:title>
     </cc:Agent>
    </dc:publisher>
    <dc:subject>
     <rdf:Bag/>
    </dc:subject>
   </cc:Work>
  </rdf:RDF>
 </metadata>
</svg>
