<?xml version='1.0' encoding='UTF-8' standalone='no'?>
<svg xmlns="http://www.w3.org/2000/svg" width="296.926mm" baseProfile="tiny" version="1.2" xmlns:xlink="http://www.w3.org/1999/xlink" viewBox="0 0 3507 2480" height="209.973mm">
 <defs/>
 <g stroke="black" stroke-linejoin="bevel" fill="none" stroke-linecap="square" stroke-width="1" fill-rule="evenodd">
  <g stroke="#000000" transform="matrix(1,0,0,1,0,0)" font-weight="400" stroke-opacity="1" stroke-linejoin="bevel" font-family="Cantarell" fill="none" stroke-linecap="square" font-style="normal" stroke-width="1" font-size="45.8333"/>
  <g stroke="#000000" transform="matrix(1,0,0,1,0,0)" font-weight="400" stroke-opacity="1" stroke-linejoin="bevel" font-family="Cantarell" fill="none" stroke-linecap="square" font-style="normal" stroke-width="1" font-size="45.8333"/>
  <g stroke="#000000" transform="matrix(11.8081,0,0,11.8081,0,0)" font-weight="400" stroke-opacity="1" stroke-linejoin="bevel" font-family="Cantarell" fill="none" stroke-linecap="square" font-style="normal" stroke-width="1" font-size="45.8333"/>
  <g stroke="#000000" transform="matrix(0.999751,0,0,0.999751,0,0)" font-weight="400" stroke-opacity="1" stroke-linejoin="bevel" font-family="Cantarell" fill="none" stroke-linecap="square" font-style="normal" stroke-width="1" font-size="45.8333"/>
  <g fill-opacity="1" stroke="none" transform="matrix(0.999751,0,0,0.999751,0,0)" font-weight="400" font-family="Cantarell" fill="#ffffff" font-style="normal" font-size="45.8333">
   <path vector-effect="none" d="M-2,-2 L3510,-2 L3510,2483 L-2,2483 L-2,-2" fill-rule="evenodd"/>
  </g>
  <g stroke="#000000" transform="matrix(0.999751,0,0,0.999751,0,0)" font-weight="400" stroke-opacity="1" stroke-linejoin="bevel" font-family="Cantarell" fill="none" stroke-linecap="square" font-style="normal" stroke-width="1" font-size="45.8333"/>
  <g stroke="#000000" transform="matrix(11.8081,0,0,11.8081,0,0)" font-weight="400" stroke-opacity="1" stroke-linejoin="bevel" font-family="Cantarell" fill="none" stroke-linecap="square" font-style="normal" stroke-width="1" font-size="45.8333"/>
  <g stroke="#000000" transform="matrix(11.8081,0,0,11.8081,0,0)" font-weight="400" stroke-opacity="1" stroke-linejoin="bevel" font-family="Cantarell" fill="none" stroke-linecap="square" font-style="normal" stroke-width="1" font-size="45.8333"/>
  <g stroke="#000000" transform="matrix(11.8081,0,0,11.8081,0,0)" font-weight="400" stroke-opacity="1" stroke-linejoin="bevel" font-family="Cantarell" fill="none" stroke-linecap="square" font-style="normal" stroke-width="1" font-size="45.8333"/>
  <g fill-opacity="1" stroke="none" transform="matrix(11.8081,0,0,11.8081,0,0)" font-weight="400" font-family="Cantarell" fill="#ffffff" font-style="normal" font-size="45.8333">
   <rect width="297" x="0" y="0" height="210"/>
  </g>
  <g stroke="#000000" transform="matrix(11.8081,0,0,11.8081,0,0)" font-weight="400" stroke-opacity="1" stroke-linejoin="bevel" font-family="Cantarell" fill="none" stroke-linecap="square" font-style="normal" stroke-width="1" font-size="45.8333"/>
  <g stroke="#000000" transform="matrix(11.8081,0,0,11.8081,0,0)" font-weight="400" stroke-opacity="1" stroke-linejoin="bevel" font-family="Cantarell" fill="none" stroke-linecap="square" font-style="normal" stroke-width="1" font-size="45.8333"/>
  <g fill-opacity="0" stroke="none" transform="matrix(0.999751,0,0,0.999751,0,0)" font-weight="400" font-family="Cantarell" fill="#000000" font-style="normal" font-size="45.8333">
   <rect width="3508" x="0" y="0" height="2480"/>
  </g>
  <g stroke="#000000" transform="matrix(0.999751,0,0,0.999751,0,0)" font-weight="400" stroke-opacity="1" stroke-linejoin="bevel" font-family="Cantarell" fill="none" stroke-linecap="square" font-style="normal" stroke-width="1" font-size="45.8333"/>
  <g stroke="#000000" transform="matrix(0.31992,2.44868e-16,-2.44868e-16,0.31992,2533.74,1748.29)" font-weight="400" stroke-opacity="1" stroke-linejoin="bevel" font-family="Cantarell" fill="none" stroke-linecap="square" font-style="normal" stroke-width="1" font-size="45.8333"/>
  <g fill-opacity="1" stroke="none" transform="matrix(0.999751,2.44868e-16,-2.44868e-16,0.999751,2533.74,1748.29)" font-weight="400" font-family="Cantarell" fill="#ffffff" font-style="normal" font-size="45.8333">
   <path vector-effect="none" d="M11.9531,0 L18.3438,0 L18.3438,-29.0469 L29.5,-29.0469 L29.5,-34.7031 L0.84375,-34.7031 L0.84375,-29.0469 L11.9531,-29.0469 L11.9531,0 M45.4375,0.5 C48.2969,0.5 51.3906,-0.09375 54,-1.20313 L52.5938,-5.59375 C50.6406,-4.79688 48.5,-4.34375 46.4375,-4.34375 C42.0469,-4.34375 39.3906,-6.40625 38.6406,-10.4063 L54.3906,-10.4063 C54.5469,-11.4063 54.6875,-12.9063 54.6875,-14 C54.6875,-20.6563 50.6406,-24.7969 44.1406,-24.7969 C36.8906,-24.7969 32.0469,-19.6563 32.0469,-12.0938 C32.0469,-4.29688 37.1406,0.5 45.4375,0.5 M43.6875,-19.9063 C46.8438,-19.9063 48.6875,-17.9063 48.6875,-14.4063 L38.5,-14.4063 C38.8906,-18 40.6875,-19.9063 43.6875,-19.9063 M60.0938,0 L66.4375,0 L66.4375,-16.0469 C67.8906,-17.7969 69.9375,-18.7969 72.1875,-18.7969 C73.3438,-18.7969 74.5469,-18.5469 75.4844,-18.0938 L76.9375,-23.7031 C75.8438,-24.25 74.4844,-24.5469 73.1875,-24.5469 C70.2969,-24.5469 67.5938,-23.0938 65.7344,-20.7031 L65.1406,-24.2969 L60.0938,-24.2969 L60.0938,0 M80.4375,0 L86.7813,0 L86.7813,-16.0469 C88.2344,-17.7969 90.2813,-18.7969 92.5313,-18.7969 C93.6875,-18.7969 94.8906,-18.5469 95.8281,-18.0938 L97.2813,-23.7031 C96.1875,-24.25 94.8281,-24.5469 93.5313,-24.5469 C90.6406,-24.5469 87.9375,-23.0938 86.0781,-20.7031 L85.4844,-24.2969 L80.4375,-24.2969 L80.4375,0 M107.422,0.5 C110.531,0.5 113.172,-0.546875 115.031,-2.45313 L115.922,0 L120.484,0 L120.484,-14.5938 C120.484,-21.2031 116.734,-24.7969 109.578,-24.7969 C106.078,-24.7969 102.375,-23.9531 99.5313,-22.4531 L101.031,-18 C103.531,-19 105.984,-19.5 108.234,-19.5 C112.125,-19.5 114.234,-18 114.234,-15.0938 L114.234,-14.4531 C103.672,-14.2969 99.0313,-11.9063 99.0313,-6.75 C99.0313,-2.34375 102.328,0.5 107.422,0.5 M105.422,-7.59375 C105.422,-9.79688 107.984,-10.7969 114.234,-10.9063 L114.234,-6.29688 C113.031,-5.15625 111.375,-4.5 109.531,-4.5 C107.078,-4.5 105.422,-5.75 105.422,-7.59375 M126.719,10.8438 L132.906,10.8438 L132.906,-1.65625 C134.469,-0.25 136.516,0.5 138.906,0.5 C145.469,0.5 150.172,-4.90625 150.172,-12.5469 C150.172,-19.7969 145.813,-24.7969 139.563,-24.7969 C136.609,-24.7969 134.016,-23.6563 132.156,-21.5938 L131.016,-24.2969 L126.719,-24.2969 L126.719,10.8438 M137.766,-19.4063 C141.406,-19.4063 143.719,-16.5938 143.719,-12.0469 C143.719,-7.65625 141.609,-4.90625 138.063,-4.90625 C135.906,-4.90625 134.016,-5.95313 132.906,-7.65625 L132.906,-17.3438 C134.156,-18.6563 135.906,-19.4063 137.766,-19.4063 M158.75,-28.7969 C161.156,-28.7969 162.703,-30.2969 162.703,-32.7031 C162.703,-35.1094 161.156,-36.6563 158.75,-36.6563 C156.359,-36.6563 154.859,-35.1094 154.859,-32.7031 C154.859,-30.2969 156.359,-28.7969 158.75,-28.7969 M155.547,0 L161.906,0 L161.906,-24.2969 L155.547,-24.2969 L155.547,0 M168.906,0 L175.297,0 L175.297,-17.4063 C176.703,-18.5469 178.406,-19.1563 180.25,-19.1563 C183.344,-19.1563 184.906,-17.4063 184.906,-14.0938 L184.906,0 L191.297,0 L191.297,-15 C191.297,-21 187.906,-24.7031 182.453,-24.7031 C179.5,-24.7031 176.75,-23.6563 174.594,-21.6563 L173.453,-24.2969 L168.906,-24.2969 L168.906,0 M217.469,0.5 C225.969,0.5 231.031,-3.70313 231.031,-10.2031 C231.031,-22.75 212.781,-18.4063 212.781,-25.4063 C212.781,-28.0469 215.219,-29.5469 219.531,-29.5469 C222.422,-29.5469 225.578,-29 228.031,-28.0469 L229.875,-33.1563 C226.922,-34.4531 223.328,-35.2031 219.922,-35.2031 C211.625,-35.2031 206.078,-30.9531 206.078,-24.4063 C206.078,-12.5469 224.281,-16.4531 224.281,-9.40625 C224.281,-6.84375 222.078,-5.29688 217.781,-5.29688 C214.625,-5.29688 210.781,-6 207.328,-7.45313 L205.531,-2.25 C209.219,-0.546875 213.469,0.5 217.469,0.5 M236.266,10.8438 L242.453,10.8438 L242.453,-1.65625 C244.016,-0.25 246.063,0.5 248.453,0.5 C255.016,0.5 259.719,-4.90625 259.719,-12.5469 C259.719,-19.7969 255.359,-24.7969 249.109,-24.7969 C246.156,-24.7969 243.563,-23.6563 241.703,-21.5938 L240.563,-24.2969 L236.266,-24.2969 L236.266,10.8438 M247.313,-19.4063 C250.953,-19.4063 253.266,-16.5938 253.266,-12.0469 C253.266,-7.65625 251.156,-4.90625 247.609,-4.90625 C245.453,-4.90625 243.563,-5.95313 242.453,-7.65625 L242.453,-17.3438 C243.703,-18.6563 245.453,-19.4063 247.313,-19.4063 M264.953,0 L271.297,0 L271.297,-16.0469 C272.75,-17.7969 274.797,-18.7969 277.047,-18.7969 C278.203,-18.7969 279.406,-18.5469 280.344,-18.0938 L281.797,-23.7031 C280.703,-24.25 279.344,-24.5469 278.047,-24.5469 C275.156,-24.5469 272.453,-23.0938 270.594,-20.7031 L270,-24.2969 L264.953,-24.2969 L264.953,0 M288.641,-28.7969 C291.047,-28.7969 292.594,-30.2969 292.594,-32.7031 C292.594,-35.1094 291.047,-36.6563 288.641,-36.6563 C286.25,-36.6563 284.75,-35.1094 284.75,-32.7031 C284.75,-30.2969 286.25,-28.7969 288.641,-28.7969 M285.438,0 L291.797,0 L291.797,-24.2969 L285.438,-24.2969 L285.438,0 M298.797,0 L305.188,0 L305.188,-17.4063 C306.594,-18.5469 308.297,-19.1563 310.141,-19.1563 C313.234,-19.1563 314.797,-17.4063 314.797,-14.0938 L314.797,0 L321.188,0 L321.188,-15 C321.188,-21 317.797,-24.7031 312.344,-24.7031 C309.391,-24.7031 306.641,-23.6563 304.484,-21.6563 L303.344,-24.2969 L298.797,-24.2969 L298.797,0 M336.422,0.5 C339.078,0.5 341.375,-0.453125 343.125,-2.09375 L343.125,-0.09375 C343.125,4.04688 340.781,6.25 336.484,6.25 C334.422,6.25 331.922,5.75 329.781,4.84375 L328.531,9.59375 C331.125,10.8438 333.781,11.5 336.531,11.5 C344.281,11.5 349.375,6.75 349.375,-0.40625 L349.375,-24.2969 L344.875,-24.2969 L344.078,-22.1563 C342.422,-23.9063 340.078,-24.7969 337.234,-24.7969 C330.531,-24.7969 325.922,-19.7031 325.922,-11.9531 C325.922,-4.40625 330.234,0.5 336.422,0.5 M332.375,-12.3438 C332.375,-16.7031 334.531,-19.4063 338.125,-19.4063 C340.234,-19.4063 341.984,-18.5469 343.125,-16.9531 L343.125,-7 C342.031,-5.65625 340.375,-4.90625 338.375,-4.90625 C334.672,-4.90625 332.375,-7.79688 332.375,-12.3438 M364.109,0.5 C370.813,0.5 374.719,-2.45313 374.719,-7.29688 C374.719,-16.4063 361.016,-13.3438 361.016,-17.4531 C361.016,-18.9063 362.719,-19.7969 365.719,-19.7969 C367.719,-19.7969 370.109,-19.4063 372.359,-18.75 L373.672,-23.5469 C371.422,-24.3438 368.563,-24.7969 365.813,-24.7969 C358.859,-24.7969 354.813,-22 354.813,-17 C354.813,-7.95313 368.359,-11.4063 368.359,-7 C368.359,-5.45313 366.766,-4.5 364.016,-4.5 C361.672,-4.5 358.422,-5.15625 355.859,-6.15625 L354.469,-1.40625 C357.266,-0.203125 360.813,0.5 364.109,0.5 " fill-rule="nonzero"/>
  </g>
  <g stroke="#000000" transform="matrix(0.31992,2.44868e-16,-2.44868e-16,0.31992,2533.74,1748.29)" font-weight="400" stroke-opacity="1" stroke-linejoin="bevel" font-family="Cantarell" fill="none" stroke-linecap="square" font-style="normal" stroke-width="1" font-size="45.8333"/>
  <g stroke="#000000" transform="matrix(0.999751,0,0,0.999751,0,0)" font-weight="400" stroke-opacity="1" stroke-linejoin="bevel" font-family="Cantarell" fill="none" stroke-linecap="square" font-style="normal" stroke-width="1" font-size="45.8333"/>
  <g stroke="#000000" transform="matrix(0,-0.31992,0.31992,0,3087.14,1534.8)" font-weight="400" stroke-opacity="1" stroke-linejoin="bevel" font-family="Cantarell" fill="none" stroke-linecap="square" font-style="normal" stroke-width="1" font-size="45.8333"/>
  <g fill-opacity="1" stroke="none" transform="matrix(0,-0.999751,0.999751,0,3087.14,1534.8)" font-weight="400" font-family="Cantarell" fill="#ffffff" font-style="normal" font-size="45.8333">
   <path vector-effect="none" d="M11.5,0 L18.4063,0 L25.25,-25.8594 L32.9063,0 L39.5469,0 L50.2969,-34.7031 L43.7969,-34.7031 L36.5,-8.45313 L29.1094,-34.5 L22,-34.5 L15.1563,-8.04688 L8.04688,-34.7031 L0.75,-34.7031 L11.5,0 M57.8438,-28.7969 C60.25,-28.7969 61.7969,-30.2969 61.7969,-32.7031 C61.7969,-35.1094 60.25,-36.6563 57.8438,-36.6563 C55.4531,-36.6563 53.9531,-35.1094 53.9531,-32.7031 C53.9531,-30.2969 55.4531,-28.7969 57.8438,-28.7969 M54.6406,0 L61,0 L61,-24.2969 L54.6406,-24.2969 L54.6406,0 M74.5469,0.34375 C76.0938,0.34375 77.8438,0.046875 79.1875,-0.546875 L77.8438,-4.79688 C77.2969,-4.59375 76.75,-4.5 76.2969,-4.5 C74.8438,-4.5 74.0469,-5.5 74.0469,-7.20313 L74.0469,-36.9531 L67.75,-36.9531 L67.75,-6.40625 C67.75,-2.20313 70.2969,0.34375 74.5469,0.34375 M90.4844,0.5 C97.1875,0.5 101.094,-2.45313 101.094,-7.29688 C101.094,-16.4063 87.3906,-13.3438 87.3906,-17.4531 C87.3906,-18.9063 89.0938,-19.7969 92.0938,-19.7969 C94.0938,-19.7969 96.4844,-19.4063 98.7344,-18.75 L100.047,-23.5469 C97.7969,-24.3438 94.9375,-24.7969 92.1875,-24.7969 C85.2344,-24.7969 81.1875,-22 81.1875,-17 C81.1875,-7.95313 94.7344,-11.4063 94.7344,-7 C94.7344,-5.45313 93.1406,-4.5 90.3906,-4.5 C88.0469,-4.5 84.7969,-5.15625 82.2344,-6.15625 L80.8438,-1.40625 C83.6406,-0.203125 87.1875,0.5 90.4844,0.5 M116.438,0.5 C124.141,0.5 129.297,-4.75 129.297,-12.5469 C129.297,-20 124.531,-24.7969 117.234,-24.7969 C109.531,-24.7969 104.391,-19.5938 104.391,-11.75 C104.391,-4.34375 109.094,0.5 116.438,0.5 M116.984,-4.90625 C113.234,-4.90625 110.844,-7.79688 110.844,-12.2969 C110.844,-16.7031 113.031,-19.4063 116.641,-19.4063 C120.391,-19.4063 122.844,-16.4531 122.844,-11.9063 C122.844,-7.59375 120.594,-4.90625 116.984,-4.90625 M134.391,0 L140.781,0 L140.781,-17.4063 C142.188,-18.5469 143.891,-19.1563 145.734,-19.1563 C148.828,-19.1563 150.391,-17.4063 150.391,-14.0938 L150.391,0 L156.781,0 L156.781,-15 C156.781,-21 153.391,-24.7031 147.938,-24.7031 C144.984,-24.7031 142.234,-23.6563 140.078,-21.6563 L138.938,-24.2969 L134.391,-24.2969 L134.391,0 M173.359,0 L179.906,0 L179.906,-14.4531 L194.906,-14.4531 L194.906,-20.0938 L179.906,-20.0938 L179.906,-29.0469 L196.563,-29.0469 L196.563,-34.7031 L173.359,-34.7031 L173.359,0 M212,0.5 C219.703,0.5 224.859,-4.75 224.859,-12.5469 C224.859,-20 220.094,-24.7969 212.797,-24.7969 C205.094,-24.7969 199.953,-19.5938 199.953,-11.75 C199.953,-4.34375 204.656,0.5 212,0.5 M212.547,-4.90625 C208.797,-4.90625 206.406,-7.79688 206.406,-12.2969 C206.406,-16.7031 208.594,-19.4063 212.203,-19.4063 C215.953,-19.4063 218.406,-16.4531 218.406,-11.9063 C218.406,-7.59375 216.156,-4.90625 212.547,-4.90625 M230,0 L236.344,0 L236.344,-16.0469 C237.797,-17.7969 239.844,-18.7969 242.094,-18.7969 C243.25,-18.7969 244.453,-18.5469 245.391,-18.0938 L246.844,-23.7031 C245.75,-24.25 244.391,-24.5469 243.094,-24.5469 C240.203,-24.5469 237.5,-23.0938 235.641,-20.7031 L235.047,-24.2969 L230,-24.2969 L230,0 M261.984,0.5 C264.844,0.5 267.938,-0.09375 270.547,-1.20313 L269.141,-5.59375 C267.188,-4.79688 265.047,-4.34375 262.984,-4.34375 C258.594,-4.34375 255.938,-6.40625 255.188,-10.4063 L270.938,-10.4063 C271.094,-11.4063 271.234,-12.9063 271.234,-14 C271.234,-20.6563 267.188,-24.7969 260.688,-24.7969 C253.438,-24.7969 248.594,-19.6563 248.594,-12.0938 C248.594,-4.29688 253.688,0.5 261.984,0.5 M260.234,-19.9063 C263.391,-19.9063 265.234,-17.9063 265.234,-14.4063 L255.047,-14.4063 C255.438,-18 257.234,-19.9063 260.234,-19.9063 M284.531,0.5 C291.234,0.5 295.141,-2.45313 295.141,-7.29688 C295.141,-16.4063 281.438,-13.3438 281.438,-17.4531 C281.438,-18.9063 283.141,-19.7969 286.141,-19.7969 C288.141,-19.7969 290.531,-19.4063 292.781,-18.75 L294.094,-23.5469 C291.844,-24.3438 288.984,-24.7969 286.234,-24.7969 C279.281,-24.7969 275.234,-22 275.234,-17 C275.234,-7.95313 288.781,-11.4063 288.781,-7 C288.781,-5.45313 287.188,-4.5 284.438,-4.5 C282.094,-4.5 278.844,-5.15625 276.281,-6.15625 L274.891,-1.40625 C277.688,-0.203125 281.234,0.5 284.531,0.5 M309.641,0.34375 C311.281,0.34375 313.078,0 314.641,-0.5 L313.328,-5.04688 C312.641,-4.75 311.781,-4.59375 311.031,-4.59375 C308.734,-4.59375 307.281,-5.95313 307.281,-8.04688 L307.281,-19.2031 L313.391,-19.2031 L313.391,-24.2969 L307.281,-24.2969 L307.281,-31.3594 L300.984,-31.3594 L300.984,-24.2969 L297.578,-24.2969 L297.578,-19.2031 L300.984,-19.2031 L300.984,-7.65625 C300.984,-2.75 304.234,0.34375 309.641,0.34375 " fill-rule="nonzero"/>
  </g>
  <g stroke="#000000" transform="matrix(0,-0.31992,0.31992,0,3087.14,1534.8)" font-weight="400" stroke-opacity="1" stroke-linejoin="bevel" font-family="Cantarell" fill="none" stroke-linecap="square" font-style="normal" stroke-width="1" font-size="45.8333"/>
  <g stroke="#000000" transform="matrix(0.999751,0,0,0.999751,0,0)" font-weight="400" stroke-opacity="1" stroke-linejoin="bevel" font-family="Cantarell" fill="none" stroke-linecap="square" font-style="normal" stroke-width="1" font-size="45.8333"/>
  <g stroke="#000000" transform="matrix(0.31992,2.44868e-16,-2.44868e-16,0.31992,2125.21,1353.24)" font-weight="400" stroke-opacity="1" stroke-linejoin="bevel" font-family="Cantarell" fill="none" stroke-linecap="square" font-style="normal" stroke-width="1" font-size="45.8333"/>
  <g fill-opacity="1" stroke="none" transform="matrix(0.999751,2.44868e-16,-2.44868e-16,0.999751,2125.21,1353.24)" font-weight="400" font-family="Cantarell" fill="#ffffff" font-style="normal" font-size="45.8333">
   <path vector-effect="none" d="M19.6563,0.5 C23.2031,0.5 27.1563,-0.40625 30.1094,-1.84375 L28.6563,-6.5 C26.4063,-5.65625 23.5938,-5.15625 21.2031,-5.15625 C13.5469,-5.15625 8.79688,-10.1563 8.79688,-17.9531 C8.79688,-25.2969 13.0938,-29.5 20.4063,-29.5 C23.2031,-29.5 26.3594,-28.9531 28.6094,-28.0469 L30.4063,-33.0469 C27.4531,-34.4531 24.0469,-35.2031 20.5938,-35.2031 C9.59375,-35.2031 2.15625,-27.9531 2.15625,-17.0469 C2.15625,-6.54688 9.20313,0.5 19.6563,0.5 M35.2969,0 L41.5938,0 L41.5938,-17.2031 C43.0469,-18.5469 44.6406,-19.1563 46.4844,-19.1563 C49.6406,-19.1563 51.2344,-17.4063 51.2344,-14.0938 L51.2344,0 L57.5938,0 L57.5938,-15.25 C57.5938,-21.0938 54.1875,-24.7031 48.6406,-24.7031 C46.0469,-24.7031 43.6406,-23.8438 41.5938,-22.1563 L41.5938,-36.9531 L35.2969,-36.9531 L35.2969,0 M75.625,0.5 C78.4844,0.5 81.5781,-0.09375 84.1875,-1.20313 L82.7813,-5.59375 C80.8281,-4.79688 78.6875,-4.34375 76.625,-4.34375 C72.2344,-4.34375 69.5781,-6.40625 68.8281,-10.4063 L84.5781,-10.4063 C84.7344,-11.4063 84.875,-12.9063 84.875,-14 C84.875,-20.6563 80.8281,-24.7969 74.3281,-24.7969 C67.0781,-24.7969 62.2344,-19.6563 62.2344,-12.0938 C62.2344,-4.29688 67.3281,0.5 75.625,0.5 M73.875,-19.9063 C77.0313,-19.9063 78.875,-17.9063 78.875,-14.4063 L68.6875,-14.4063 C69.0781,-18 70.875,-19.9063 73.875,-19.9063 M99.1719,0.5 C102.234,0.5 104.781,-0.703125 106.625,-2.84375 L107.984,0 L112.078,0 L112.078,-36.9531 L105.875,-36.9531 L105.875,-22.9531 C104.328,-24.1563 102.328,-24.7969 100.031,-24.7969 C93.1719,-24.7969 88.625,-19.7031 88.625,-11.9531 C88.625,-4.45313 92.9844,0.5 99.1719,0.5 M95.0781,-12.3438 C95.0781,-16.7031 97.2344,-19.4063 100.875,-19.4063 C102.984,-19.4063 104.734,-18.5469 105.875,-17.0469 L105.875,-7.09375 C104.781,-5.70313 103.125,-4.90625 101.125,-4.90625 C97.4219,-4.90625 95.0781,-7.79688 95.0781,-12.3438 M127.813,0.5 C130.875,0.5 133.422,-0.703125 135.266,-2.84375 L136.625,0 L140.719,0 L140.719,-36.9531 L134.516,-36.9531 L134.516,-22.9531 C132.969,-24.1563 130.969,-24.7969 128.672,-24.7969 C121.813,-24.7969 117.266,-19.7031 117.266,-11.9531 C117.266,-4.45313 121.625,0.5 127.813,0.5 M123.719,-12.3438 C123.719,-16.7031 125.875,-19.4063 129.516,-19.4063 C131.625,-19.4063 133.375,-18.5469 134.516,-17.0469 L134.516,-7.09375 C133.422,-5.70313 131.766,-4.90625 129.766,-4.90625 C126.063,-4.90625 123.719,-7.79688 123.719,-12.3438 M154.203,0.5 C157.313,0.5 159.953,-0.546875 161.813,-2.45313 L162.703,0 L167.266,0 L167.266,-14.5938 C167.266,-21.2031 163.516,-24.7969 156.359,-24.7969 C152.859,-24.7969 149.156,-23.9531 146.313,-22.4531 L147.813,-18 C150.313,-19 152.766,-19.5 155.016,-19.5 C158.906,-19.5 161.016,-18 161.016,-15.0938 L161.016,-14.4531 C150.453,-14.2969 145.813,-11.9063 145.813,-6.75 C145.813,-2.34375 149.109,0.5 154.203,0.5 M152.203,-7.59375 C152.203,-9.79688 154.766,-10.7969 161.016,-10.9063 L161.016,-6.29688 C159.813,-5.15625 158.156,-4.5 156.313,-4.5 C153.859,-4.5 152.203,-5.75 152.203,-7.59375 M173.547,0 L179.891,0 L179.891,-16.0469 C181.344,-17.7969 183.391,-18.7969 185.641,-18.7969 C186.797,-18.7969 188,-18.5469 188.938,-18.0938 L190.391,-23.7031 C189.297,-24.25 187.938,-24.5469 186.641,-24.5469 C183.75,-24.5469 181.047,-23.0938 179.188,-20.7031 L178.594,-24.2969 L173.547,-24.2969 L173.547,0 M195.031,0 L201.188,0 L201.188,-19.2031 L208.188,-19.2031 L208.188,-24.2969 L201.188,-24.2969 L201.188,-28.1563 C201.188,-30.75 202.594,-32.1563 205.234,-32.1563 C206.484,-32.1563 208.031,-31.9063 208.938,-31.4063 L210.234,-36 C208.688,-36.9063 206.781,-37.4531 204.734,-37.4531 C198.938,-37.4531 195.031,-33.5 195.031,-27.6094 L195.031,-24.2969 L191.281,-24.2969 L191.281,-19.2031 L195.031,-19.2031 L195.031,0 M222.281,0.5 C229.984,0.5 235.141,-4.75 235.141,-12.5469 C235.141,-20 230.375,-24.7969 223.078,-24.7969 C215.375,-24.7969 210.234,-19.5938 210.234,-11.75 C210.234,-4.34375 214.938,0.5 222.281,0.5 M222.828,-4.90625 C219.078,-4.90625 216.688,-7.79688 216.688,-12.2969 C216.688,-16.7031 218.875,-19.4063 222.484,-19.4063 C226.234,-19.4063 228.688,-16.4531 228.688,-11.9063 C228.688,-7.59375 226.438,-4.90625 222.828,-4.90625 M240.281,0 L246.625,0 L246.625,-16.0469 C248.078,-17.7969 250.125,-18.7969 252.375,-18.7969 C253.531,-18.7969 254.734,-18.5469 255.672,-18.0938 L257.125,-23.7031 C256.031,-24.25 254.672,-24.5469 253.375,-24.5469 C250.484,-24.5469 247.781,-23.0938 245.922,-20.7031 L245.328,-24.2969 L240.281,-24.2969 L240.281,0 M269.516,0.5 C272.578,0.5 275.125,-0.703125 276.969,-2.84375 L278.328,0 L282.422,0 L282.422,-36.9531 L276.219,-36.9531 L276.219,-22.9531 C274.672,-24.1563 272.672,-24.7969 270.375,-24.7969 C263.516,-24.7969 258.969,-19.7031 258.969,-11.9531 C258.969,-4.45313 263.328,0.5 269.516,0.5 M265.422,-12.3438 C265.422,-16.7031 267.578,-19.4063 271.219,-19.4063 C273.328,-19.4063 275.078,-18.5469 276.219,-17.0469 L276.219,-7.09375 C275.125,-5.70313 273.469,-4.90625 271.469,-4.90625 C267.766,-4.90625 265.422,-7.79688 265.422,-12.3438 " fill-rule="nonzero"/>
  </g>
  <g stroke="#000000" transform="matrix(0.31992,2.44868e-16,-2.44868e-16,0.31992,2125.21,1353.24)" font-weight="400" stroke-opacity="1" stroke-linejoin="bevel" font-family="Cantarell" fill="none" stroke-linecap="square" font-style="normal" stroke-width="1" font-size="45.8333"/>
  <g stroke="#000000" transform="matrix(0.999751,0,0,0.999751,0,0)" font-weight="400" stroke-opacity="1" stroke-linejoin="bevel" font-family="Cantarell" fill="none" stroke-linecap="square" font-style="normal" stroke-width="1" font-size="45.8333"/>
  <g stroke="#000000" transform="matrix(0.31992,2.44868e-16,-2.44868e-16,0.31992,1391.15,1244.65)" font-weight="400" stroke-opacity="1" stroke-linejoin="bevel" font-family="Cantarell" fill="none" stroke-linecap="square" font-style="normal" stroke-width="1" font-size="45.8333"/>
  <g fill-opacity="1" stroke="none" transform="matrix(0.999751,2.44868e-16,-2.44868e-16,0.999751,1391.15,1244.65)" font-weight="400" font-family="Cantarell" fill="#ffffff" font-style="normal" font-size="45.8333">
   <path vector-effect="none" d="M11.5,0 L18.4063,0 L25.25,-25.8594 L32.9063,0 L39.5469,0 L50.2969,-34.7031 L43.7969,-34.7031 L36.5,-8.45313 L29.1094,-34.5 L22,-34.5 L15.1563,-8.04688 L8.04688,-34.7031 L0.75,-34.7031 L11.5,0 M66.1406,0.5 C69,0.5 72.0938,-0.09375 74.7031,-1.20313 L73.2969,-5.59375 C71.3438,-4.79688 69.2031,-4.34375 67.1406,-4.34375 C62.75,-4.34375 60.0938,-6.40625 59.3438,-10.4063 L75.0938,-10.4063 C75.25,-11.4063 75.3906,-12.9063 75.3906,-14 C75.3906,-20.6563 71.3438,-24.7969 64.8438,-24.7969 C57.5938,-24.7969 52.75,-19.6563 52.75,-12.0938 C52.75,-4.29688 57.8438,0.5 66.1406,0.5 M64.3906,-19.9063 C67.5469,-19.9063 69.3906,-17.9063 69.3906,-14.4063 L59.2031,-14.4063 C59.5938,-18 61.3906,-19.9063 64.3906,-19.9063 M88.6875,0.5 C95.3906,0.5 99.2969,-2.45313 99.2969,-7.29688 C99.2969,-16.4063 85.5938,-13.3438 85.5938,-17.4531 C85.5938,-18.9063 87.2969,-19.7969 90.2969,-19.7969 C92.2969,-19.7969 94.6875,-19.4063 96.9375,-18.75 L98.25,-23.5469 C96,-24.3438 93.1406,-24.7969 90.3906,-24.7969 C83.4375,-24.7969 79.3906,-22 79.3906,-17 C79.3906,-7.95313 92.9375,-11.4063 92.9375,-7 C92.9375,-5.45313 91.3438,-4.5 88.5938,-4.5 C86.25,-4.5 83,-5.15625 80.4375,-6.15625 L79.0469,-1.40625 C81.8438,-0.203125 85.3906,0.5 88.6875,0.5 M113.797,0.34375 C115.438,0.34375 117.234,0 118.797,-0.5 L117.484,-5.04688 C116.797,-4.75 115.938,-4.59375 115.188,-4.59375 C112.891,-4.59375 111.438,-5.95313 111.438,-8.04688 L111.438,-19.2031 L117.547,-19.2031 L117.547,-24.2969 L111.438,-24.2969 L111.438,-31.3594 L105.141,-31.3594 L105.141,-24.2969 L101.734,-24.2969 L101.734,-19.2031 L105.141,-19.2031 L105.141,-7.65625 C105.141,-2.75 108.391,0.34375 113.797,0.34375 M133.516,0 L139.969,0 L139.969,-11.1563 L144.313,-11.1563 C152.922,-11.1563 158.625,-16 158.625,-23.4063 C158.625,-30.3594 153.516,-34.7031 145.422,-34.7031 L133.516,-34.7031 L133.516,0 M144.813,-29.0469 C149.063,-29.0469 151.922,-26.4531 151.922,-22.5938 C151.922,-18.8438 149.563,-16.75 145.469,-16.75 L139.969,-16.75 L139.969,-29.0469 L144.813,-29.0469 M170.453,0.5 C173.563,0.5 176.203,-0.546875 178.063,-2.45313 L178.953,0 L183.516,0 L183.516,-14.5938 C183.516,-21.2031 179.766,-24.7969 172.609,-24.7969 C169.109,-24.7969 165.406,-23.9531 162.563,-22.4531 L164.063,-18 C166.563,-19 169.016,-19.5 171.266,-19.5 C175.156,-19.5 177.266,-18 177.266,-15.0938 L177.266,-14.4531 C166.703,-14.2969 162.063,-11.9063 162.063,-6.75 C162.063,-2.34375 165.359,0.5 170.453,0.5 M168.453,-7.59375 C168.453,-9.79688 171.016,-10.7969 177.266,-10.9063 L177.266,-6.29688 C176.063,-5.15625 174.406,-4.5 172.563,-4.5 C170.109,-4.5 168.453,-5.75 168.453,-7.59375 M189.797,0 L196.141,0 L196.141,-16.0469 C197.594,-17.7969 199.641,-18.7969 201.891,-18.7969 C203.047,-18.7969 204.25,-18.5469 205.188,-18.0938 L206.641,-23.7031 C205.547,-24.25 204.188,-24.5469 202.891,-24.5469 C200,-24.5469 197.297,-23.0938 195.438,-20.7031 L194.844,-24.2969 L189.797,-24.2969 L189.797,0 M219.594,0.34375 C221.234,0.34375 223.031,0 224.594,-0.5 L223.281,-5.04688 C222.594,-4.75 221.734,-4.59375 220.984,-4.59375 C218.688,-4.59375 217.234,-5.95313 217.234,-8.04688 L217.234,-19.2031 L223.344,-19.2031 L223.344,-24.2969 L217.234,-24.2969 L217.234,-31.3594 L210.938,-31.3594 L210.938,-24.2969 L207.531,-24.2969 L207.531,-19.2031 L210.938,-19.2031 L210.938,-7.65625 C210.938,-2.75 214.188,0.34375 219.594,0.34375 M239.375,0.5 C247.078,0.5 252.234,-4.75 252.234,-12.5469 C252.234,-20 247.469,-24.7969 240.172,-24.7969 C232.469,-24.7969 227.328,-19.5938 227.328,-11.75 C227.328,-4.34375 232.031,0.5 239.375,0.5 M239.922,-4.90625 C236.172,-4.90625 233.781,-7.79688 233.781,-12.2969 C233.781,-16.7031 235.969,-19.4063 239.578,-19.4063 C243.328,-19.4063 245.781,-16.4531 245.781,-11.9063 C245.781,-7.59375 243.531,-4.90625 239.922,-4.90625 M257.328,0 L263.719,0 L263.719,-17.4063 C265.125,-18.5469 266.828,-19.1563 268.672,-19.1563 C271.766,-19.1563 273.328,-17.4063 273.328,-14.0938 L273.328,0 L279.719,0 L279.719,-15 C279.719,-21 276.328,-24.7031 270.875,-24.7031 C267.922,-24.7031 265.172,-23.6563 263.016,-21.6563 L261.875,-24.2969 L257.328,-24.2969 L257.328,0" fill-rule="nonzero"/>
  </g>
  <g stroke="#000000" transform="matrix(0.31992,2.44868e-16,-2.44868e-16,0.31992,1391.15,1244.65)" font-weight="400" stroke-opacity="1" stroke-linejoin="bevel" font-family="Cantarell" fill="none" stroke-linecap="square" font-style="normal" stroke-width="1" font-size="45.8333"/>
  <g stroke="#000000" transform="matrix(0.999751,0,0,0.999751,0,0)" font-weight="400" stroke-opacity="1" stroke-linejoin="bevel" font-family="Cantarell" fill="none" stroke-linecap="square" font-style="normal" stroke-width="1" font-size="45.8333"/>
  <g stroke="#000000" transform="matrix(0.296625,-0.119844,0.119844,0.296625,2549.58,2113.19)" font-weight="400" stroke-opacity="1" stroke-linejoin="bevel" font-family="Cantarell" fill="none" stroke-linecap="square" font-style="normal" stroke-width="1" font-size="45.8333"/>
  <g fill-opacity="1" stroke="none" transform="matrix(0.926953,-0.374513,0.374513,0.926953,2549.58,2113.19)" font-weight="400" font-family="Cantarell" fill="#ffffff" font-style="normal" font-size="45.8333">
   <path vector-effect="none" d="M13.8438,0.5 C22.3438,0.5 27.4063,-3.70313 27.4063,-10.2031 C27.4063,-22.75 9.15625,-18.4063 9.15625,-25.4063 C9.15625,-28.0469 11.5938,-29.5469 15.9063,-29.5469 C18.7969,-29.5469 21.9531,-29 24.4063,-28.0469 L26.25,-33.1563 C23.2969,-34.4531 19.7031,-35.2031 16.2969,-35.2031 C8,-35.2031 2.45313,-30.9531 2.45313,-24.4063 C2.45313,-12.5469 20.6563,-16.4531 20.6563,-9.40625 C20.6563,-6.84375 18.4531,-5.29688 14.1563,-5.29688 C11,-5.29688 7.15625,-6 3.70313,-7.45313 L1.90625,-2.25 C5.59375,-0.546875 9.84375,0.5 13.8438,0.5 M43.1406,0.5 C46.0781,0.5 48.8281,-0.15625 51.1406,-1.40625 L49.6875,-5.79688 C47.9844,-5.04688 46.1406,-4.65625 44.5313,-4.65625 C40.0313,-4.65625 37.4375,-7.45313 37.4375,-12.2969 C37.4375,-16.9063 39.7344,-19.4063 44.0781,-19.4063 C45.8906,-19.4063 47.9375,-19 49.6875,-18.2969 L51.0313,-23.3438 C48.9375,-24.2969 46.3906,-24.7969 43.8906,-24.7969 C36.0313,-24.7969 30.9375,-19.5938 30.9375,-11.5938 C30.9375,-4 35.4844,0.5 43.1406,0.5 M67.4688,0.5 C70.3281,0.5 73.4219,-0.09375 76.0313,-1.20313 L74.625,-5.59375 C72.6719,-4.79688 70.5313,-4.34375 68.4688,-4.34375 C64.0781,-4.34375 61.4219,-6.40625 60.6719,-10.4063 L76.4219,-10.4063 C76.5781,-11.4063 76.7188,-12.9063 76.7188,-14 C76.7188,-20.6563 72.6719,-24.7969 66.1719,-24.7969 C58.9219,-24.7969 54.0781,-19.6563 54.0781,-12.0938 C54.0781,-4.29688 59.1719,0.5 67.4688,0.5 M65.7188,-19.9063 C68.875,-19.9063 70.7188,-17.9063 70.7188,-14.4063 L60.5313,-14.4063 C60.9219,-18 62.7188,-19.9063 65.7188,-19.9063 M82.0781,0 L88.4688,0 L88.4688,-17.4063 C89.875,-18.5469 91.5781,-19.1563 93.4219,-19.1563 C96.5156,-19.1563 98.0781,-17.4063 98.0781,-14.0938 L98.0781,0 L104.469,0 L104.469,-15 C104.469,-21 101.078,-24.7031 95.625,-24.7031 C92.6719,-24.7031 89.9219,-23.6563 87.7656,-21.6563 L86.625,-24.2969 L82.0781,-24.2969 L82.0781,0 M114.156,-28.7969 C116.563,-28.7969 118.109,-30.2969 118.109,-32.7031 C118.109,-35.1094 116.563,-36.6563 114.156,-36.6563 C111.766,-36.6563 110.266,-35.1094 110.266,-32.7031 C110.266,-30.2969 111.766,-28.7969 114.156,-28.7969 M110.953,0 L117.313,0 L117.313,-24.2969 L110.953,-24.2969 L110.953,0 M134.813,0.5 C137.75,0.5 140.5,-0.15625 142.813,-1.40625 L141.359,-5.79688 C139.656,-5.04688 137.813,-4.65625 136.203,-4.65625 C131.703,-4.65625 129.109,-7.45313 129.109,-12.2969 C129.109,-16.9063 131.406,-19.4063 135.75,-19.4063 C137.563,-19.4063 139.609,-19 141.359,-18.2969 L142.703,-23.3438 C140.609,-24.2969 138.063,-24.7969 135.563,-24.7969 C127.703,-24.7969 122.609,-19.5938 122.609,-11.5938 C122.609,-4 127.156,0.5 134.813,0.5 M166.531,0 L173.234,0 L185.734,-34.7031 L179.141,-34.7031 L170.188,-7.65625 L161.578,-34.7031 L154.078,-34.7031 L166.531,0 M193.125,-28.7969 C195.531,-28.7969 197.078,-30.2969 197.078,-32.7031 C197.078,-35.1094 195.531,-36.6563 193.125,-36.6563 C190.734,-36.6563 189.234,-35.1094 189.234,-32.7031 C189.234,-30.2969 190.734,-28.7969 193.125,-28.7969 M189.922,0 L196.281,0 L196.281,-24.2969 L189.922,-24.2969 L189.922,0 M211.219,0.5 C217.922,0.5 221.828,-2.45313 221.828,-7.29688 C221.828,-16.4063 208.125,-13.3438 208.125,-17.4531 C208.125,-18.9063 209.828,-19.7969 212.828,-19.7969 C214.828,-19.7969 217.219,-19.4063 219.469,-18.75 L220.781,-23.5469 C218.531,-24.3438 215.672,-24.7969 212.922,-24.7969 C205.969,-24.7969 201.922,-22 201.922,-17 C201.922,-7.95313 215.469,-11.4063 215.469,-7 C215.469,-5.45313 213.875,-4.5 211.125,-4.5 C208.781,-4.5 205.531,-5.15625 202.969,-6.15625 L201.578,-1.40625 C204.375,-0.203125 207.922,0.5 211.219,0.5 M236.328,0.34375 C237.969,0.34375 239.766,0 241.328,-0.5 L240.016,-5.04688 C239.328,-4.75 238.469,-4.59375 237.719,-4.59375 C235.422,-4.59375 233.969,-5.95313 233.969,-8.04688 L233.969,-19.2031 L240.078,-19.2031 L240.078,-24.2969 L233.969,-24.2969 L233.969,-31.3594 L227.672,-31.3594 L227.672,-24.2969 L224.266,-24.2969 L224.266,-19.2031 L227.672,-19.2031 L227.672,-7.65625 C227.672,-2.75 230.922,0.34375 236.328,0.34375 M252.453,0.5 C255.563,0.5 258.203,-0.546875 260.063,-2.45313 L260.953,0 L265.516,0 L265.516,-14.5938 C265.516,-21.2031 261.766,-24.7969 254.609,-24.7969 C251.109,-24.7969 247.406,-23.9531 244.563,-22.4531 L246.063,-18 C248.563,-19 251.016,-19.5 253.266,-19.5 C257.156,-19.5 259.266,-18 259.266,-15.0938 L259.266,-14.4531 C248.703,-14.2969 244.063,-11.9063 244.063,-6.75 C244.063,-2.34375 247.359,0.5 252.453,0.5 M250.453,-7.59375 C250.453,-9.79688 253.016,-10.7969 259.266,-10.9063 L259.266,-6.29688 C258.063,-5.15625 256.406,-4.5 254.563,-4.5 C252.109,-4.5 250.453,-5.75 250.453,-7.59375 " fill-rule="nonzero"/>
  </g>
  <g stroke="#000000" transform="matrix(0.296625,-0.119844,0.119844,0.296625,2549.58,2113.19)" font-weight="400" stroke-opacity="1" stroke-linejoin="bevel" font-family="Cantarell" fill="none" stroke-linecap="square" font-style="normal" stroke-width="1" font-size="45.8333"/>
  <g stroke="#000000" transform="matrix(0.999751,0,0,0.999751,0,0)" font-weight="400" stroke-opacity="1" stroke-linejoin="bevel" font-family="Cantarell" fill="none" stroke-linecap="square" font-style="normal" stroke-width="1" font-size="45.8333"/>
  <g stroke="#000000" transform="matrix(0.31992,2.44868e-16,-2.44868e-16,0.31992,1653.9,1562.98)" font-weight="400" stroke-opacity="1" stroke-linejoin="bevel" font-family="Cantarell" fill="none" stroke-linecap="square" font-style="normal" stroke-width="1" font-size="45.8333"/>
  <g fill-opacity="1" stroke="none" transform="matrix(0.999751,2.44868e-16,-2.44868e-16,0.999751,1653.9,1562.98)" font-weight="400" font-family="Cantarell" fill="#ffffff" font-style="normal" font-size="45.8333">
   <path vector-effect="none" d="M18.9063,0.453125 C29.3594,0.453125 36.2969,-6.79688 36.2969,-17.6563 C36.2969,-28.1563 29.5469,-35.2031 19.4063,-35.2031 C9.09375,-35.2031 2.25,-27.9531 2.25,-17.0938 C2.25,-6.54688 8.90625,0.453125 18.9063,0.453125 M19.4063,-5.15625 C13.0938,-5.15625 8.95313,-10.1563 8.95313,-17.6563 C8.95313,-24.7969 12.9063,-29.5469 18.9063,-29.5469 C25.2969,-29.5469 29.6094,-24.5938 29.6094,-17.0938 C29.6094,-9.95313 25.5,-5.15625 19.4063,-5.15625 M48.6406,0.5 C51.75,0.5 54.3906,-0.546875 56.25,-2.45313 L57.1406,0 L61.7031,0 L61.7031,-14.5938 C61.7031,-21.2031 57.9531,-24.7969 50.7969,-24.7969 C47.2969,-24.7969 43.5938,-23.9531 40.75,-22.4531 L42.25,-18 C44.75,-19 47.2031,-19.5 49.4531,-19.5 C53.3438,-19.5 55.4531,-18 55.4531,-15.0938 L55.4531,-14.4531 C44.8906,-14.2969 40.25,-11.9063 40.25,-6.75 C40.25,-2.34375 43.5469,0.5 48.6406,0.5 M46.6406,-7.59375 C46.6406,-9.79688 49.2031,-10.7969 55.4531,-10.9063 L55.4531,-6.29688 C54.25,-5.15625 52.5938,-4.5 50.75,-4.5 C48.2969,-4.5 46.6406,-5.75 46.6406,-7.59375 M67.9375,0 L74.2344,0 L74.2344,-12.4531 L83.2813,0 L91.4844,0 L81.4844,-13.3438 L90.5781,-24.2969 L83.125,-24.2969 L74.2344,-13.2031 L74.2344,-36.9531 L67.9375,-36.9531 L67.9375,0 M112.063,0 L118.969,0 L125.813,-25.8594 L133.469,0 L140.109,0 L150.859,-34.7031 L144.359,-34.7031 L137.063,-8.45313 L129.672,-34.5 L122.563,-34.5 L115.719,-8.04688 L108.609,-34.7031 L101.313,-34.7031 L112.063,0 M158.406,-28.7969 C160.813,-28.7969 162.359,-30.2969 162.359,-32.7031 C162.359,-35.1094 160.813,-36.6563 158.406,-36.6563 C156.016,-36.6563 154.516,-35.1094 154.516,-32.7031 C154.516,-30.2969 156.016,-28.7969 158.406,-28.7969 M155.203,0 L161.563,0 L161.563,-24.2969 L155.203,-24.2969 L155.203,0 M175.109,0.34375 C176.656,0.34375 178.406,0.046875 179.75,-0.546875 L178.406,-4.79688 C177.859,-4.59375 177.313,-4.5 176.859,-4.5 C175.406,-4.5 174.609,-5.5 174.609,-7.20313 L174.609,-36.9531 L168.313,-36.9531 L168.313,-6.40625 C168.313,-2.20313 170.859,0.34375 175.109,0.34375 M189.656,0.34375 C191.203,0.34375 192.953,0.046875 194.297,-0.546875 L192.953,-4.79688 C192.406,-4.59375 191.859,-4.5 191.406,-4.5 C189.953,-4.5 189.156,-5.5 189.156,-7.20313 L189.156,-36.9531 L182.859,-36.9531 L182.859,-6.40625 C182.859,-2.20313 185.406,0.34375 189.656,0.34375 M208,0.5 C215.703,0.5 220.859,-4.75 220.859,-12.5469 C220.859,-20 216.094,-24.7969 208.797,-24.7969 C201.094,-24.7969 195.953,-19.5938 195.953,-11.75 C195.953,-4.34375 200.656,0.5 208,0.5 M208.547,-4.90625 C204.797,-4.90625 202.406,-7.79688 202.406,-12.2969 C202.406,-16.7031 204.594,-19.4063 208.203,-19.4063 C211.953,-19.4063 214.406,-16.4531 214.406,-11.9063 C214.406,-7.59375 212.156,-4.90625 208.547,-4.90625 M231.594,0 L237.547,0 L242.594,-17.1563 L248.094,0 L254.453,0 L263.156,-24.2969 L256.906,-24.2969 L251.5,-6.79688 L246.344,-24.2031 L239.953,-24.2031 L234.891,-6.5 L229.703,-24.2969 L222.703,-24.2969 L231.594,0" fill-rule="nonzero"/>
  </g>
  <g stroke="#000000" transform="matrix(0.31992,2.44868e-16,-2.44868e-16,0.31992,1653.9,1562.98)" font-weight="400" stroke-opacity="1" stroke-linejoin="bevel" font-family="Cantarell" fill="none" stroke-linecap="square" font-style="normal" stroke-width="1" font-size="45.8333"/>
  <g stroke="#000000" transform="matrix(0.999751,0,0,0.999751,0,0)" font-weight="400" stroke-opacity="1" stroke-linejoin="bevel" font-family="Cantarell" fill="none" stroke-linecap="square" font-style="normal" stroke-width="1" font-size="45.8333"/>
  <g stroke="#000000" transform="matrix(0.31992,2.44868e-16,-2.44868e-16,0.31992,1757.36,1208.19)" font-weight="400" stroke-opacity="1" stroke-linejoin="bevel" font-family="Cantarell" fill="none" stroke-linecap="square" font-style="normal" stroke-width="1" font-size="45.8333"/>
  <g fill-opacity="1" stroke="none" transform="matrix(0.999751,2.44868e-16,-2.44868e-16,0.999751,1757.36,1208.19)" font-weight="400" font-family="Cantarell" fill="#ffffff" font-style="normal" font-size="45.8333">
   <path vector-effect="none" d="M4.25,0 L27.6563,0 L27.6563,-5.65625 L10.7031,-5.65625 L10.7031,-14.9531 L26.25,-14.9531 L26.25,-20.5938 L10.7031,-20.5938 L10.7031,-29.0469 L27.6563,-29.0469 L27.6563,-34.7031 L4.25,-34.7031 L4.25,0 M40.3281,0.5 C43.4375,0.5 46.0781,-0.546875 47.9375,-2.45313 L48.8281,0 L53.3906,0 L53.3906,-14.5938 C53.3906,-21.2031 49.6406,-24.7969 42.4844,-24.7969 C38.9844,-24.7969 35.2813,-23.9531 32.4375,-22.4531 L33.9375,-18 C36.4375,-19 38.8906,-19.5 41.1406,-19.5 C45.0313,-19.5 47.1406,-18 47.1406,-15.0938 L47.1406,-14.4531 C36.5781,-14.2969 31.9375,-11.9063 31.9375,-6.75 C31.9375,-2.34375 35.2344,0.5 40.3281,0.5 M38.3281,-7.59375 C38.3281,-9.79688 40.8906,-10.7969 47.1406,-10.9063 L47.1406,-6.29688 C45.9375,-5.15625 44.2813,-4.5 42.4375,-4.5 C39.9844,-4.5 38.3281,-5.75 38.3281,-7.59375 M67.5625,0.5 C74.2656,0.5 78.1719,-2.45313 78.1719,-7.29688 C78.1719,-16.4063 64.4688,-13.3438 64.4688,-17.4531 C64.4688,-18.9063 66.1719,-19.7969 69.1719,-19.7969 C71.1719,-19.7969 73.5625,-19.4063 75.8125,-18.75 L77.125,-23.5469 C74.875,-24.3438 72.0156,-24.7969 69.2656,-24.7969 C62.3125,-24.7969 58.2656,-22 58.2656,-17 C58.2656,-7.95313 71.8125,-11.4063 71.8125,-7 C71.8125,-5.45313 70.2188,-4.5 67.4688,-4.5 C65.125,-4.5 61.875,-5.15625 59.3125,-6.15625 L57.9219,-1.40625 C60.7188,-0.203125 64.2656,0.5 67.5625,0.5 M92.6719,0.34375 C94.3125,0.34375 96.1094,0 97.6719,-0.5 L96.3594,-5.04688 C95.6719,-4.75 94.8125,-4.59375 94.0625,-4.59375 C91.7656,-4.59375 90.3125,-5.95313 90.3125,-8.04688 L90.3125,-19.2031 L96.4219,-19.2031 L96.4219,-24.2969 L90.3125,-24.2969 L90.3125,-31.3594 L84.0156,-31.3594 L84.0156,-24.2969 L80.6094,-24.2969 L80.6094,-19.2031 L84.0156,-19.2031 L84.0156,-7.65625 C84.0156,-2.75 87.2656,0.34375 92.6719,0.34375 M112.391,0 L118.844,0 L118.844,-11.1563 L123.188,-11.1563 C131.797,-11.1563 137.5,-16 137.5,-23.4063 C137.5,-30.3594 132.391,-34.7031 124.297,-34.7031 L112.391,-34.7031 L112.391,0 M123.688,-29.0469 C127.938,-29.0469 130.797,-26.4531 130.797,-22.5938 C130.797,-18.8438 128.438,-16.75 124.344,-16.75 L118.844,-16.75 L118.844,-29.0469 L123.688,-29.0469 M149.328,0.5 C152.438,0.5 155.078,-0.546875 156.938,-2.45313 L157.828,0 L162.391,0 L162.391,-14.5938 C162.391,-21.2031 158.641,-24.7969 151.484,-24.7969 C147.984,-24.7969 144.281,-23.9531 141.438,-22.4531 L142.938,-18 C145.438,-19 147.891,-19.5 150.141,-19.5 C154.031,-19.5 156.141,-18 156.141,-15.0938 L156.141,-14.4531 C145.578,-14.2969 140.938,-11.9063 140.938,-6.75 C140.938,-2.34375 144.234,0.5 149.328,0.5 M147.328,-7.59375 C147.328,-9.79688 149.891,-10.7969 156.141,-10.9063 L156.141,-6.29688 C154.938,-5.15625 153.281,-4.5 151.438,-4.5 C148.984,-4.5 147.328,-5.75 147.328,-7.59375 M168.672,0 L175.016,0 L175.016,-16.0469 C176.469,-17.7969 178.516,-18.7969 180.766,-18.7969 C181.922,-18.7969 183.125,-18.5469 184.063,-18.0938 L185.516,-23.7031 C184.422,-24.25 183.063,-24.5469 181.766,-24.5469 C178.875,-24.5469 176.172,-23.0938 174.313,-20.7031 L173.719,-24.2969 L168.672,-24.2969 L168.672,0 M198.469,0.34375 C200.109,0.34375 201.906,0 203.469,-0.5 L202.156,-5.04688 C201.469,-4.75 200.609,-4.59375 199.859,-4.59375 C197.563,-4.59375 196.109,-5.95313 196.109,-8.04688 L196.109,-19.2031 L202.219,-19.2031 L202.219,-24.2969 L196.109,-24.2969 L196.109,-31.3594 L189.813,-31.3594 L189.813,-24.2969 L186.406,-24.2969 L186.406,-19.2031 L189.813,-19.2031 L189.813,-7.65625 C189.813,-2.75 193.063,0.34375 198.469,0.34375 M218.25,0.5 C225.953,0.5 231.109,-4.75 231.109,-12.5469 C231.109,-20 226.344,-24.7969 219.047,-24.7969 C211.344,-24.7969 206.203,-19.5938 206.203,-11.75 C206.203,-4.34375 210.906,0.5 218.25,0.5 M218.797,-4.90625 C215.047,-4.90625 212.656,-7.79688 212.656,-12.2969 C212.656,-16.7031 214.844,-19.4063 218.453,-19.4063 C222.203,-19.4063 224.656,-16.4531 224.656,-11.9063 C224.656,-7.59375 222.406,-4.90625 218.797,-4.90625 M236.203,0 L242.594,0 L242.594,-17.4063 C244,-18.5469 245.703,-19.1563 247.547,-19.1563 C250.641,-19.1563 252.203,-17.4063 252.203,-14.0938 L252.203,0 L258.594,0 L258.594,-15 C258.594,-21 255.203,-24.7031 249.75,-24.7031 C246.797,-24.7031 244.047,-23.6563 241.891,-21.6563 L240.75,-24.2969 L236.203,-24.2969 L236.203,0" fill-rule="nonzero"/>
  </g>
  <g stroke="#000000" transform="matrix(0.31992,2.44868e-16,-2.44868e-16,0.31992,1757.36,1208.19)" font-weight="400" stroke-opacity="1" stroke-linejoin="bevel" font-family="Cantarell" fill="none" stroke-linecap="square" font-style="normal" stroke-width="1" font-size="45.8333"/>
  <g stroke="#000000" transform="matrix(0.999751,0,0,0.999751,0,0)" font-weight="400" stroke-opacity="1" stroke-linejoin="bevel" font-family="Cantarell" fill="none" stroke-linecap="square" font-style="normal" stroke-width="1" font-size="45.8333"/>
  <g stroke="#000000" transform="matrix(0.31992,2.44868e-16,-2.44868e-16,0.31992,335.544,672.371)" font-weight="400" stroke-opacity="1" stroke-linejoin="bevel" font-family="Cantarell" fill="none" stroke-linecap="square" font-style="normal" stroke-width="1" font-size="45.8333"/>
  <g fill-opacity="1" stroke="none" transform="matrix(0.999751,2.44868e-16,-2.44868e-16,0.999751,335.544,672.371)" font-weight="400" font-family="Cantarell" fill="#ffffff" font-style="normal" font-size="45.8333">
   <path vector-effect="none" d="M4.25,0 L10.7031,0 L10.7031,-11.1563 L15.0469,-11.1563 C23.6563,-11.1563 29.3594,-16 29.3594,-23.4063 C29.3594,-30.3594 24.25,-34.7031 16.1563,-34.7031 L4.25,-34.7031 L4.25,0 M15.5469,-29.0469 C19.7969,-29.0469 22.6563,-26.4531 22.6563,-22.5938 C22.6563,-18.8438 20.2969,-16.75 16.2031,-16.75 L10.7031,-16.75 L10.7031,-29.0469 L15.5469,-29.0469 M41.1875,0.5 C44.2969,0.5 46.9375,-0.546875 48.7969,-2.45313 L49.6875,0 L54.25,0 L54.25,-14.5938 C54.25,-21.2031 50.5,-24.7969 43.3438,-24.7969 C39.8438,-24.7969 36.1406,-23.9531 33.2969,-22.4531 L34.7969,-18 C37.2969,-19 39.75,-19.5 42,-19.5 C45.8906,-19.5 48,-18 48,-15.0938 L48,-14.4531 C37.4375,-14.2969 32.7969,-11.9063 32.7969,-6.75 C32.7969,-2.34375 36.0938,0.5 41.1875,0.5 M39.1875,-7.59375 C39.1875,-9.79688 41.75,-10.7969 48,-10.9063 L48,-6.29688 C46.7969,-5.15625 45.1406,-4.5 43.2969,-4.5 C40.8438,-4.5 39.1875,-5.75 39.1875,-7.59375 M67.0313,0.34375 C68.5781,0.34375 70.3281,0.046875 71.6719,-0.546875 L70.3281,-4.79688 C69.7813,-4.59375 69.2344,-4.5 68.7813,-4.5 C67.3281,-4.5 66.5313,-5.5 66.5313,-7.20313 L66.5313,-36.9531 L60.2344,-36.9531 L60.2344,-6.40625 C60.2344,-2.20313 62.7813,0.34375 67.0313,0.34375 M81.7188,0.5 C84.8281,0.5 87.4688,-0.546875 89.3281,-2.45313 L90.2188,0 L94.7813,0 L94.7813,-14.5938 C94.7813,-21.2031 91.0313,-24.7969 83.875,-24.7969 C80.375,-24.7969 76.6719,-23.9531 73.8281,-22.4531 L75.3281,-18 C77.8281,-19 80.2813,-19.5 82.5313,-19.5 C86.4219,-19.5 88.5313,-18 88.5313,-15.0938 L88.5313,-14.4531 C77.9688,-14.2969 73.3281,-11.9063 73.3281,-6.75 C73.3281,-2.34375 76.625,0.5 81.7188,0.5 M79.7188,-7.59375 C79.7188,-9.79688 82.2813,-10.7969 88.5313,-10.9063 L88.5313,-6.29688 C87.3281,-5.15625 85.6719,-4.5 83.8281,-4.5 C81.375,-4.5 79.7188,-5.75 79.7188,-7.59375 M111.516,0.5 C114.453,0.5 117.203,-0.15625 119.516,-1.40625 L118.063,-5.79688 C116.359,-5.04688 114.516,-4.65625 112.906,-4.65625 C108.406,-4.65625 105.813,-7.45313 105.813,-12.2969 C105.813,-16.9063 108.109,-19.4063 112.453,-19.4063 C114.266,-19.4063 116.313,-19 118.063,-18.2969 L119.406,-23.3438 C117.313,-24.2969 114.766,-24.7969 112.266,-24.7969 C104.406,-24.7969 99.3125,-19.5938 99.3125,-11.5938 C99.3125,-4 103.859,0.5 111.516,0.5 M135.844,0.5 C138.703,0.5 141.797,-0.09375 144.406,-1.20313 L143,-5.59375 C141.047,-4.79688 138.906,-4.34375 136.844,-4.34375 C132.453,-4.34375 129.797,-6.40625 129.047,-10.4063 L144.797,-10.4063 C144.953,-11.4063 145.094,-12.9063 145.094,-14 C145.094,-20.6563 141.047,-24.7969 134.547,-24.7969 C127.297,-24.7969 122.453,-19.6563 122.453,-12.0938 C122.453,-4.29688 127.547,0.5 135.844,0.5 M134.094,-19.9063 C137.25,-19.9063 139.094,-17.9063 139.094,-14.4063 L128.906,-14.4063 C129.297,-18 131.094,-19.9063 134.094,-19.9063 M160.734,0 L167.281,0 L167.281,-14.9063 L183.188,-14.9063 L183.188,0 L189.734,0 L189.734,-34.7031 L183.188,-34.7031 L183.188,-20.6563 L167.281,-20.6563 L167.281,-34.7031 L160.734,-34.7031 L160.734,0 M200.766,-28.7969 C203.172,-28.7969 204.719,-30.2969 204.719,-32.7031 C204.719,-35.1094 203.172,-36.6563 200.766,-36.6563 C198.375,-36.6563 196.875,-35.1094 196.875,-32.7031 C196.875,-30.2969 198.375,-28.7969 200.766,-28.7969 M197.563,0 L203.922,0 L203.922,-24.2969 L197.563,-24.2969 L197.563,0 M217.469,0.34375 C219.016,0.34375 220.766,0.046875 222.109,-0.546875 L220.766,-4.79688 C220.219,-4.59375 219.672,-4.5 219.219,-4.5 C217.766,-4.5 216.969,-5.5 216.969,-7.20313 L216.969,-36.9531 L210.672,-36.9531 L210.672,-6.40625 C210.672,-2.20313 213.219,0.34375 217.469,0.34375 M232.016,0.34375 C233.563,0.34375 235.313,0.046875 236.656,-0.546875 L235.313,-4.79688 C234.766,-4.59375 234.219,-4.5 233.766,-4.5 C232.313,-4.5 231.516,-5.5 231.516,-7.20313 L231.516,-36.9531 L225.219,-36.9531 L225.219,-6.40625 C225.219,-2.20313 227.766,0.34375 232.016,0.34375 M247.953,0.5 C254.656,0.5 258.563,-2.45313 258.563,-7.29688 C258.563,-16.4063 244.859,-13.3438 244.859,-17.4531 C244.859,-18.9063 246.563,-19.7969 249.563,-19.7969 C251.563,-19.7969 253.953,-19.4063 256.203,-18.75 L257.516,-23.5469 C255.266,-24.3438 252.406,-24.7969 249.656,-24.7969 C242.703,-24.7969 238.656,-22 238.656,-17 C238.656,-7.95313 252.203,-11.4063 252.203,-7 C252.203,-5.45313 250.609,-4.5 247.859,-4.5 C245.516,-4.5 242.266,-5.15625 239.703,-6.15625 L238.313,-1.40625 C241.109,-0.203125 244.656,0.5 247.953,0.5 " fill-rule="nonzero"/>
  </g>
  <g stroke="#000000" transform="matrix(0.31992,2.44868e-16,-2.44868e-16,0.31992,335.544,672.371)" font-weight="400" stroke-opacity="1" stroke-linejoin="bevel" font-family="Cantarell" fill="none" stroke-linecap="square" font-style="normal" stroke-width="1" font-size="45.8333"/>
  <g stroke="#000000" transform="matrix(0.999751,0,0,0.999751,0,0)" font-weight="400" stroke-opacity="1" stroke-linejoin="bevel" font-family="Cantarell" fill="none" stroke-linecap="square" font-style="normal" stroke-width="1" font-size="45.8333"/>
  <g stroke="#000000" transform="matrix(0.31992,2.44868e-16,-2.44868e-16,0.31992,2592.56,1325.32)" font-weight="400" stroke-opacity="1" stroke-linejoin="bevel" font-family="Cantarell" fill="none" stroke-linecap="square" font-style="normal" stroke-width="1" font-size="45.8333"/>
  <g fill-opacity="1" stroke="none" transform="matrix(0.999751,2.44868e-16,-2.44868e-16,0.999751,2592.56,1325.32)" font-weight="400" font-family="Cantarell" fill="#ffffff" font-style="normal" font-size="45.8333">
   <path vector-effect="none" d="M4.25,0 L10.7031,0 L10.7031,-11.1563 L15.0469,-11.1563 C23.6563,-11.1563 29.3594,-16 29.3594,-23.4063 C29.3594,-30.3594 24.25,-34.7031 16.1563,-34.7031 L4.25,-34.7031 L4.25,0 M15.5469,-29.0469 C19.7969,-29.0469 22.6563,-26.4531 22.6563,-22.5938 C22.6563,-18.8438 20.2969,-16.75 16.2031,-16.75 L10.7031,-16.75 L10.7031,-29.0469 L15.5469,-29.0469 M46.1875,0.5 C49.0469,0.5 52.1406,-0.09375 54.75,-1.20313 L53.3438,-5.59375 C51.3906,-4.79688 49.25,-4.34375 47.1875,-4.34375 C42.7969,-4.34375 40.1406,-6.40625 39.3906,-10.4063 L55.1406,-10.4063 C55.2969,-11.4063 55.4375,-12.9063 55.4375,-14 C55.4375,-20.6563 51.3906,-24.7969 44.8906,-24.7969 C37.6406,-24.7969 32.7969,-19.6563 32.7969,-12.0938 C32.7969,-4.29688 37.8906,0.5 46.1875,0.5 M44.4375,-19.9063 C47.5938,-19.9063 49.4375,-17.9063 49.4375,-14.4063 L39.25,-14.4063 C39.6406,-18 41.4375,-19.9063 44.4375,-19.9063 M60.7969,10.8438 L66.9844,10.8438 L66.9844,-1.65625 C68.5469,-0.25 70.5938,0.5 72.9844,0.5 C79.5469,0.5 84.25,-4.90625 84.25,-12.5469 C84.25,-19.7969 79.8906,-24.7969 73.6406,-24.7969 C70.6875,-24.7969 68.0938,-23.6563 66.2344,-21.5938 L65.0938,-24.2969 L60.7969,-24.2969 L60.7969,10.8438 M71.8438,-19.4063 C75.4844,-19.4063 77.7969,-16.5938 77.7969,-12.0469 C77.7969,-7.65625 75.6875,-4.90625 72.1406,-4.90625 C69.9844,-4.90625 68.0938,-5.95313 66.9844,-7.65625 L66.9844,-17.3438 C68.2344,-18.6563 69.9844,-19.4063 71.8438,-19.4063 M89.4375,10.8438 L95.625,10.8438 L95.625,-1.65625 C97.1875,-0.25 99.2344,0.5 101.625,0.5 C108.188,0.5 112.891,-4.90625 112.891,-12.5469 C112.891,-19.7969 108.531,-24.7969 102.281,-24.7969 C99.3281,-24.7969 96.7344,-23.6563 94.875,-21.5938 L93.7344,-24.2969 L89.4375,-24.2969 L89.4375,10.8438 M100.484,-19.4063 C104.125,-19.4063 106.438,-16.5938 106.438,-12.0469 C106.438,-7.65625 104.328,-4.90625 100.781,-4.90625 C98.625,-4.90625 96.7344,-5.95313 95.625,-7.65625 L95.625,-17.3438 C96.875,-18.6563 98.625,-19.4063 100.484,-19.4063 M129.766,0.5 C132.625,0.5 135.719,-0.09375 138.328,-1.20313 L136.922,-5.59375 C134.969,-4.79688 132.828,-4.34375 130.766,-4.34375 C126.375,-4.34375 123.719,-6.40625 122.969,-10.4063 L138.719,-10.4063 C138.875,-11.4063 139.016,-12.9063 139.016,-14 C139.016,-20.6563 134.969,-24.7969 128.469,-24.7969 C121.219,-24.7969 116.375,-19.6563 116.375,-12.0938 C116.375,-4.29688 121.469,0.5 129.766,0.5 M128.016,-19.9063 C131.172,-19.9063 133.016,-17.9063 133.016,-14.4063 L122.828,-14.4063 C123.219,-18 125.016,-19.9063 128.016,-19.9063 M144.422,0 L150.766,0 L150.766,-16.0469 C152.219,-17.7969 154.266,-18.7969 156.516,-18.7969 C157.672,-18.7969 158.875,-18.5469 159.813,-18.0938 L161.266,-23.7031 C160.172,-24.25 158.813,-24.5469 157.516,-24.5469 C154.625,-24.5469 151.922,-23.0938 150.063,-20.7031 L149.469,-24.2969 L144.422,-24.2969 L144.422,0 M175,0 L181.25,0 L181.25,-23.2969 L190.406,-5.34375 L195.344,-5.34375 L204.656,-24 L204.656,0 L210.906,0 L210.906,-34.7031 L204.656,-34.7031 L193.156,-12.2031 L181.344,-34.7031 L175,-34.7031 L175,0 M221.938,-28.7969 C224.344,-28.7969 225.891,-30.2969 225.891,-32.7031 C225.891,-35.1094 224.344,-36.6563 221.938,-36.6563 C219.547,-36.6563 218.047,-35.1094 218.047,-32.7031 C218.047,-30.2969 219.547,-28.7969 221.938,-28.7969 M218.734,0 L225.094,0 L225.094,-24.2969 L218.734,-24.2969 L218.734,0 M238.641,0.34375 C240.188,0.34375 241.938,0.046875 243.281,-0.546875 L241.938,-4.79688 C241.391,-4.59375 240.844,-4.5 240.391,-4.5 C238.938,-4.5 238.141,-5.5 238.141,-7.20313 L238.141,-36.9531 L231.844,-36.9531 L231.844,-6.40625 C231.844,-2.20313 234.391,0.34375 238.641,0.34375 M253.188,0.34375 C254.734,0.34375 256.484,0.046875 257.828,-0.546875 L256.484,-4.79688 C255.938,-4.59375 255.391,-4.5 254.938,-4.5 C253.484,-4.5 252.688,-5.5 252.688,-7.20313 L252.688,-36.9531 L246.391,-36.9531 L246.391,-6.40625 C246.391,-2.20313 248.938,0.34375 253.188,0.34375 " fill-rule="nonzero"/>
  </g>
  <g stroke="#000000" transform="matrix(0.31992,2.44868e-16,-2.44868e-16,0.31992,2592.56,1325.32)" font-weight="400" stroke-opacity="1" stroke-linejoin="bevel" font-family="Cantarell" fill="none" stroke-linecap="square" font-style="normal" stroke-width="1" font-size="45.8333"/>
  <g stroke="#000000" transform="matrix(0.999751,0,0,0.999751,0,0)" font-weight="400" stroke-opacity="1" stroke-linejoin="bevel" font-family="Cantarell" fill="none" stroke-linecap="square" font-style="normal" stroke-width="1" font-size="45.8333"/>
  <g stroke="#000000" transform="matrix(0.31992,2.44868e-16,-2.44868e-16,0.31992,831.724,879.407)" font-weight="400" stroke-opacity="1" stroke-linejoin="bevel" font-family="Cantarell" fill="none" stroke-linecap="square" font-style="normal" stroke-width="1" font-size="45.8333"/>
  <g fill-opacity="1" stroke="none" transform="matrix(0.999751,2.44868e-16,-2.44868e-16,0.999751,831.724,879.407)" font-weight="400" font-family="Cantarell" fill="#ffffff" font-style="normal" font-size="45.8333">
   <path vector-effect="none" d="M4.25,0 L15.75,0 C26.9531,0 34.4531,-7 34.4531,-18.0469 C34.4531,-28.5 27.75,-34.7031 16.4531,-34.7031 L4.25,-34.7031 L4.25,0 M10.6563,-5.54688 L10.6563,-29.1563 L15.9531,-29.1563 C23.5,-29.1563 27.7969,-24.75 27.7969,-17.2031 C27.7969,-9.75 23.75,-5.54688 16.5,-5.54688 L10.6563,-5.54688 M50.4375,0.5 C58.1406,0.5 63.2969,-4.75 63.2969,-12.5469 C63.2969,-20 58.5313,-24.7969 51.2344,-24.7969 C43.5313,-24.7969 38.3906,-19.5938 38.3906,-11.75 C38.3906,-4.34375 43.0938,0.5 50.4375,0.5 M50.9844,-4.90625 C47.2344,-4.90625 44.8438,-7.79688 44.8438,-12.2969 C44.8438,-16.7031 47.0313,-19.4063 50.6406,-19.4063 C54.3906,-19.4063 56.8438,-16.4531 56.8438,-11.9063 C56.8438,-7.59375 54.5938,-4.90625 50.9844,-4.90625 M74.0313,0 L79.9844,0 L85.0313,-17.1563 L90.5313,0 L96.8906,0 L105.594,-24.2969 L99.3438,-24.2969 L93.9375,-6.79688 L88.7813,-24.2031 L82.3906,-24.2031 L77.3281,-6.5 L72.1406,-24.2969 L65.1406,-24.2969 L74.0313,0 M109.188,0 L115.578,0 L115.578,-17.4063 C116.984,-18.5469 118.688,-19.1563 120.531,-19.1563 C123.625,-19.1563 125.188,-17.4063 125.188,-14.0938 L125.188,0 L131.578,0 L131.578,-15 C131.578,-21 128.188,-24.7031 122.734,-24.7031 C119.781,-24.7031 117.031,-23.6563 114.875,-21.6563 L113.734,-24.2969 L109.188,-24.2969 L109.188,0 M147.375,0.34375 C149.016,0.34375 150.813,0 152.375,-0.5 L151.063,-5.04688 C150.375,-4.75 149.516,-4.59375 148.766,-4.59375 C146.469,-4.59375 145.016,-5.95313 145.016,-8.04688 L145.016,-19.2031 L151.125,-19.2031 L151.125,-24.2969 L145.016,-24.2969 L145.016,-31.3594 L138.719,-31.3594 L138.719,-24.2969 L135.313,-24.2969 L135.313,-19.2031 L138.719,-19.2031 L138.719,-7.65625 C138.719,-2.75 141.969,0.34375 147.375,0.34375 M167.156,0.5 C174.859,0.5 180.016,-4.75 180.016,-12.5469 C180.016,-20 175.25,-24.7969 167.953,-24.7969 C160.25,-24.7969 155.109,-19.5938 155.109,-11.75 C155.109,-4.34375 159.813,0.5 167.156,0.5 M167.703,-4.90625 C163.953,-4.90625 161.563,-7.79688 161.563,-12.2969 C161.563,-16.7031 163.75,-19.4063 167.359,-19.4063 C171.109,-19.4063 173.563,-16.4531 173.563,-11.9063 C173.563,-7.59375 171.313,-4.90625 167.703,-4.90625 M190.75,0 L196.703,0 L201.75,-17.1563 L207.25,0 L213.609,0 L222.313,-24.2969 L216.063,-24.2969 L210.656,-6.79688 L205.5,-24.2031 L199.109,-24.2031 L194.047,-6.5 L188.859,-24.2969 L181.859,-24.2969 L190.75,0 M225.906,0 L232.297,0 L232.297,-17.4063 C233.703,-18.5469 235.406,-19.1563 237.25,-19.1563 C240.344,-19.1563 241.906,-17.4063 241.906,-14.0938 L241.906,0 L248.297,0 L248.297,-15 C248.297,-21 244.906,-24.7031 239.453,-24.7031 C236.5,-24.7031 233.75,-23.6563 231.594,-21.6563 L230.453,-24.2969 L225.906,-24.2969 L225.906,0" fill-rule="nonzero"/>
  </g>
  <g stroke="#000000" transform="matrix(0.31992,2.44868e-16,-2.44868e-16,0.31992,831.724,879.407)" font-weight="400" stroke-opacity="1" stroke-linejoin="bevel" font-family="Cantarell" fill="none" stroke-linecap="square" font-style="normal" stroke-width="1" font-size="45.8333"/>
  <g stroke="#000000" transform="matrix(0.999751,0,0,0.999751,0,0)" font-weight="400" stroke-opacity="1" stroke-linejoin="bevel" font-family="Cantarell" fill="none" stroke-linecap="square" font-style="normal" stroke-width="1" font-size="45.8333"/>
  <g stroke="#000000" transform="matrix(0.31992,2.44868e-16,-2.44868e-16,0.31992,805.773,491.764)" font-weight="400" stroke-opacity="1" stroke-linejoin="bevel" font-family="Cantarell" fill="none" stroke-linecap="square" font-style="normal" stroke-width="1" font-size="45.8333"/>
  <g fill-opacity="1" stroke="none" transform="matrix(0.999751,2.44868e-16,-2.44868e-16,0.999751,805.773,491.764)" font-weight="400" font-family="Cantarell" fill="#ffffff" font-style="normal" font-size="45.8333">
   <path vector-effect="none" d="M4.25,0 L10.3438,0 L10.3438,-25.9063 L27.4063,0 L34.6094,0 L34.6094,-34.7031 L28.4531,-34.7031 L28.4063,-8.84375 L11.6563,-34.7031 L4.25,-34.7031 L4.25,0 M52.5938,0.5 C60.2969,0.5 65.4531,-4.75 65.4531,-12.5469 C65.4531,-20 60.6875,-24.7969 53.3906,-24.7969 C45.6875,-24.7969 40.5469,-19.5938 40.5469,-11.75 C40.5469,-4.34375 45.25,0.5 52.5938,0.5 M53.1406,-4.90625 C49.3906,-4.90625 47,-7.79688 47,-12.2969 C47,-16.7031 49.1875,-19.4063 52.7969,-19.4063 C56.5469,-19.4063 59,-16.4531 59,-11.9063 C59,-7.59375 56.75,-4.90625 53.1406,-4.90625 M70.5938,0 L76.9375,0 L76.9375,-16.0469 C78.3906,-17.7969 80.4375,-18.7969 82.6875,-18.7969 C83.8438,-18.7969 85.0469,-18.5469 85.9844,-18.0938 L87.4375,-23.7031 C86.3438,-24.25 84.9844,-24.5469 83.6875,-24.5469 C80.7969,-24.5469 78.0938,-23.0938 76.2344,-20.7031 L75.6406,-24.2969 L70.5938,-24.2969 L70.5938,0 M100.391,0.34375 C102.031,0.34375 103.828,0 105.391,-0.5 L104.078,-5.04688 C103.391,-4.75 102.531,-4.59375 101.781,-4.59375 C99.4844,-4.59375 98.0313,-5.95313 98.0313,-8.04688 L98.0313,-19.2031 L104.141,-19.2031 L104.141,-24.2969 L98.0313,-24.2969 L98.0313,-31.3594 L91.7344,-31.3594 L91.7344,-24.2969 L88.3281,-24.2969 L88.3281,-19.2031 L91.7344,-19.2031 L91.7344,-7.65625 C91.7344,-2.75 94.9844,0.34375 100.391,0.34375 M109.828,0 L116.125,0 L116.125,-17.2031 C117.578,-18.5469 119.172,-19.1563 121.016,-19.1563 C124.172,-19.1563 125.766,-17.4063 125.766,-14.0938 L125.766,0 L132.125,0 L132.125,-15.25 C132.125,-21.0938 128.719,-24.7031 123.172,-24.7031 C120.578,-24.7031 118.172,-23.8438 116.125,-22.1563 L116.125,-36.9531 L109.828,-36.9531 L109.828,0 M144.109,0 L150.063,0 L155.109,-17.1563 L160.609,0 L166.969,0 L175.672,-24.2969 L169.422,-24.2969 L164.016,-6.79688 L158.859,-24.2031 L152.469,-24.2031 L147.406,-6.5 L142.219,-24.2969 L135.219,-24.2969 L144.109,0 M190.953,0.5 C193.813,0.5 196.906,-0.09375 199.516,-1.20313 L198.109,-5.59375 C196.156,-4.79688 194.016,-4.34375 191.953,-4.34375 C187.563,-4.34375 184.906,-6.40625 184.156,-10.4063 L199.906,-10.4063 C200.063,-11.4063 200.203,-12.9063 200.203,-14 C200.203,-20.6563 196.156,-24.7969 189.656,-24.7969 C182.406,-24.7969 177.563,-19.6563 177.563,-12.0938 C177.563,-4.29688 182.656,0.5 190.953,0.5 M189.203,-19.9063 C192.359,-19.9063 194.203,-17.9063 194.203,-14.4063 L184.016,-14.4063 C184.406,-18 186.203,-19.9063 189.203,-19.9063 M213.5,0.5 C220.203,0.5 224.109,-2.45313 224.109,-7.29688 C224.109,-16.4063 210.406,-13.3438 210.406,-17.4531 C210.406,-18.9063 212.109,-19.7969 215.109,-19.7969 C217.109,-19.7969 219.5,-19.4063 221.75,-18.75 L223.063,-23.5469 C220.813,-24.3438 217.953,-24.7969 215.203,-24.7969 C208.25,-24.7969 204.203,-22 204.203,-17 C204.203,-7.95313 217.75,-11.4063 217.75,-7 C217.75,-5.45313 216.156,-4.5 213.406,-4.5 C211.063,-4.5 207.813,-5.15625 205.25,-6.15625 L203.859,-1.40625 C206.656,-0.203125 210.203,0.5 213.5,0.5 M238.609,0.34375 C240.25,0.34375 242.047,0 243.609,-0.5 L242.297,-5.04688 C241.609,-4.75 240.75,-4.59375 240,-4.59375 C237.703,-4.59375 236.25,-5.95313 236.25,-8.04688 L236.25,-19.2031 L242.359,-19.2031 L242.359,-24.2969 L236.25,-24.2969 L236.25,-31.3594 L229.953,-31.3594 L229.953,-24.2969 L226.547,-24.2969 L226.547,-19.2031 L229.953,-19.2031 L229.953,-7.65625 C229.953,-2.75 233.203,0.34375 238.609,0.34375 " fill-rule="nonzero"/>
  </g>
  <g stroke="#000000" transform="matrix(0.31992,2.44868e-16,-2.44868e-16,0.31992,805.773,491.764)" font-weight="400" stroke-opacity="1" stroke-linejoin="bevel" font-family="Cantarell" fill="none" stroke-linecap="square" font-style="normal" stroke-width="1" font-size="45.8333"/>
  <g stroke="#000000" transform="matrix(0.999751,0,0,0.999751,0,0)" font-weight="400" stroke-opacity="1" stroke-linejoin="bevel" font-family="Cantarell" fill="none" stroke-linecap="square" font-style="normal" stroke-width="1" font-size="45.8333"/>
  <g stroke="#000000" transform="matrix(0.31992,2.44868e-16,-2.44868e-16,0.31992,823.054,1210.73)" font-weight="400" stroke-opacity="1" stroke-linejoin="bevel" font-family="Cantarell" fill="none" stroke-linecap="square" font-style="normal" stroke-width="1" font-size="45.8333"/>
  <g fill-opacity="1" stroke="none" transform="matrix(0.999751,2.44868e-16,-2.44868e-16,0.999751,823.054,1210.73)" font-weight="400" font-family="Cantarell" fill="#ffffff" font-style="normal" font-size="45.8333">
   <path vector-effect="none" d="M13.8438,0.5 C22.3438,0.5 27.4063,-3.70313 27.4063,-10.2031 C27.4063,-22.75 9.15625,-18.4063 9.15625,-25.4063 C9.15625,-28.0469 11.5938,-29.5469 15.9063,-29.5469 C18.7969,-29.5469 21.9531,-29 24.4063,-28.0469 L26.25,-33.1563 C23.2969,-34.4531 19.7031,-35.2031 16.2969,-35.2031 C8,-35.2031 2.45313,-30.9531 2.45313,-24.4063 C2.45313,-12.5469 20.6563,-16.4531 20.6563,-9.40625 C20.6563,-6.84375 18.4531,-5.29688 14.1563,-5.29688 C11,-5.29688 7.15625,-6 3.70313,-7.45313 L1.90625,-2.25 C5.59375,-0.546875 9.84375,0.5 13.8438,0.5 M42.9844,0.5 C50.6875,0.5 55.8438,-4.75 55.8438,-12.5469 C55.8438,-20 51.0781,-24.7969 43.7813,-24.7969 C36.0781,-24.7969 30.9375,-19.5938 30.9375,-11.75 C30.9375,-4.34375 35.6406,0.5 42.9844,0.5 M43.5313,-4.90625 C39.7813,-4.90625 37.3906,-7.79688 37.3906,-12.2969 C37.3906,-16.7031 39.5781,-19.4063 43.1875,-19.4063 C46.9375,-19.4063 49.3906,-16.4531 49.3906,-11.9063 C49.3906,-7.59375 47.1406,-4.90625 43.5313,-4.90625 M66.8281,-24.2969 L60.4844,-24.2969 L60.4844,-8.79688 C60.4844,-3.20313 63.9375,0.40625 69.125,0.40625 C71.9375,0.40625 74.6875,-0.65625 76.8281,-2.65625 L77.9375,0 L82.4844,0 L82.4844,-24.2969 L76.125,-24.2969 L76.125,-6.90625 C74.7344,-5.79688 73.125,-5.15625 71.375,-5.15625 C68.0781,-5.15625 66.8281,-7.34375 66.8281,-10.2031 L66.8281,-24.2969 M98.7813,0.34375 C100.422,0.34375 102.219,0 103.781,-0.5 L102.469,-5.04688 C101.781,-4.75 100.922,-4.59375 100.172,-4.59375 C97.875,-4.59375 96.4219,-5.95313 96.4219,-8.04688 L96.4219,-19.2031 L102.531,-19.2031 L102.531,-24.2969 L96.4219,-24.2969 L96.4219,-31.3594 L90.125,-31.3594 L90.125,-24.2969 L86.7188,-24.2969 L86.7188,-19.2031 L90.125,-19.2031 L90.125,-7.65625 C90.125,-2.75 93.375,0.34375 98.7813,0.34375 M108.219,0 L114.516,0 L114.516,-17.2031 C115.969,-18.5469 117.563,-19.1563 119.406,-19.1563 C122.563,-19.1563 124.156,-17.4063 124.156,-14.0938 L124.156,0 L130.516,0 L130.516,-15.25 C130.516,-21.0938 127.109,-24.7031 121.563,-24.7031 C118.969,-24.7031 116.563,-23.8438 114.516,-22.1563 L114.516,-36.9531 L108.219,-36.9531 L108.219,0 M142.5,0 L148.453,0 L153.5,-17.1563 L159,0 L165.359,0 L174.063,-24.2969 L167.813,-24.2969 L162.406,-6.79688 L157.25,-24.2031 L150.859,-24.2031 L145.797,-6.5 L140.609,-24.2969 L133.609,-24.2969 L142.5,0 M189.344,0.5 C192.203,0.5 195.297,-0.09375 197.906,-1.20313 L196.5,-5.59375 C194.547,-4.79688 192.406,-4.34375 190.344,-4.34375 C185.953,-4.34375 183.297,-6.40625 182.547,-10.4063 L198.297,-10.4063 C198.453,-11.4063 198.594,-12.9063 198.594,-14 C198.594,-20.6563 194.547,-24.7969 188.047,-24.7969 C180.797,-24.7969 175.953,-19.6563 175.953,-12.0938 C175.953,-4.29688 181.047,0.5 189.344,0.5 M187.594,-19.9063 C190.75,-19.9063 192.594,-17.9063 192.594,-14.4063 L182.406,-14.4063 C182.797,-18 184.594,-19.9063 187.594,-19.9063 M211.891,0.5 C218.594,0.5 222.5,-2.45313 222.5,-7.29688 C222.5,-16.4063 208.797,-13.3438 208.797,-17.4531 C208.797,-18.9063 210.5,-19.7969 213.5,-19.7969 C215.5,-19.7969 217.891,-19.4063 220.141,-18.75 L221.453,-23.5469 C219.203,-24.3438 216.344,-24.7969 213.594,-24.7969 C206.641,-24.7969 202.594,-22 202.594,-17 C202.594,-7.95313 216.141,-11.4063 216.141,-7 C216.141,-5.45313 214.547,-4.5 211.797,-4.5 C209.453,-4.5 206.203,-5.15625 203.641,-6.15625 L202.25,-1.40625 C205.047,-0.203125 208.594,0.5 211.891,0.5 M237,0.34375 C238.641,0.34375 240.438,0 242,-0.5 L240.688,-5.04688 C240,-4.75 239.141,-4.59375 238.391,-4.59375 C236.094,-4.59375 234.641,-5.95313 234.641,-8.04688 L234.641,-19.2031 L240.75,-19.2031 L240.75,-24.2969 L234.641,-24.2969 L234.641,-31.3594 L228.344,-31.3594 L228.344,-24.2969 L224.938,-24.2969 L224.938,-19.2031 L228.344,-19.2031 L228.344,-7.65625 C228.344,-2.75 231.594,0.34375 237,0.34375 " fill-rule="nonzero"/>
  </g>
  <g stroke="#000000" transform="matrix(0.31992,2.44868e-16,-2.44868e-16,0.31992,823.054,1210.73)" font-weight="400" stroke-opacity="1" stroke-linejoin="bevel" font-family="Cantarell" fill="none" stroke-linecap="square" font-style="normal" stroke-width="1" font-size="45.8333"/>
  <g stroke="#000000" transform="matrix(0.999751,0,0,0.999751,0,0)" font-weight="400" stroke-opacity="1" stroke-linejoin="bevel" font-family="Cantarell" fill="none" stroke-linecap="square" font-style="normal" stroke-width="1" font-size="45.8333"/>
  <g stroke="#000000" transform="matrix(0.31992,2.44868e-16,-2.44868e-16,0.31992,1735.41,1955.94)" font-weight="400" stroke-opacity="1" stroke-linejoin="bevel" font-family="Cantarell" fill="none" stroke-linecap="square" font-style="normal" stroke-width="1" font-size="45.8333"/>
  <g fill-opacity="1" stroke="none" transform="matrix(0.999751,2.44868e-16,-2.44868e-16,0.999751,1735.41,1955.94)" font-weight="400" font-family="Cantarell" fill="#ffffff" font-style="normal" font-size="45.8333">
   <path vector-effect="none" d="M4.25,0 L17.2031,0 C25.6094,0 30.8594,-4.15625 30.8594,-10.75 C30.8594,-15.0938 28.5469,-18.25 24.5469,-19.7031 C26.75,-21.1563 28.1094,-23.7031 28.1094,-26.4531 C28.1094,-31.7969 23.75,-34.7031 15.75,-34.7031 L4.25,-34.7031 L4.25,0 M10.6563,-29.5 L15.25,-29.5 C19.2969,-29.5 21.5469,-27.7969 21.5469,-24.7969 C21.5469,-23 20.7031,-21.5938 18.75,-20.5 L10.6563,-20.5 L10.6563,-29.5 M10.6563,-5.20313 L10.6563,-15.4531 L18.1563,-15.4531 C21.9063,-15.4531 24.2031,-13.25 24.2031,-9.90625 C24.2031,-6.70313 22.25,-5.20313 18.0469,-5.20313 L10.6563,-5.20313 M36.1406,0 L42.4844,0 L42.4844,-16.0469 C43.9375,-17.7969 45.9844,-18.7969 48.2344,-18.7969 C49.3906,-18.7969 50.5938,-18.5469 51.5313,-18.0938 L52.9844,-23.7031 C51.8906,-24.25 50.5313,-24.5469 49.2344,-24.5469 C46.3438,-24.5469 43.6406,-23.0938 41.7813,-20.7031 L41.1875,-24.2969 L36.1406,-24.2969 L36.1406,0 M66.7813,0.5 C74.4844,0.5 79.6406,-4.75 79.6406,-12.5469 C79.6406,-20 74.875,-24.7969 67.5781,-24.7969 C59.875,-24.7969 54.7344,-19.5938 54.7344,-11.75 C54.7344,-4.34375 59.4375,0.5 66.7813,0.5 M67.3281,-4.90625 C63.5781,-4.90625 61.1875,-7.79688 61.1875,-12.2969 C61.1875,-16.7031 63.375,-19.4063 66.9844,-19.4063 C70.7344,-19.4063 73.1875,-16.4531 73.1875,-11.9063 C73.1875,-7.59375 70.9375,-4.90625 67.3281,-4.90625 M91.4219,0.5 C94.5313,0.5 97.1719,-0.546875 99.0313,-2.45313 L99.9219,0 L104.484,0 L104.484,-14.5938 C104.484,-21.2031 100.734,-24.7969 93.5781,-24.7969 C90.0781,-24.7969 86.375,-23.9531 83.5313,-22.4531 L85.0313,-18 C87.5313,-19 89.9844,-19.5 92.2344,-19.5 C96.125,-19.5 98.2344,-18 98.2344,-15.0938 L98.2344,-14.4531 C87.6719,-14.2969 83.0313,-11.9063 83.0313,-6.75 C83.0313,-2.34375 86.3281,0.5 91.4219,0.5 M89.4219,-7.59375 C89.4219,-9.79688 91.9844,-10.7969 98.2344,-10.9063 L98.2344,-6.29688 C97.0313,-5.15625 95.375,-4.5 93.5313,-4.5 C91.0781,-4.5 89.4219,-5.75 89.4219,-7.59375 M119.656,0.5 C122.719,0.5 125.266,-0.703125 127.109,-2.84375 L128.469,0 L132.563,0 L132.563,-36.9531 L126.359,-36.9531 L126.359,-22.9531 C124.813,-24.1563 122.813,-24.7969 120.516,-24.7969 C113.656,-24.7969 109.109,-19.7031 109.109,-11.9531 C109.109,-4.45313 113.469,0.5 119.656,0.5 M115.563,-12.3438 C115.563,-16.7031 117.719,-19.4063 121.359,-19.4063 C123.469,-19.4063 125.219,-18.5469 126.359,-17.0469 L126.359,-7.09375 C125.266,-5.70313 123.609,-4.90625 121.609,-4.90625 C117.906,-4.90625 115.563,-7.79688 115.563,-12.3438 M145.5,0 L151.797,0 L161.25,-24.2969 L154.859,-24.2969 L148.797,-6.09375 L143.047,-24.2969 L136.047,-24.2969 L145.5,0 M168.141,-28.7969 C170.547,-28.7969 172.094,-30.2969 172.094,-32.7031 C172.094,-35.1094 170.547,-36.6563 168.141,-36.6563 C165.75,-36.6563 164.25,-35.1094 164.25,-32.7031 C164.25,-30.2969 165.75,-28.7969 168.141,-28.7969 M164.938,0 L171.297,0 L171.297,-24.2969 L164.938,-24.2969 L164.938,0 M189.984,0.5 C192.844,0.5 195.938,-0.09375 198.547,-1.20313 L197.141,-5.59375 C195.188,-4.79688 193.047,-4.34375 190.984,-4.34375 C186.594,-4.34375 183.938,-6.40625 183.188,-10.4063 L198.938,-10.4063 C199.094,-11.4063 199.234,-12.9063 199.234,-14 C199.234,-20.6563 195.188,-24.7969 188.688,-24.7969 C181.438,-24.7969 176.594,-19.6563 176.594,-12.0938 C176.594,-4.29688 181.688,0.5 189.984,0.5 M188.234,-19.9063 C191.391,-19.9063 193.234,-17.9063 193.234,-14.4063 L183.047,-14.4063 C183.438,-18 185.234,-19.9063 188.234,-19.9063 M210.234,0 L216.188,0 L221.234,-17.1563 L226.734,0 L233.094,0 L241.797,-24.2969 L235.547,-24.2969 L230.141,-6.79688 L224.984,-24.2031 L218.594,-24.2031 L213.531,-6.5 L208.344,-24.2969 L201.344,-24.2969 L210.234,0" fill-rule="nonzero"/>
  </g>
  <g stroke="#000000" transform="matrix(0.31992,2.44868e-16,-2.44868e-16,0.31992,1735.41,1955.94)" font-weight="400" stroke-opacity="1" stroke-linejoin="bevel" font-family="Cantarell" fill="none" stroke-linecap="square" font-style="normal" stroke-width="1" font-size="45.8333"/>
  <g stroke="#000000" transform="matrix(0.999751,0,0,0.999751,0,0)" font-weight="400" stroke-opacity="1" stroke-linejoin="bevel" font-family="Cantarell" fill="none" stroke-linecap="square" font-style="normal" stroke-width="1" font-size="45.8333"/>
  <g stroke="#000000" transform="matrix(0.31992,2.44868e-16,-2.44868e-16,0.31992,2036.15,691.364)" font-weight="400" stroke-opacity="1" stroke-linejoin="bevel" font-family="Cantarell" fill="none" stroke-linecap="square" font-style="normal" stroke-width="1" font-size="45.8333"/>
  <g fill-opacity="1" stroke="none" transform="matrix(0.999751,2.44868e-16,-2.44868e-16,0.999751,2036.15,691.364)" font-weight="400" font-family="Cantarell" fill="#ffffff" font-style="normal" font-size="45.8333">
   <path vector-effect="none" d="M13.8438,0.5 C22.3438,0.5 27.4063,-3.70313 27.4063,-10.2031 C27.4063,-22.75 9.15625,-18.4063 9.15625,-25.4063 C9.15625,-28.0469 11.5938,-29.5469 15.9063,-29.5469 C18.7969,-29.5469 21.9531,-29 24.4063,-28.0469 L26.25,-33.1563 C23.2969,-34.4531 19.7031,-35.2031 16.2969,-35.2031 C8,-35.2031 2.45313,-30.9531 2.45313,-24.4063 C2.45313,-12.5469 20.6563,-16.4531 20.6563,-9.40625 C20.6563,-6.84375 18.4531,-5.29688 14.1563,-5.29688 C11,-5.29688 7.15625,-6 3.70313,-7.45313 L1.90625,-2.25 C5.59375,-0.546875 9.84375,0.5 13.8438,0.5 M39.3281,0.5 C42.4375,0.5 45.0781,-0.546875 46.9375,-2.45313 L47.8281,0 L52.3906,0 L52.3906,-14.5938 C52.3906,-21.2031 48.6406,-24.7969 41.4844,-24.7969 C37.9844,-24.7969 34.2813,-23.9531 31.4375,-22.4531 L32.9375,-18 C35.4375,-19 37.8906,-19.5 40.1406,-19.5 C44.0313,-19.5 46.1406,-18 46.1406,-15.0938 L46.1406,-14.4531 C35.5781,-14.2969 30.9375,-11.9063 30.9375,-6.75 C30.9375,-2.34375 34.2344,0.5 39.3281,0.5 M37.3281,-7.59375 C37.3281,-9.79688 39.8906,-10.7969 46.1406,-10.9063 L46.1406,-6.29688 C44.9375,-5.15625 43.2813,-4.5 41.4375,-4.5 C38.9844,-4.5 37.3281,-5.75 37.3281,-7.59375 M59.8125,0 L65.9688,0 L65.9688,-19.2031 L72.9688,-19.2031 L72.9688,-24.2969 L65.9688,-24.2969 L65.9688,-28.1563 C65.9688,-30.75 67.375,-32.1563 70.0156,-32.1563 C71.2656,-32.1563 72.8125,-31.9063 73.7188,-31.4063 L75.0156,-36 C73.4688,-36.9063 71.5625,-37.4531 69.5156,-37.4531 C63.7188,-37.4531 59.8125,-33.5 59.8125,-27.6094 L59.8125,-24.2969 L56.0625,-24.2969 L56.0625,-19.2031 L59.8125,-19.2031 L59.8125,0 M88.4063,0.5 C91.2656,0.5 94.3594,-0.09375 96.9688,-1.20313 L95.5625,-5.59375 C93.6094,-4.79688 91.4688,-4.34375 89.4063,-4.34375 C85.0156,-4.34375 82.3594,-6.40625 81.6094,-10.4063 L97.3594,-10.4063 C97.5156,-11.4063 97.6563,-12.9063 97.6563,-14 C97.6563,-20.6563 93.6094,-24.7969 87.1094,-24.7969 C79.8594,-24.7969 75.0156,-19.6563 75.0156,-12.0938 C75.0156,-4.29688 80.1094,0.5 88.4063,0.5 M86.6563,-19.9063 C89.8125,-19.9063 91.6563,-17.9063 91.6563,-14.4063 L81.4688,-14.4063 C81.8594,-18 83.6563,-19.9063 86.6563,-19.9063 M121,0 L127.391,0 L127.391,-29.0469 L138.547,-29.0469 L138.547,-34.7031 L109.891,-34.7031 L109.891,-29.0469 L121,-29.0469 L121,0 M153.141,0.5 C160.844,0.5 166,-4.75 166,-12.5469 C166,-20 161.234,-24.7969 153.938,-24.7969 C146.234,-24.7969 141.094,-19.5938 141.094,-11.75 C141.094,-4.34375 145.797,0.5 153.141,0.5 M153.688,-4.90625 C149.938,-4.90625 147.547,-7.79688 147.547,-12.2969 C147.547,-16.7031 149.734,-19.4063 153.344,-19.4063 C157.094,-19.4063 159.547,-16.4531 159.547,-11.9063 C159.547,-7.59375 157.297,-4.90625 153.688,-4.90625 M176.734,0 L182.688,0 L187.734,-17.1563 L193.234,0 L199.594,0 L208.297,-24.2969 L202.047,-24.2969 L196.641,-6.79688 L191.484,-24.2031 L185.094,-24.2031 L180.031,-6.5 L174.844,-24.2969 L167.844,-24.2969 L176.734,0 M211.891,0 L218.281,0 L218.281,-17.4063 C219.688,-18.5469 221.391,-19.1563 223.234,-19.1563 C226.328,-19.1563 227.891,-17.4063 227.891,-14.0938 L227.891,0 L234.281,0 L234.281,-15 C234.281,-21 230.891,-24.7031 225.438,-24.7031 C222.484,-24.7031 219.734,-23.6563 217.578,-21.6563 L216.438,-24.2969 L211.891,-24.2969 L211.891,0" fill-rule="nonzero"/>
  </g>
  <g stroke="#000000" transform="matrix(0.31992,2.44868e-16,-2.44868e-16,0.31992,2036.15,691.364)" font-weight="400" stroke-opacity="1" stroke-linejoin="bevel" font-family="Cantarell" fill="none" stroke-linecap="square" font-style="normal" stroke-width="1" font-size="45.8333"/>
  <g stroke="#000000" transform="matrix(0.999751,0,0,0.999751,0,0)" font-weight="400" stroke-opacity="1" stroke-linejoin="bevel" font-family="Cantarell" fill="none" stroke-linecap="square" font-style="normal" stroke-width="1" font-size="45.8333"/>
  <g stroke="#000000" transform="matrix(0.277059,-0.15996,0.15996,0.277059,2257.38,2012.17)" font-weight="400" stroke-opacity="1" stroke-linejoin="bevel" font-family="Cantarell" fill="none" stroke-linecap="square" font-style="normal" stroke-width="1" font-size="45.8333"/>
  <g fill-opacity="1" stroke="none" transform="matrix(0.86581,-0.499875,0.499875,0.86581,2257.38,2012.17)" font-weight="400" font-family="Cantarell" fill="#ffffff" font-style="normal" font-size="45.8333">
   <path vector-effect="none" d="M19.6563,0.5 C23.2031,0.5 27.1563,-0.40625 30.1094,-1.84375 L28.6563,-6.5 C26.4063,-5.65625 23.5938,-5.15625 21.2031,-5.15625 C13.5469,-5.15625 8.79688,-10.1563 8.79688,-17.9531 C8.79688,-25.2969 13.0938,-29.5 20.4063,-29.5 C23.2031,-29.5 26.3594,-28.9531 28.6094,-28.0469 L30.4063,-33.0469 C27.4531,-34.4531 24.0469,-35.2031 20.5938,-35.2031 C9.59375,-35.2031 2.15625,-27.9531 2.15625,-17.0469 C2.15625,-6.54688 9.20313,0.5 19.6563,0.5 M35.2969,0 L41.5938,0 L41.5938,-17.2031 C43.0469,-18.5469 44.6406,-19.1563 46.4844,-19.1563 C49.6406,-19.1563 51.2344,-17.4063 51.2344,-14.0938 L51.2344,0 L57.5938,0 L57.5938,-15.25 C57.5938,-21.0938 54.1875,-24.7031 48.6406,-24.7031 C46.0469,-24.7031 43.6406,-23.8438 41.5938,-22.1563 L41.5938,-36.9531 L35.2969,-36.9531 L35.2969,0 M70.625,0.5 C73.7344,0.5 76.375,-0.546875 78.2344,-2.45313 L79.125,0 L83.6875,0 L83.6875,-14.5938 C83.6875,-21.2031 79.9375,-24.7969 72.7813,-24.7969 C69.2813,-24.7969 65.5781,-23.9531 62.7344,-22.4531 L64.2344,-18 C66.7344,-19 69.1875,-19.5 71.4375,-19.5 C75.3281,-19.5 77.4375,-18 77.4375,-15.0938 L77.4375,-14.4531 C66.875,-14.2969 62.2344,-11.9063 62.2344,-6.75 C62.2344,-2.34375 65.5313,0.5 70.625,0.5 M68.625,-7.59375 C68.625,-9.79688 71.1875,-10.7969 77.4375,-10.9063 L77.4375,-6.29688 C76.2344,-5.15625 74.5781,-4.5 72.7344,-4.5 C70.2813,-4.5 68.625,-5.75 68.625,-7.59375 M89.9219,10.8438 L96.1094,10.8438 L96.1094,-1.65625 C97.6719,-0.25 99.7188,0.5 102.109,0.5 C108.672,0.5 113.375,-4.90625 113.375,-12.5469 C113.375,-19.7969 109.016,-24.7969 102.766,-24.7969 C99.8125,-24.7969 97.2188,-23.6563 95.3594,-21.5938 L94.2188,-24.2969 L89.9219,-24.2969 L89.9219,10.8438 M100.969,-19.4063 C104.609,-19.4063 106.922,-16.5938 106.922,-12.0469 C106.922,-7.65625 104.813,-4.90625 101.266,-4.90625 C99.1094,-4.90625 97.2188,-5.95313 96.1094,-7.65625 L96.1094,-17.3438 C97.3594,-18.6563 99.1094,-19.4063 100.969,-19.4063 M118.563,10.8438 L124.75,10.8438 L124.75,-1.65625 C126.313,-0.25 128.359,0.5 130.75,0.5 C137.313,0.5 142.016,-4.90625 142.016,-12.5469 C142.016,-19.7969 137.656,-24.7969 131.406,-24.7969 C128.453,-24.7969 125.859,-23.6563 124,-21.5938 L122.859,-24.2969 L118.563,-24.2969 L118.563,10.8438 M129.609,-19.4063 C133.25,-19.4063 135.563,-16.5938 135.563,-12.0469 C135.563,-7.65625 133.453,-4.90625 129.906,-4.90625 C127.75,-4.90625 125.859,-5.95313 124.75,-7.65625 L124.75,-17.3438 C126,-18.6563 127.75,-19.4063 129.609,-19.4063 M153.891,0.5 C157,0.5 159.641,-0.546875 161.5,-2.45313 L162.391,0 L166.953,0 L166.953,-14.5938 C166.953,-21.2031 163.203,-24.7969 156.047,-24.7969 C152.547,-24.7969 148.844,-23.9531 146,-22.4531 L147.5,-18 C150,-19 152.453,-19.5 154.703,-19.5 C158.594,-19.5 160.703,-18 160.703,-15.0938 L160.703,-14.4531 C150.141,-14.2969 145.5,-11.9063 145.5,-6.75 C145.5,-2.34375 148.797,0.5 153.891,0.5 M151.891,-7.59375 C151.891,-9.79688 154.453,-10.7969 160.703,-10.9063 L160.703,-6.29688 C159.5,-5.15625 157.844,-4.5 156,-4.5 C153.547,-4.5 151.891,-5.75 151.891,-7.59375 M173.234,0 L179.578,0 L179.578,-16.0469 C181.031,-17.7969 183.078,-18.7969 185.328,-18.7969 C186.484,-18.7969 187.688,-18.5469 188.625,-18.0938 L190.078,-23.7031 C188.984,-24.25 187.625,-24.5469 186.328,-24.5469 C183.438,-24.5469 180.734,-23.0938 178.875,-20.7031 L178.281,-24.2969 L173.234,-24.2969 L173.234,0 M200.219,0.5 C203.328,0.5 205.969,-0.546875 207.828,-2.45313 L208.719,0 L213.281,0 L213.281,-14.5938 C213.281,-21.2031 209.531,-24.7969 202.375,-24.7969 C198.875,-24.7969 195.172,-23.9531 192.328,-22.4531 L193.828,-18 C196.328,-19 198.781,-19.5 201.031,-19.5 C204.922,-19.5 207.031,-18 207.031,-15.0938 L207.031,-14.4531 C196.469,-14.2969 191.828,-11.9063 191.828,-6.75 C191.828,-2.34375 195.125,0.5 200.219,0.5 M198.219,-7.59375 C198.219,-9.79688 200.781,-10.7969 207.031,-10.9063 L207.031,-6.29688 C205.828,-5.15625 204.172,-4.5 202.328,-4.5 C199.875,-4.5 198.219,-5.75 198.219,-7.59375 M226.063,0.34375 C227.609,0.34375 229.359,0.046875 230.703,-0.546875 L229.359,-4.79688 C228.813,-4.59375 228.266,-4.5 227.813,-4.5 C226.359,-4.5 225.563,-5.5 225.563,-7.20313 L225.563,-36.9531 L219.266,-36.9531 L219.266,-6.40625 C219.266,-2.20313 221.813,0.34375 226.063,0.34375 " fill-rule="nonzero"/>
  </g>
  <g stroke="#000000" transform="matrix(0.277059,-0.15996,0.15996,0.277059,2257.38,2012.17)" font-weight="400" stroke-opacity="1" stroke-linejoin="bevel" font-family="Cantarell" fill="none" stroke-linecap="square" font-style="normal" stroke-width="1" font-size="45.8333"/>
  <g stroke="#000000" transform="matrix(0.999751,0,0,0.999751,0,0)" font-weight="400" stroke-opacity="1" stroke-linejoin="bevel" font-family="Cantarell" fill="none" stroke-linecap="square" font-style="normal" stroke-width="1" font-size="45.8333"/>
  <g stroke="#000000" transform="matrix(0.31992,2.44868e-16,-2.44868e-16,0.31992,1479.61,362.003)" font-weight="400" stroke-opacity="1" stroke-linejoin="bevel" font-family="Cantarell" fill="none" stroke-linecap="square" font-style="normal" stroke-width="1" font-size="45.8333"/>
  <g fill-opacity="1" stroke="none" transform="matrix(0.999751,2.44868e-16,-2.44868e-16,0.999751,1479.61,362.003)" font-weight="400" font-family="Cantarell" fill="#ffffff" font-style="normal" font-size="45.8333">
   <path vector-effect="none" d="M18.9063,0.453125 C29.3594,0.453125 36.2969,-6.79688 36.2969,-17.6563 C36.2969,-28.1563 29.5469,-35.2031 19.4063,-35.2031 C9.09375,-35.2031 2.25,-27.9531 2.25,-17.0938 C2.25,-6.54688 8.90625,0.453125 18.9063,0.453125 M19.4063,-5.15625 C13.0938,-5.15625 8.95313,-10.1563 8.95313,-17.6563 C8.95313,-24.7969 12.9063,-29.5469 18.9063,-29.5469 C25.2969,-29.5469 29.6094,-24.5938 29.6094,-17.0938 C29.6094,-9.95313 25.5,-5.15625 19.4063,-5.15625 M48.5,0.34375 C50.0469,0.34375 51.7969,0.046875 53.1406,-0.546875 L51.7969,-4.79688 C51.25,-4.59375 50.7031,-4.5 50.25,-4.5 C48.7969,-4.5 48,-5.5 48,-7.20313 L48,-36.9531 L41.7031,-36.9531 L41.7031,-6.40625 C41.7031,-2.20313 44.25,0.34375 48.5,0.34375 M65.4375,0.5 C68.5,0.5 71.0469,-0.703125 72.8906,-2.84375 L74.25,0 L78.3438,0 L78.3438,-36.9531 L72.1406,-36.9531 L72.1406,-22.9531 C70.5938,-24.1563 68.5938,-24.7969 66.2969,-24.7969 C59.4375,-24.7969 54.8906,-19.7031 54.8906,-11.9531 C54.8906,-4.45313 59.25,0.5 65.4375,0.5 M61.3438,-12.3438 C61.3438,-16.7031 63.5,-19.4063 67.1406,-19.4063 C69.25,-19.4063 71,-18.5469 72.1406,-17.0469 L72.1406,-7.09375 C71.0469,-5.70313 69.3906,-4.90625 67.3906,-4.90625 C63.6875,-4.90625 61.3438,-7.79688 61.3438,-12.3438 M103.125,0 L109.516,0 L109.516,-29.0469 L120.672,-29.0469 L120.672,-34.7031 L92.0156,-34.7031 L92.0156,-29.0469 L103.125,-29.0469 L103.125,0 M135.266,0.5 C142.969,0.5 148.125,-4.75 148.125,-12.5469 C148.125,-20 143.359,-24.7969 136.063,-24.7969 C128.359,-24.7969 123.219,-19.5938 123.219,-11.75 C123.219,-4.34375 127.922,0.5 135.266,0.5 M135.813,-4.90625 C132.063,-4.90625 129.672,-7.79688 129.672,-12.2969 C129.672,-16.7031 131.859,-19.4063 135.469,-19.4063 C139.219,-19.4063 141.672,-16.4531 141.672,-11.9063 C141.672,-7.59375 139.422,-4.90625 135.813,-4.90625 M158.859,0 L164.813,0 L169.859,-17.1563 L175.359,0 L181.719,0 L190.422,-24.2969 L184.172,-24.2969 L178.766,-6.79688 L173.609,-24.2031 L167.219,-24.2031 L162.156,-6.5 L156.969,-24.2969 L149.969,-24.2969 L158.859,0 M194.016,0 L200.406,0 L200.406,-17.4063 C201.813,-18.5469 203.516,-19.1563 205.359,-19.1563 C208.453,-19.1563 210.016,-17.4063 210.016,-14.0938 L210.016,0 L216.406,0 L216.406,-15 C216.406,-21 213.016,-24.7031 207.563,-24.7031 C204.609,-24.7031 201.859,-23.6563 199.703,-21.6563 L198.563,-24.2969 L194.016,-24.2969 L194.016,0" fill-rule="nonzero"/>
  </g>
  <g stroke="#000000" transform="matrix(0.31992,2.44868e-16,-2.44868e-16,0.31992,1479.61,362.003)" font-weight="400" stroke-opacity="1" stroke-linejoin="bevel" font-family="Cantarell" fill="none" stroke-linecap="square" font-style="normal" stroke-width="1" font-size="45.8333"/>
  <g stroke="#000000" transform="matrix(0.999751,0,0,0.999751,0,0)" font-weight="400" stroke-opacity="1" stroke-linejoin="bevel" font-family="Cantarell" fill="none" stroke-linecap="square" font-style="normal" stroke-width="1" font-size="45.8333"/>
  <g stroke="#000000" transform="matrix(0.31992,2.44868e-16,-2.44868e-16,0.31992,1140.85,1121.5)" font-weight="400" stroke-opacity="1" stroke-linejoin="bevel" font-family="Cantarell" fill="none" stroke-linecap="square" font-style="normal" stroke-width="1" font-size="45.8333"/>
  <g fill-opacity="1" stroke="none" transform="matrix(0.999751,2.44868e-16,-2.44868e-16,0.999751,1140.85,1121.5)" font-weight="400" font-family="Cantarell" fill="#ffffff" font-style="normal" font-size="45.8333">
   <path vector-effect="none" d="M13.8438,0.5 C22.3438,0.5 27.4063,-3.70313 27.4063,-10.2031 C27.4063,-22.75 9.15625,-18.4063 9.15625,-25.4063 C9.15625,-28.0469 11.5938,-29.5469 15.9063,-29.5469 C18.7969,-29.5469 21.9531,-29 24.4063,-28.0469 L26.25,-33.1563 C23.2969,-34.4531 19.7031,-35.2031 16.2969,-35.2031 C8,-35.2031 2.45313,-30.9531 2.45313,-24.4063 C2.45313,-12.5469 20.6563,-16.4531 20.6563,-9.40625 C20.6563,-6.84375 18.4531,-5.29688 14.1563,-5.29688 C11,-5.29688 7.15625,-6 3.70313,-7.45313 L1.90625,-2.25 C5.59375,-0.546875 9.84375,0.5 13.8438,0.5 M42.9844,0.5 C50.6875,0.5 55.8438,-4.75 55.8438,-12.5469 C55.8438,-20 51.0781,-24.7969 43.7813,-24.7969 C36.0781,-24.7969 30.9375,-19.5938 30.9375,-11.75 C30.9375,-4.34375 35.6406,0.5 42.9844,0.5 M43.5313,-4.90625 C39.7813,-4.90625 37.3906,-7.79688 37.3906,-12.2969 C37.3906,-16.7031 39.5781,-19.4063 43.1875,-19.4063 C46.9375,-19.4063 49.3906,-16.4531 49.3906,-11.9063 C49.3906,-7.59375 47.1406,-4.90625 43.5313,-4.90625 M66.8281,-24.2969 L60.4844,-24.2969 L60.4844,-8.79688 C60.4844,-3.20313 63.9375,0.40625 69.125,0.40625 C71.9375,0.40625 74.6875,-0.65625 76.8281,-2.65625 L77.9375,0 L82.4844,0 L82.4844,-24.2969 L76.125,-24.2969 L76.125,-6.90625 C74.7344,-5.79688 73.125,-5.15625 71.375,-5.15625 C68.0781,-5.15625 66.8281,-7.34375 66.8281,-10.2031 L66.8281,-24.2969 M98.7813,0.34375 C100.422,0.34375 102.219,0 103.781,-0.5 L102.469,-5.04688 C101.781,-4.75 100.922,-4.59375 100.172,-4.59375 C97.875,-4.59375 96.4219,-5.95313 96.4219,-8.04688 L96.4219,-19.2031 L102.531,-19.2031 L102.531,-24.2969 L96.4219,-24.2969 L96.4219,-31.3594 L90.125,-31.3594 L90.125,-24.2969 L86.7188,-24.2969 L86.7188,-19.2031 L90.125,-19.2031 L90.125,-7.65625 C90.125,-2.75 93.375,0.34375 98.7813,0.34375 M108.219,0 L114.516,0 L114.516,-17.2031 C115.969,-18.5469 117.563,-19.1563 119.406,-19.1563 C122.563,-19.1563 124.156,-17.4063 124.156,-14.0938 L124.156,0 L130.516,0 L130.516,-15.25 C130.516,-21.0938 127.109,-24.7031 121.563,-24.7031 C118.969,-24.7031 116.563,-23.8438 114.516,-22.1563 L114.516,-36.9531 L108.219,-36.9531 L108.219,0 M146.359,0.34375 C148,0.34375 149.797,0 151.359,-0.5 L150.047,-5.04688 C149.359,-4.75 148.5,-4.59375 147.75,-4.59375 C145.453,-4.59375 144,-5.95313 144,-8.04688 L144,-19.2031 L150.109,-19.2031 L150.109,-24.2969 L144,-24.2969 L144,-31.3594 L137.703,-31.3594 L137.703,-24.2969 L134.297,-24.2969 L134.297,-19.2031 L137.703,-19.2031 L137.703,-7.65625 C137.703,-2.75 140.953,0.34375 146.359,0.34375 M166.141,0.5 C173.844,0.5 179,-4.75 179,-12.5469 C179,-20 174.234,-24.7969 166.938,-24.7969 C159.234,-24.7969 154.094,-19.5938 154.094,-11.75 C154.094,-4.34375 158.797,0.5 166.141,0.5 M166.688,-4.90625 C162.938,-4.90625 160.547,-7.79688 160.547,-12.2969 C160.547,-16.7031 162.734,-19.4063 166.344,-19.4063 C170.094,-19.4063 172.547,-16.4531 172.547,-11.9063 C172.547,-7.59375 170.297,-4.90625 166.688,-4.90625 M184.094,0 L190.484,0 L190.484,-17.4063 C191.891,-18.5469 193.594,-19.1563 195.438,-19.1563 C198.531,-19.1563 200.094,-17.4063 200.094,-14.0938 L200.094,0 L206.484,0 L206.484,-15 C206.484,-21 203.094,-24.7031 197.641,-24.7031 C194.688,-24.7031 191.938,-23.6563 189.781,-21.6563 L188.641,-24.2969 L184.094,-24.2969 L184.094,0" fill-rule="nonzero"/>
  </g>
  <g stroke="#000000" transform="matrix(0.31992,2.44868e-16,-2.44868e-16,0.31992,1140.85,1121.5)" font-weight="400" stroke-opacity="1" stroke-linejoin="bevel" font-family="Cantarell" fill="none" stroke-linecap="square" font-style="normal" stroke-width="1" font-size="45.8333"/>
  <g stroke="#000000" transform="matrix(0.999751,0,0,0.999751,0,0)" font-weight="400" stroke-opacity="1" stroke-linejoin="bevel" font-family="Cantarell" fill="none" stroke-linecap="square" font-style="normal" stroke-width="1" font-size="45.8333"/>
  <g stroke="#000000" transform="matrix(0.31992,2.44868e-16,-2.44868e-16,0.31992,1140.27,820.22)" font-weight="400" stroke-opacity="1" stroke-linejoin="bevel" font-family="Cantarell" fill="none" stroke-linecap="square" font-style="normal" stroke-width="1" font-size="45.8333"/>
  <g fill-opacity="1" stroke="none" transform="matrix(0.999751,2.44868e-16,-2.44868e-16,0.999751,1140.27,820.22)" font-weight="400" font-family="Cantarell" fill="#ffffff" font-style="normal" font-size="45.8333">
   <path vector-effect="none" d="M11.5,0 L18.4063,0 L25.25,-25.8594 L32.9063,0 L39.5469,0 L50.2969,-34.7031 L43.7969,-34.7031 L36.5,-8.45313 L29.1094,-34.5 L22,-34.5 L15.1563,-8.04688 L8.04688,-34.7031 L0.75,-34.7031 L11.5,0 M66.1406,0.5 C69,0.5 72.0938,-0.09375 74.7031,-1.20313 L73.2969,-5.59375 C71.3438,-4.79688 69.2031,-4.34375 67.1406,-4.34375 C62.75,-4.34375 60.0938,-6.40625 59.3438,-10.4063 L75.0938,-10.4063 C75.25,-11.4063 75.3906,-12.9063 75.3906,-14 C75.3906,-20.6563 71.3438,-24.7969 64.8438,-24.7969 C57.5938,-24.7969 52.75,-19.6563 52.75,-12.0938 C52.75,-4.29688 57.8438,0.5 66.1406,0.5 M64.3906,-19.9063 C67.5469,-19.9063 69.3906,-17.9063 69.3906,-14.4063 L59.2031,-14.4063 C59.5938,-18 61.3906,-19.9063 64.3906,-19.9063 M88.6875,0.5 C95.3906,0.5 99.2969,-2.45313 99.2969,-7.29688 C99.2969,-16.4063 85.5938,-13.3438 85.5938,-17.4531 C85.5938,-18.9063 87.2969,-19.7969 90.2969,-19.7969 C92.2969,-19.7969 94.6875,-19.4063 96.9375,-18.75 L98.25,-23.5469 C96,-24.3438 93.1406,-24.7969 90.3906,-24.7969 C83.4375,-24.7969 79.3906,-22 79.3906,-17 C79.3906,-7.95313 92.9375,-11.4063 92.9375,-7 C92.9375,-5.45313 91.3438,-4.5 88.5938,-4.5 C86.25,-4.5 83,-5.15625 80.4375,-6.15625 L79.0469,-1.40625 C81.8438,-0.203125 85.3906,0.5 88.6875,0.5 M113.797,0.34375 C115.438,0.34375 117.234,0 118.797,-0.5 L117.484,-5.04688 C116.797,-4.75 115.938,-4.59375 115.188,-4.59375 C112.891,-4.59375 111.438,-5.95313 111.438,-8.04688 L111.438,-19.2031 L117.547,-19.2031 L117.547,-24.2969 L111.438,-24.2969 L111.438,-31.3594 L105.141,-31.3594 L105.141,-24.2969 L101.734,-24.2969 L101.734,-19.2031 L105.141,-19.2031 L105.141,-7.65625 C105.141,-2.75 108.391,0.34375 113.797,0.34375 M133.578,0.5 C141.281,0.5 146.438,-4.75 146.438,-12.5469 C146.438,-20 141.672,-24.7969 134.375,-24.7969 C126.672,-24.7969 121.531,-19.5938 121.531,-11.75 C121.531,-4.34375 126.234,0.5 133.578,0.5 M134.125,-4.90625 C130.375,-4.90625 127.984,-7.79688 127.984,-12.2969 C127.984,-16.7031 130.172,-19.4063 133.781,-19.4063 C137.531,-19.4063 139.984,-16.4531 139.984,-11.9063 C139.984,-7.59375 137.734,-4.90625 134.125,-4.90625 M151.531,0 L157.922,0 L157.922,-17.4063 C159.328,-18.5469 161.031,-19.1563 162.875,-19.1563 C165.969,-19.1563 167.531,-17.4063 167.531,-14.0938 L167.531,0 L173.922,0 L173.922,-15 C173.922,-21 170.531,-24.7031 165.078,-24.7031 C162.125,-24.7031 159.375,-23.6563 157.219,-21.6563 L156.078,-24.2969 L151.531,-24.2969 L151.531,0" fill-rule="nonzero"/>
  </g>
  <g stroke="#000000" transform="matrix(0.31992,2.44868e-16,-2.44868e-16,0.31992,1140.27,820.22)" font-weight="400" stroke-opacity="1" stroke-linejoin="bevel" font-family="Cantarell" fill="none" stroke-linecap="square" font-style="normal" stroke-width="1" font-size="45.8333"/>
  <g stroke="#000000" transform="matrix(0.999751,0,0,0.999751,0,0)" font-weight="400" stroke-opacity="1" stroke-linejoin="bevel" font-family="Cantarell" fill="none" stroke-linecap="square" font-style="normal" stroke-width="1" font-size="45.8333"/>
  <g stroke="#000000" transform="matrix(0.31992,2.44868e-16,-2.44868e-16,0.31992,1480.63,822.358)" font-weight="400" stroke-opacity="1" stroke-linejoin="bevel" font-family="Cantarell" fill="none" stroke-linecap="square" font-style="normal" stroke-width="1" font-size="45.8333"/>
  <g fill-opacity="1" stroke="none" transform="matrix(0.999751,2.44868e-16,-2.44868e-16,0.999751,1480.63,822.358)" font-weight="400" font-family="Cantarell" fill="#ffffff" font-style="normal" font-size="45.8333">
   <path vector-effect="none" d="M4.25,0 L27.6563,0 L27.6563,-5.65625 L10.7031,-5.65625 L10.7031,-14.9531 L26.25,-14.9531 L26.25,-20.5938 L10.7031,-20.5938 L10.7031,-29.0469 L27.6563,-29.0469 L27.6563,-34.7031 L4.25,-34.7031 L4.25,0 M40.3281,0.5 C43.4375,0.5 46.0781,-0.546875 47.9375,-2.45313 L48.8281,0 L53.3906,0 L53.3906,-14.5938 C53.3906,-21.2031 49.6406,-24.7969 42.4844,-24.7969 C38.9844,-24.7969 35.2813,-23.9531 32.4375,-22.4531 L33.9375,-18 C36.4375,-19 38.8906,-19.5 41.1406,-19.5 C45.0313,-19.5 47.1406,-18 47.1406,-15.0938 L47.1406,-14.4531 C36.5781,-14.2969 31.9375,-11.9063 31.9375,-6.75 C31.9375,-2.34375 35.2344,0.5 40.3281,0.5 M38.3281,-7.59375 C38.3281,-9.79688 40.8906,-10.7969 47.1406,-10.9063 L47.1406,-6.29688 C45.9375,-5.15625 44.2813,-4.5 42.4375,-4.5 C39.9844,-4.5 38.3281,-5.75 38.3281,-7.59375 M67.5625,0.5 C74.2656,0.5 78.1719,-2.45313 78.1719,-7.29688 C78.1719,-16.4063 64.4688,-13.3438 64.4688,-17.4531 C64.4688,-18.9063 66.1719,-19.7969 69.1719,-19.7969 C71.1719,-19.7969 73.5625,-19.4063 75.8125,-18.75 L77.125,-23.5469 C74.875,-24.3438 72.0156,-24.7969 69.2656,-24.7969 C62.3125,-24.7969 58.2656,-22 58.2656,-17 C58.2656,-7.95313 71.8125,-11.4063 71.8125,-7 C71.8125,-5.45313 70.2188,-4.5 67.4688,-4.5 C65.125,-4.5 61.875,-5.15625 59.3125,-6.15625 L57.9219,-1.40625 C60.7188,-0.203125 64.2656,0.5 67.5625,0.5 M92.6719,0.34375 C94.3125,0.34375 96.1094,0 97.6719,-0.5 L96.3594,-5.04688 C95.6719,-4.75 94.8125,-4.59375 94.0625,-4.59375 C91.7656,-4.59375 90.3125,-5.95313 90.3125,-8.04688 L90.3125,-19.2031 L96.4219,-19.2031 L96.4219,-24.2969 L90.3125,-24.2969 L90.3125,-31.3594 L84.0156,-31.3594 L84.0156,-24.2969 L80.6094,-24.2969 L80.6094,-19.2031 L84.0156,-19.2031 L84.0156,-7.65625 C84.0156,-2.75 87.2656,0.34375 92.6719,0.34375 M112.453,0.5 C120.156,0.5 125.313,-4.75 125.313,-12.5469 C125.313,-20 120.547,-24.7969 113.25,-24.7969 C105.547,-24.7969 100.406,-19.5938 100.406,-11.75 C100.406,-4.34375 105.109,0.5 112.453,0.5 M113,-4.90625 C109.25,-4.90625 106.859,-7.79688 106.859,-12.2969 C106.859,-16.7031 109.047,-19.4063 112.656,-19.4063 C116.406,-19.4063 118.859,-16.4531 118.859,-11.9063 C118.859,-7.59375 116.609,-4.90625 113,-4.90625 M130.406,0 L136.797,0 L136.797,-17.4063 C138.203,-18.5469 139.906,-19.1563 141.75,-19.1563 C144.844,-19.1563 146.406,-17.4063 146.406,-14.0938 L146.406,0 L152.797,0 L152.797,-15 C152.797,-21 149.406,-24.7031 143.953,-24.7031 C141,-24.7031 138.25,-23.6563 136.094,-21.6563 L134.953,-24.2969 L130.406,-24.2969 L130.406,0" fill-rule="nonzero"/>
  </g>
  <g stroke="#000000" transform="matrix(0.31992,2.44868e-16,-2.44868e-16,0.31992,1480.63,822.358)" font-weight="400" stroke-opacity="1" stroke-linejoin="bevel" font-family="Cantarell" fill="none" stroke-linecap="square" font-style="normal" stroke-width="1" font-size="45.8333"/>
  <g stroke="#000000" transform="matrix(0.999751,0,0,0.999751,0,0)" font-weight="400" stroke-opacity="1" stroke-linejoin="bevel" font-family="Cantarell" fill="none" stroke-linecap="square" font-style="normal" stroke-width="1" font-size="45.8333"/>
  <g stroke="#000000" transform="matrix(11.8081,0,0,11.8081,0,0)" font-weight="400" stroke-opacity="1" stroke-linejoin="bevel" font-family="Cantarell" fill="none" stroke-linecap="square" font-style="normal" stroke-width="1" font-size="45.8333"/>
  <g stroke="#000000" transform="matrix(11.8081,0,0,11.8081,0,0)" font-weight="400" stroke-opacity="1" stroke-linejoin="bevel" font-family="Cantarell" fill="none" stroke-linecap="square" font-style="normal" stroke-width="1" font-size="45.8333"/>
  <g stroke="#000000" transform="matrix(11.8081,0,0,11.8081,0,0)" font-weight="400" stroke-opacity="1" stroke-linejoin="bevel" font-family="Cantarell" fill="none" stroke-linecap="square" font-style="normal" stroke-width="1" font-size="45.8333"/>
  <g stroke="#000000" transform="matrix(1,0,0,1,0,0)" font-weight="400" stroke-opacity="1" stroke-linejoin="bevel" font-family="Cantarell" fill="none" stroke-linecap="square" font-style="normal" stroke-width="1" font-size="45.8333"/>
  <g stroke="#000000" transform="matrix(11.8081,0,0,11.8081,0,0)" font-weight="400" stroke-opacity="1" stroke-linejoin="bevel" font-family="Cantarell" fill="none" stroke-linecap="square" font-style="normal" stroke-width="1" font-size="45.8333"/>
  <g stroke="#000000" transform="matrix(11.8081,0,0,11.8081,0,0)" font-weight="400" stroke-opacity="1" stroke-linejoin="bevel" font-family="Cantarell" fill="none" stroke-linecap="square" font-style="normal" stroke-width="1" font-size="45.8333"/>
  <g stroke="#000000" transform="matrix(1,0,0,1,0,0)" font-weight="400" stroke-opacity="1" stroke-linejoin="bevel" font-family="Cantarell" fill="none" stroke-linecap="square" font-style="normal" stroke-width="1" font-size="45.8333"/>
 </g>
 <metadata id="qgismetadata">
  <rdf:RDF>
   <cc:Work>
    <dc:format>image/svg+xml</dc:format>
    <dc:title></dc:title>
    <dc:date>2019-06-27T13:24:21</dc:date>
    <dc:identifier></dc:identifier>
    <dc:description></dc:description>
    <dc:creator>
     <cc:Agent>
      <dc:title>Thilo Spinner</dc:title>
     </cc:Agent>
    </dc:creator>
    <dc:publisher>
     <cc:Agent>
      <dc:title>QGIS 3.6.3-Noosa</dc:title>
     </cc:Agent>
    </dc:publisher>
    <dc:subject>
     <rdf:Bag/>
    </dc:subject>
   </cc:Work>
  </rdf:RDF>
 </metadata>
</svg>
