<?xml version='1.0' encoding='UTF-8' standalone='no'?>
<svg xmlns="http://www.w3.org/2000/svg" width="296.926mm" baseProfile="tiny" version="1.2" xmlns:xlink="http://www.w3.org/1999/xlink" viewBox="0 0 3507 2480" height="209.973mm">
 <defs/>
 <g stroke="black" stroke-linejoin="bevel" fill="none" stroke-linecap="square" stroke-width="1" fill-rule="evenodd">
  <g stroke="#000000" transform="matrix(1,0,0,1,0,0)" font-weight="400" stroke-opacity="1" stroke-linejoin="bevel" font-family="Cantarell" fill="none" stroke-linecap="square" font-style="normal" stroke-width="1" font-size="45.8333"/>
  <g stroke="#000000" transform="matrix(1,0,0,1,0,0)" font-weight="400" stroke-opacity="1" stroke-linejoin="bevel" font-family="Cantarell" fill="none" stroke-linecap="square" font-style="normal" stroke-width="1" font-size="45.8333"/>
  <g stroke="#000000" transform="matrix(11.8081,0,0,11.8081,0,0)" font-weight="400" stroke-opacity="1" stroke-linejoin="bevel" font-family="Cantarell" fill="none" stroke-linecap="square" font-style="normal" stroke-width="1" font-size="45.8333"/>
  <g stroke="#000000" transform="matrix(0.999751,0,0,0.999751,0,0)" font-weight="400" stroke-opacity="1" stroke-linejoin="bevel" font-family="Cantarell" fill="none" stroke-linecap="square" font-style="normal" stroke-width="1" font-size="45.8333"/>
  <g fill-opacity="1" stroke="none" transform="matrix(0.999751,0,0,0.999751,0,0)" font-weight="400" font-family="Cantarell" fill="#ffffff" font-style="normal" font-size="45.8333">
   <path vector-effect="none" d="M-2,-2 L3510,-2 L3510,2483 L-2,2483 L-2,-2" fill-rule="evenodd"/>
  </g>
  <g stroke="#000000" transform="matrix(0.999751,0,0,0.999751,0,0)" font-weight="400" stroke-opacity="1" stroke-linejoin="bevel" font-family="Cantarell" fill="none" stroke-linecap="square" font-style="normal" stroke-width="1" font-size="45.8333"/>
  <g stroke="#000000" transform="matrix(11.8081,0,0,11.8081,0,0)" font-weight="400" stroke-opacity="1" stroke-linejoin="bevel" font-family="Cantarell" fill="none" stroke-linecap="square" font-style="normal" stroke-width="1" font-size="45.8333"/>
  <g stroke="#000000" transform="matrix(11.8081,0,0,11.8081,0,0)" font-weight="400" stroke-opacity="1" stroke-linejoin="bevel" font-family="Cantarell" fill="none" stroke-linecap="square" font-style="normal" stroke-width="1" font-size="45.8333"/>
  <g stroke="#000000" transform="matrix(11.8081,0,0,11.8081,0,0)" font-weight="400" stroke-opacity="1" stroke-linejoin="bevel" font-family="Cantarell" fill="none" stroke-linecap="square" font-style="normal" stroke-width="1" font-size="45.8333"/>
  <g fill-opacity="1" stroke="none" transform="matrix(11.8081,0,0,11.8081,0,0)" font-weight="400" font-family="Cantarell" fill="#ffffff" font-style="normal" font-size="45.8333">
   <rect width="297" x="0" y="0" height="210"/>
  </g>
  <g stroke="#000000" transform="matrix(11.8081,0,0,11.8081,0,0)" font-weight="400" stroke-opacity="1" stroke-linejoin="bevel" font-family="Cantarell" fill="none" stroke-linecap="square" font-style="normal" stroke-width="1" font-size="45.8333"/>
  <g stroke="#000000" transform="matrix(11.8081,0,0,11.8081,0,0)" font-weight="400" stroke-opacity="1" stroke-linejoin="bevel" font-family="Cantarell" fill="none" stroke-linecap="square" font-style="normal" stroke-width="1" font-size="45.8333"/>
  <g fill-opacity="0" stroke="none" transform="matrix(0.999751,0,0,0.999751,0,0)" font-weight="400" font-family="Cantarell" fill="#000000" font-style="normal" font-size="45.8333">
   <rect width="3508" x="0" y="0" height="2480"/>
  </g>
  <g fill-opacity="1" stroke="none" transform="matrix(0.999751,0,0,0.999751,0,0)" font-weight="400" font-family="Cantarell" fill="#63a0ea" font-style="normal" font-size="45.8333">
   <path vector-effect="none" d="M685.092,752.129 L604.575,751.246 L609.881,914.551 L507.889,951.104 L404.129,1208.15 L281.503,1196.36 L298.01,1092.6 L371.114,1073.73 L397.931,933.878 L337.502,821.864 L198.958,810.073 L198.958,761.435 L297.708,754.065 L268.23,690.689 L228.436,518.246 L259.387,435.709 L336.028,367.911 L408.248,335.486 L492.353,287.661 L557.439,271.814 L648.56,280.304 L685.32,275.946 L685.092,752.129" fill-rule="evenodd"/>
  </g>
  <g fill-opacity="1" stroke="none" transform="matrix(0.999751,0,0,0.999751,0,0)" font-weight="400" font-family="Cantarell" fill="#74aff1" font-style="normal" font-size="45.8333">
   <path vector-effect="none" d="M685.092,752.129 L685.32,275.946 L716.04,250.289 L769.807,257.835 L768.864,312.545 L845.27,297.453 L873.568,268.211 L920.921,255.949 L1019.96,236.706 L1058.45,271.796 L1115.99,262.033 L1185.32,244.11 L1196.15,265.098 L1210.79,296.368 L1214.33,616.359 L1203.32,614.604 L1129.63,625.216 L1097.79,616.962 L1016.72,597.068 L934.18,598.247 L900.576,647.769 L895.27,693.164 L873.811,725.668 L859.897,748.542 L824.524,770.474 L796.179,770.191 L685.933,763.627 L685.092,752.129" fill-rule="evenodd"/>
  </g>
  <g fill-opacity="1" stroke="none" transform="matrix(0.999751,0,0,0.999751,0,0)" font-weight="400" font-family="Cantarell" fill="#69a5ec" font-style="normal" font-size="45.8333">
   <path vector-effect="none" d="M1185.32,244.11 L1185.79,138.449 L1245.33,91.8744 L1325.51,90.6953 L1416.42,29.2643 L1563.57,-29.219 L1571.12,108.5 L1610.73,129.252 L1701.29,93.4072 L1756,168.869 L1812.59,268.857 L1869.19,261.311 L1859.76,187.735 L1820.14,140.571 L1842.78,85.861 L1833.35,19.8315 L1995.59,8.51215 L1999.36,83.9744 L2037.09,127.365 L2045.92,147.129 L1975.24,381.082 L1961.09,465.977 L1901.83,549.489 L1848.77,644.288 L1691.01,644.288 L1613.19,670.464 L1582.77,671.879 L1524.76,652.778 L1434.45,653.696 L1358.04,625.964 L1290.12,635.019 L1214.33,616.359 L1210.79,296.368 L1185.32,244.11" fill-rule="evenodd"/>
  </g>
  <g fill-opacity="1" stroke="none" transform="matrix(0.999751,0,0,0.999751,0,0)" font-weight="400" font-family="Cantarell" fill="#5897e5" font-style="normal" font-size="45.8333">
   <path vector-effect="none" d="M2037.09,127.365 L2060.38,74.958 L2085.5,81.6788 L2101.33,155.499 L2272.3,352.998 L2233.98,376.58 L2254.61,403.11 L2340.1,388.371 L2453.96,279.053 L2478.48,306.408 L2404.9,410.169 L2464.33,470.539 L2418.11,500.724 L2489.8,602.598 L2491.69,708.245 L2482.88,744.09 L2518.26,803.044 L2544.2,864.358 L2640.88,890.298 L2581.93,937.462 L2581.86,962.584 L2492.44,988.053 L1704.78,980.84 L1705.9,833.809 L1784.66,751.272 L1848.77,644.288 L1901.83,549.489 L1961.09,465.977 L1975.24,381.082 L2045.92,147.129 L2037.09,127.365" fill-rule="evenodd"/>
  </g>
  <g fill-opacity="1" stroke="none" transform="matrix(0.999751,0,0,0.999751,0,0)" font-weight="400" font-family="Cantarell" fill="#4688de" font-style="normal" font-size="45.8333">
   <path vector-effect="none" d="M609.881,914.551 L604.575,751.246 L685.092,752.129 L685.933,763.627 L796.179,770.191 L794.528,973.821 L831.08,974.411 L832.849,1092.32 L1095.61,1090.75 L1096.55,1107.73 L1158.81,1174.7 L1288.04,1321.86 L1351.24,1420.9 L1421.04,1504.85 L1430.47,1539.75 L1380.63,1540.86 L1193.58,1509.92 L1000.2,1400.26 L895.265,1380.22 L656.969,1204.94 L609.569,1081.85 L640.698,915.593 L609.881,914.551" fill-rule="evenodd"/>
  </g>
  <g fill-opacity="1" stroke="none" transform="matrix(0.999751,0,0,0.999751,0,0)" font-weight="400" font-family="Cantarell" fill="#86bef8" font-style="normal" font-size="45.8333">
   <path vector-effect="none" d="M1095.61,1090.75 L832.849,1092.32 L831.08,974.411 L794.528,973.821 L796.179,770.191 L824.524,770.474 L859.897,748.542 L895.27,693.164 L900.576,647.769 L934.18,598.247 L1016.72,597.068 L1097.79,616.962 L1095.61,1090.75" fill-rule="evenodd"/>
  </g>
  <g fill-opacity="1" stroke="none" transform="matrix(0.999751,0,0,0.999751,0,0)" font-weight="400" font-family="Cantarell" fill="#2f74d4" font-style="normal" font-size="45.8333">
   <path vector-effect="none" d="M3166.25,1867.94 L2973.17,1867.94 L2968.85,945.356 L3112.33,852.905 L3166.1,886.863 L3166.25,1867.94" fill-rule="evenodd"/>
  </g>
  <g fill-opacity="1" stroke="none" transform="matrix(0.999751,0,0,0.999751,0,0)" font-weight="400" font-family="Cantarell" fill="#5292e3" font-style="normal" font-size="45.8333">
   <path vector-effect="none" d="M3166.25,1867.94 L3165.95,1933.24 L2803.73,2042.18 L2165.1,2323.94 L2133.86,2292.1 L2135.63,2206.03 L2243.51,2206.62 L2334.3,2132.93 L2382.65,2108.16 L2431.58,2108.16 L2804.65,1898.76 L2841.95,1902.09 L2840.77,1870.25 L2864.94,1828.4 L2972.97,1826.04 L2973.17,1867.94 L3166.25,1867.94" fill-rule="evenodd"/>
  </g>
  <g fill-opacity="1" stroke="none" transform="matrix(0.999751,0,0,0.999751,0,0)" font-weight="400" font-family="Cantarell" fill="#97cdff" font-style="normal" font-size="45.8333">
   <path vector-effect="none" d="M2165.1,2323.94 L2142.48,2363.59 L2019.86,2370.19 L1855.72,2287.18 L1720.94,2254.5 L1678.49,2201.44 L1630.15,2045.8 L1474.51,1894.88 L1364.85,1832.39 L1393.15,1761.64 L1399.05,1663.78 L1384.9,1608.36 L1423.77,1592.42 L1710.08,1598.23 L1711.21,1703.5 L2288.26,1704.28 L2282.02,1967.23 L2261.27,1991.28 L2202.79,2010.62 L2163.17,2023.83 L2140.53,2047.88 L2135.63,2206.03 L2133.86,2292.1 L2165.1,2323.94" fill-rule="evenodd"/>
  </g>
  <g fill-opacity="1" stroke="none" transform="matrix(0.999751,0,0,0.999751,0,0)" font-weight="400" font-family="Cantarell" fill="#91c8fd" font-style="normal" font-size="45.8333">
   <path vector-effect="none" d="M2288.26,1704.28 L2280.85,1554.66 L2512.75,1557.25 L2518.73,2059.24 L2431.58,2108.16 L2382.65,2108.16 L2334.3,2132.93 L2243.51,2206.62 L2135.63,2206.03 L2140.53,2047.88 L2163.17,2023.83 L2261.27,1991.28 L2282.02,1967.23 L2288.26,1704.28" fill-rule="evenodd"/>
  </g>
  <g fill-opacity="1" stroke="none" transform="matrix(0.999751,0,0,0.999751,0,0)" font-weight="400" font-family="Cantarell" fill="#4083dc" font-style="normal" font-size="45.8333">
   <path vector-effect="none" d="M2518.73,2059.24 L2512.75,1557.25 L2971.7,1555.55 L2972.97,1826.04 L2864.94,1828.4 L2840.77,1870.25 L2841.95,1902.09 L2804.65,1898.76 L2518.73,2059.24" fill-rule="evenodd"/>
  </g>
  <g fill-opacity="1" stroke="none" transform="matrix(0.999751,0,0,0.999751,0,0)" font-weight="400" font-family="Cantarell" fill="#5d9ce8" font-style="normal" font-size="45.8333">
   <path vector-effect="none" d="M2971.7,1555.55 L2512.75,1557.25 L2507.27,1068.67 L2442.75,987.598 L2492.44,988.053 L2581.86,962.584 L2607.63,989.625 L2767.99,1155.88 L2878.82,1181.82 L2925.99,1140.55 L2925.99,1056.83 L2969.11,1002.61 L2971.7,1555.55" fill-rule="evenodd"/>
  </g>
  <g fill-opacity="1" stroke="none" transform="matrix(0.999751,0,0,0.999751,0,0)" font-weight="400" font-family="Cantarell" fill="#8cc3fb" font-style="normal" font-size="45.8333">
   <path vector-effect="none" d="M2442.75,987.598 L2507.27,1068.67 L2512.75,1557.25 L2280.85,1554.66 L2288.26,1704.28 L1973.06,1703.85 L1974.24,1633.24 L1988.39,1617.91 L2028.48,1616.73 L2054.42,1594.33 L2049.95,1252.68 L2119.28,1140.9 L2120.7,984.649 L2442.75,987.598" fill-rule="evenodd"/>
  </g>
  <g fill-opacity="1" stroke="none" transform="matrix(0.999751,0,0,0.999751,0,0)" font-weight="400" font-family="Cantarell" fill="#7ab4f4" font-style="normal" font-size="45.8333">
   <path vector-effect="none" d="M1704.78,980.84 L1363.18,981.126 L1361.84,659.055 L1358.04,625.964 L1434.45,653.696 L1524.76,652.778 L1582.77,671.879 L1613.19,670.464 L1691.01,644.288 L1848.77,644.288 L1784.66,751.272 L1705.9,833.809 L1704.78,980.84" fill-rule="evenodd"/>
  </g>
  <g fill-opacity="1" stroke="none" transform="matrix(0.999751,0,0,0.999751,0,0)" font-weight="400" font-family="Cantarell" fill="#3579d7" font-style="normal" font-size="45.8333">
   <path vector-effect="none" d="M1358.04,625.964 L1361.84,659.055 L1363.18,981.126 L1096.13,977.997 L1097.79,616.962 L1129.63,625.216 L1203.32,614.604 L1290.12,635.019 L1358.04,625.964" fill-rule="evenodd"/>
  </g>
  <g fill-opacity="1" stroke="none" transform="matrix(0.999751,0,0,0.999751,0,0)" font-weight="400" font-family="Cantarell" fill="#4c8de0" font-style="normal" font-size="45.8333">
   <path vector-effect="none" d="M1363.18,981.126 L1359.31,1430.6 L1351.24,1420.9 L1288.04,1321.86 L1158.81,1174.7 L1096.55,1107.73 L1096.13,977.997 L1363.18,981.126" fill-rule="evenodd"/>
  </g>
  <g fill-opacity="1" stroke="none" transform="matrix(0.999751,0,0,0.999751,0,0)" font-weight="400" font-family="Cantarell" fill="#6faaef" font-style="normal" font-size="45.8333">
   <path vector-effect="none" d="M1356.71,1536.9 L1380.63,1540.86 L1430.47,1539.75 L1421.04,1504.85 L1396.25,1475.04 L1737.32,1475.17 L1838.65,1410.24 L1985.8,1371.09 L2008.91,1393.26 L2051.82,1395.65 L2054.42,1594.33 L2028.48,1616.73 L1988.39,1617.91 L1974.24,1633.24 L1973.06,1703.85 L1711.21,1703.5 L1710.08,1598.23 L1423.77,1592.42 L1384.9,1608.36 L1356.71,1536.9" fill-rule="evenodd"/>
  </g>
  <g fill-opacity="1" stroke="none" transform="matrix(0.999751,0,0,0.999751,0,0)" font-weight="400" font-family="Cantarell" fill="#80b9f6" font-style="normal" font-size="45.8333">
   <path vector-effect="none" d="M1701.07,1475.15 L1704.78,980.84 L2120.7,984.649 L2119.28,1140.9 L2049.95,1252.68 L2051.82,1395.65 L2008.91,1393.26 L1985.8,1371.09 L1838.65,1410.24 L1737.32,1475.17 L1701.07,1475.15" fill-rule="evenodd"/>
  </g>
  <g fill-opacity="1" stroke="none" transform="matrix(0.999751,0,0,0.999751,0,0)" font-weight="400" font-family="Cantarell" fill="#3b7ed9" font-style="normal" font-size="45.8333">
   <path vector-effect="none" d="M1704.78,980.84 L1701.07,1475.15 L1396.25,1475.04 L1359.31,1430.6 L1363.18,981.126 L1704.78,980.84" fill-rule="evenodd"/>
  </g>
  <g stroke="#000000" transform="matrix(11.8081,0,0,11.8081,0,0)" font-weight="400" stroke-opacity="1" stroke-linejoin="bevel" font-family="Cantarell" fill="none" stroke-linecap="square" font-style="normal" stroke-width="1" font-size="45.8333"/>
  <g stroke="#000000" transform="matrix(11.8081,0,0,11.8081,0,0)" font-weight="400" stroke-opacity="1" stroke-linejoin="bevel" font-family="Cantarell" fill="none" stroke-linecap="square" font-style="normal" stroke-width="1" font-size="45.8333"/>
  <g stroke="#000000" transform="matrix(11.8081,0,0,11.8081,0,0)" font-weight="400" stroke-opacity="1" stroke-linejoin="bevel" font-family="Cantarell" fill="none" stroke-linecap="square" font-style="normal" stroke-width="1" font-size="45.8333"/>
  <g stroke="#000000" transform="matrix(1,0,0,1,0,0)" font-weight="400" stroke-opacity="1" stroke-linejoin="bevel" font-family="Cantarell" fill="none" stroke-linecap="square" font-style="normal" stroke-width="1" font-size="45.8333"/>
  <g stroke="#000000" transform="matrix(11.8081,0,0,11.8081,0,0)" font-weight="400" stroke-opacity="1" stroke-linejoin="bevel" font-family="Cantarell" fill="none" stroke-linecap="square" font-style="normal" stroke-width="1" font-size="45.8333"/>
  <g stroke="#000000" transform="matrix(11.8081,0,0,11.8081,0,0)" font-weight="400" stroke-opacity="1" stroke-linejoin="bevel" font-family="Cantarell" fill="none" stroke-linecap="square" font-style="normal" stroke-width="1" font-size="45.8333"/>
  <g stroke="#000000" transform="matrix(1,0,0,1,0,0)" font-weight="400" stroke-opacity="1" stroke-linejoin="bevel" font-family="Cantarell" fill="none" stroke-linecap="square" font-style="normal" stroke-width="1" font-size="45.8333"/>
 </g>
 <metadata id="qgismetadata">
  <rdf:RDF>
   <cc:Work>
    <dc:format>image/svg+xml</dc:format>
    <dc:title></dc:title>
    <dc:date>2019-06-27T13:24:21</dc:date>
    <dc:identifier></dc:identifier>
    <dc:description></dc:description>
    <dc:creator>
     <cc:Agent>
      <dc:title>Thilo Spinner</dc:title>
     </cc:Agent>
    </dc:creator>
    <dc:publisher>
     <cc:Agent>
      <dc:title>QGIS 3.6.3-Noosa</dc:title>
     </cc:Agent>
    </dc:publisher>
    <dc:subject>
     <rdf:Bag/>
    </dc:subject>
   </cc:Work>
  </rdf:RDF>
 </metadata>
</svg>
